SplineFontDB: 3.2
FontName: tigger-regular-BoldItalic
FullName: tigger-regular Bold Italic
FamilyName: tigger
Weight: Bold
Copyright: (c) 2025 Tadhg O'Brien
Version: 2025.12
ItalicAngle: -40
UnderlinePosition: -150
UnderlineWidth: 50
Ascent: 800
Descent: 200
InvalidEm: 0
LayerCount: 2
Layer: 0 1 "Back" 1
Layer: 1 1 "Fore" 0
XUID: [1021 796 -163880829 13004990]
StyleMap: 0x0040
FSType: 0
OS2Version: 1
OS2_WeightWidthSlopeOnly: 0
OS2_UseTypoMetrics: 0
CreationTime: 1280473793
ModificationTime: 1760831645
PfmFamily: 17
TTFWeight: 500
TTFWidth: 5
LineGap: 90
VLineGap: 0
Panose: 2 0 6 3 0 0 0 0 0 0
OS2TypoAscent: 800
OS2TypoAOffset: 0
OS2TypoDescent: -200
OS2TypoDOffset: 0
OS2TypoLinegap: 90
OS2WinAscent: 843
OS2WinAOffset: 0
OS2WinDescent: 347
OS2WinDOffset: 0
HheadAscent: 843
HheadAOffset: 0
HheadDescent: -347
HheadDOffset: 0
OS2SubXSize: 650
OS2SubYSize: 700
OS2SubXOff: 0
OS2SubYOff: 140
OS2SupXSize: 650
OS2SupYSize: 700
OS2SupXOff: 0
OS2SupYOff: 480
OS2StrikeYSize: 49
OS2StrikeYPos: 258
OS2Vendor: '2ttf'
OS2CodePages: 00000001.00000000
OS2UnicodeRanges: a00000af.00010042.00000000.00000000
Lookup: 1 0 0 "'rtla' Right to Left Alternates lookup 0" { "'rtla' Right to Left Alternates lookup 0 subtable"  } ['rtla' ('DFLT' <'dflt' > ) ]
Lookup: 258 0 0 "'kern' Horizontal Kerning in Latin lookup 0" { "'kern' Horizontal Kerning in Latin lookup 0 subtable" [150,15,0] } ['kern' ('DFLT' <'dflt' > 'latn' <'dflt' > ) ]
MarkAttachClasses: 1
DEI: 91125
TtTable: prep
PUSHW_1
 511
SCANCTRL
PUSHB_1
 1
SCANTYPE
SVTCA[y-axis]
MPPEM
PUSHB_1
 8
LT
IF
PUSHB_2
 1
 1
INSTCTRL
EIF
PUSHB_2
 70
 6
CALL
IF
POP
PUSHB_1
 16
EIF
MPPEM
PUSHB_1
 20
GT
IF
POP
PUSHB_1
 128
EIF
SCVTCI
PUSHB_1
 6
CALL
NOT
IF
EIF
PUSHB_1
 20
CALL
EndTTInstrs
TtTable: fpgm
PUSHB_1
 0
FDEF
PUSHB_1
 0
SZP0
MPPEM
PUSHB_1
 42
LT
IF
PUSHB_1
 74
SROUND
EIF
PUSHB_1
 0
SWAP
MIAP[rnd]
RTG
PUSHB_1
 6
CALL
IF
RTDG
EIF
MPPEM
PUSHB_1
 42
LT
IF
RDTG
EIF
DUP
MDRP[rp0,rnd,grey]
PUSHB_1
 1
SZP0
MDAP[no-rnd]
RTG
ENDF
PUSHB_1
 1
FDEF
DUP

StartChar: .notdef
Encoding: 65536 -1 0
Width: 500
GlyphClass: 1
Flags: HW
LayerCount: 2
Fore
SplineSet
105 566.10546875 m 1
 105 143.10546875 l 1
 395 386.444335938 l 1
 395 809.444335938 l 1
 105 566.10546875 l 1
45 32.759765625 m 1
 45 575.759765625 l 1
 455 919.790039062 l 1
 455 376.790039062 l 1
 45 32.759765625 l 1
EndSplineSet
EndChar

StartChar: exclam
Encoding: 33 33 4
AltUni2: 00ff01.ffffffff.0 00fe57.ffffffff.0 00fe15.ffffffff.0 002762.ffffffff.0 00ff01.ffffffff.0 00fe57.ffffffff.0 00fe15.ffffffff.0 002762.ffffffff.0
Width: 176
GlyphClass: 1
Flags: HW
LayerCount: 2
Fore
SplineSet
84.8583984375 192.130859375 m 0,0,1
 89.0361328125 195.635742188 89.0361328125 195.635742188 93.533203125 198.482421875 c 0,2,3
 104.725585938 207.823242188 104.725585938 207.823242188 110.231445312 209.969726562 c 0,4,5
 132.873046875 217.647460938 132.873046875 217.647460938 147.673828125 216.323242188 c 1,6,7
 164.05859375 209.590820312 164.05859375 209.590820312 164.05859375 189.900390625 c 0,8,9
 164.05859375 188.645507812 164.05859375 188.645507812 163.993164062 187.33984375 c 0,10,11
 161.822265625 144.278320312 161.822265625 144.278320312 120.814453125 94.7138671875 c 0,12,13
 101.796875 73.505859375 101.796875 73.505859375 99.09375 71.23828125 c 0,14,15
 64.71484375 42.390625 64.71484375 42.390625 48.8369140625 52.2109375 c 0,16,17
 38.400390625 59.1083984375 38.400390625 59.1083984375 38.400390625 78.2216796875 c 0,18,19
 38.400390625 103.365234375 38.400390625 103.365234375 53.607421875 145.37109375 c 0,20,21
 64.8095703125 175.307617188 64.8095703125 175.307617188 84.8583984375 192.130859375 c 0,0,1
134.03515625 293.43359375 m 128,-1,23
 123.069335938 273.267578125 123.069335938 273.267578125 107.5 260.203125 c 128,-1,24
 91.9306640625 247.138671875 91.9306640625 247.138671875 80.96484375 248.903320312 c 128,-1,25
 70 250.666992188 70 250.666992188 70 265.737304688 c 0,26,27
 70 449.07421875 70 449.07421875 96.01953125 725.0234375 c 0,28,29
 97.1943359375 740.956054688 97.1943359375 740.956054688 107.729492188 759.27734375 c 128,-1,30
 118.264648438 777.599609375 118.264648438 777.599609375 131.041015625 788.3203125 c 0,31,32
 150.674804688 804.794921875 150.674804688 804.794921875 161.979492188 799.443359375 c 0,33,34
 170.111328125 795.59375 170.111328125 795.59375 170.111328125 782.598632812 c 0,35,36
 170.111328125 780.984375 170.111328125 780.984375 169.985351562 779.24609375 c 2,37,-1
 169.975585938 779.131835938 l 1,38,39
 144.9921875 504.338867188 144.9921875 504.338867188 145 328.669921875 c 0,40,22
 145 313.599609375 145 313.599609375 134.03515625 293.43359375 c 128,-1,23
EndSplineSet
EndChar

StartChar: quotedbl
Encoding: 34 34 5
AltUni2: 00ff02.ffffffff.0 00201d.ffffffff.0 00201c.ffffffff.0 00030e.ffffffff.0 00030b.ffffffff.0 0002ba.ffffffff.0 00ff02.ffffffff.0 00201d.ffffffff.0 00201c.ffffffff.0 00030e.ffffffff.0 00030b.ffffffff.0 0002ba.ffffffff.0
Width: 292
GlyphClass: 1
Flags: HW
LayerCount: 2
Fore
SplineSet
106.435546875 684.065429688 m 0,0,1
 106.435546875 657.999023438 106.435546875 657.999023438 107.884765625 644.677734375 c 128,-1,2
 109.333007812 631.35546875 109.333007812 631.35546875 109.333007812 628.505859375 c 0,3,4
 109.333007812 613.905273438 109.333007812 613.905273438 98.9521484375 592.21875 c 0,5,6
 87.3359375 567.950195312 87.3359375 567.950195312 64.77734375 549.021484375 c 0,7,8
 50.19140625 536.782226562 50.19140625 536.782226562 37.7373046875 536.709960938 c 128,-1,9
 25.283203125 536.638671875 25.283203125 536.638671875 23.0283203125 552.790039062 c 0,10,11
 19.7998046875 580.479492188 19.7998046875 580.479492188 19.7998046875 611.450195312 c 0,12,13
 19.7998046875 696.530273438 19.7998046875 696.530273438 44.162109375 806.323242188 c 0,14,15
 48.7099609375 828.247070312 48.7099609375 828.247070312 64.64453125 850.153320312 c 0,16,17
 74.875 864.21875 74.875 864.21875 83.46484375 871.426757812 c 0,18,19
 92.92578125 879.365234375 92.92578125 879.365234375 98.580078125 882.463867188 c 0,20,21
 115.42578125 890.983398438 115.42578125 890.983398438 123.874023438 882.865234375 c 0,22,23
 129.391601562 877.563476562 129.391601562 877.563476562 129.391601562 869.041015625 c 0,24,25
 129.391601562 860.124023438 129.391601562 860.124023438 127.810546875 852.876953125 c 0,26,27
 106.435546875 759.763671875 106.435546875 759.763671875 106.435546875 684.065429688 c 0,0,1
251.833007812 822.436523438 m 0,28,29
 251.833007812 784.809570312 251.833007812 784.809570312 259.9140625 752.01953125 c 0,30,31
 260.782226562 748.1171875 260.782226562 748.1171875 260.782226562 743.678710938 c 0,32,33
 260.782226562 730.942382812 260.782226562 730.942382812 253.6875 714.138671875 c 0,34,35
 243.682617188 690.439453125 243.682617188 690.439453125 225.92578125 671.66015625 c 0,36,37
 221.46875 667.083984375 221.46875 667.083984375 217.1875 663.4921875 c 0,38,39
 204.188476562 652.584960938 204.188476562 652.584960938 193.159179688 650.965820312 c 0,40,41
 178.493164062 648.8125 178.493164062 648.8125 175.111328125 662.884765625 c 0,42,43
 165.400390625 700.053710938 165.400390625 700.053710938 165.400390625 750.02734375 c 0,44,45
 165.400390625 824.819335938 165.400390625 824.819335938 187.1484375 928.250976562 c 0,46,47
 191.654296875 950.053710938 191.654296875 950.053710938 206.956054688 971.961914062 c 0,48,49
 217.129882812 986.526367188 217.129882812 986.526367188 228.611328125 996.161132812 c 0,50,51
 235.125 1001.62695312 235.125 1001.62695312 240.580078125 1004.61523438 c 0,52,53
 257.231445312 1013.03710938 257.231445312 1013.03710938 266.6875 1006.50878906 c 0,54,55
 273.280273438 1001.95800781 273.280273438 1001.95800781 273.280273438 990.2421875 c 0,56,57
 273.280273438 984.8125 273.280273438 984.8125 271.830078125 977.794921875 c 0,58,59
 251.833007812 886.483398438 251.833007812 886.483398438 251.833007812 822.436523438 c 0,28,29
EndSplineSet
EndChar

StartChar: numbersign
Encoding: 35 35 6
AltUni2: 00ff03.ffffffff.0 00fe5f.ffffffff.0 00ff03.ffffffff.0 00fe5f.ffffffff.0
Width: 731
GlyphClass: 1
Flags: HW
LayerCount: 2
Fore
SplineSet
457.7265625 658.883789062 m 1,0,1
 455.864257812 692.138671875 455.864257812 692.138671875 454.001953125 754.805664062 c 1,2,-1
 454.001953125 754.953125 l 1,3,-1
 454.001953125 795.634765625 l 1,4,5
 361.614257812 712.424804688 361.614257812 712.424804688 329.354492188 684.369140625 c 0,6,7
 321.44140625 676.868164062 321.44140625 676.868164062 307.916992188 665.39453125 c 1,8,9
 307.61328125 656.052734375 307.61328125 656.052734375 306.306640625 645.809570312 c 128,-1,10
 305 635.56640625 305 635.56640625 305 631.92578125 c 2,11,-1
 304.974609375 631.401367188 l 1,12,13
 300.208984375 579.744140625 300.208984375 579.744140625 300.008789062 522.739257812 c 1,14,15
 358.067382812 571.551757812 358.067382812 571.551757812 457.7265625 658.883789062 c 1,0,1
532 994.341796875 m 0,16,17
 532 961.5703125 532 961.5703125 530.49609375 939.491210938 c 1,18,19
 593.62890625 996.456054688 593.62890625 996.456054688 637.3984375 1037.06347656 c 128,-1,20
 681.166992188 1077.671875 681.166992188 1077.671875 682.703125 1078.96191406 c 0,21,22
 695.889648438 1090.02539062 695.889648438 1090.02539062 706.786132812 1089.90722656 c 0,23,24
 720.094726562 1089.76171875 720.094726562 1089.76171875 720.09765625 1074.04003906 c 128,-1,25
 720.099609375 1058.31835938 720.099609375 1058.31835938 710.23828125 1039.0859375 c 128,-1,26
 700.376953125 1019.85351562 700.376953125 1019.85351562 685.43359375 1006.16503906 c 0,27,28
 595.576171875 923.037109375 595.576171875 923.037109375 529 863.171875 c 1,29,-1
 529 817.958984375 l 1,30,31
 530.84765625 756.697265625 530.84765625 756.697265625 532.694335938 725.369140625 c 1,32,33
 630.8359375 815.458007812 630.8359375 815.458007812 659.7265625 842.8203125 c 128,-1,34
 688.6171875 870.182617188 688.6171875 870.182617188 689.958984375 871.307617188 c 0,35,36
 702.735351562 882.028320312 702.735351562 882.028320312 713.284179688 881.38671875 c 0,37,38
 725.106445312 880.666015625 725.106445312 880.666015625 725.111328125 863.58203125 c 0,39,40
 725.111328125 850.586914062 725.111328125 850.586914062 716.431640625 831.913085938 c 0,41,42
 707.461914062 812.61328125 707.461914062 812.61328125 692.54296875 798.141601562 c 0,43,44
 620.803710938 730.189453125 620.803710938 730.189453125 538.795898438 656.439453125 c 1,45,46
 539.529296875 652.177734375 539.529296875 652.177734375 540.737304688 644.3359375 c 0,47,48
 554.879882812 552.487304688 554.879882812 552.487304688 586.958007812 536.571289062 c 0,49,50
 594.400390625 533.470703125 594.400390625 533.470703125 594.400390625 521.520507812 c 0,51,52
 594.400390625 501.9609375 594.400390625 501.9609375 578.936523438 477.739257812 c 0,53,54
 568.362304688 461.17578125 568.362304688 461.17578125 556.055664062 450.848632812 c 0,55,56
 537.71875 435.462890625 537.71875 435.462890625 527.006835938 441.203125 c 0,57,58
 486.25 461.006835938 486.25 461.006835938 469.05859375 557.821289062 c 0,59,60
 465.650390625 577.11328125 465.650390625 577.11328125 463.692382812 588.921875 c 1,61,62
 363.270507812 500.984375 363.270507812 500.984375 303.270507812 450.481445312 c 1,63,64
 303.357421875 449.614257812 303.357421875 449.614257812 303.662109375 447.125976562 c 128,-1,65
 303.966796875 444.63671875 303.966796875 444.63671875 303.997070312 442.435546875 c 0,66,67
 315.842773438 362.97265625 315.842773438 362.97265625 354.90625 346.921875 c 0,68,69
 362.737304688 343.704101562 362.737304688 343.704101562 362.737304688 330.693359375 c 0,70,71
 362.737304688 311.359375 362.737304688 311.359375 349.120117188 289.040039062 c 0,72,73
 339.33203125 272.99609375 339.33203125 272.99609375 326.321289062 262.079101562 c 0,74,75
 306.987304688 245.856445312 306.987304688 245.856445312 296.087890625 250.334960938 c 0,76,77
 244.216796875 271.90234375 244.216796875 271.90234375 230.05078125 371.323242188 c 0,78,79
 228.591796875 380.306640625 228.591796875 380.306640625 228.176757812 386.462890625 c 1,80,-1
 178 344.359375 l 2,81,82
 86.0673828125 267.21875 86.0673828125 267.21875 48.1337890625 234.390625 c 2,83,-1
 48 234.278320312 l 2,84,85
 33.0048828125 221.696289062 33.0048828125 221.696289062 21.5576171875 222.963867188 c 128,-1,86
 10 224.24609375 10 224.24609375 10 239.853515625 c 128,-1,87
 10 255.4609375 10 255.4609375 20.96484375 275.626953125 c 128,-1,88
 31.904296875 295.744140625 31.904296875 295.744140625 46.9306640625 308.379882812 c 0,89,90
 85.01171875 341.333007812 85.01171875 341.333007812 178 419.359375 c 2,91,-1
 225.0078125 458.803710938 l 1,92,93
 225.228515625 528.349609375 225.228515625 528.349609375 230.75 582.65234375 c 0,94,95
 231.474609375 589.775390625 231.474609375 589.775390625 232.399414062 598.875976562 c 1,96,97
 102.90625 487.26953125 102.90625 487.26953125 52.5556640625 445.00390625 c 0,98,99
 39.025390625 433.651367188 39.025390625 433.651367188 28.5849609375 435.331054688 c 128,-1,100
 18.1455078125 437.010742188 18.1455078125 437.010742188 17.0126953125 451.915039062 c 2,101,-1
 17 452.264648438 l 2,102,103
 17 467.255859375 17 467.255859375 27.3701171875 486.903320312 c 128,-1,104
 37.7080078125 506.490234375 37.7080078125 506.490234375 53.6396484375 520.99609375 c 2,105,-1
 53.9609375 521.278320312 l 1,106,107
 180.34375 628.291015625 180.34375 628.291015625 240.545898438 681.6328125 c 1,108,109
 251.984375 787.01171875 251.984375 787.01171875 255.03125 821.553710938 c 0,110,111
 261 880.28515625 261 880.28515625 261 915.004882812 c 0,112,113
 261 931.07421875 261 931.07421875 271.46484375 950.321289062 c 128,-1,114
 281.930664062 969.567382812 281.930664062 969.567382812 298 983.051757812 c 128,-1,115
 314.069335938 996.536132812 314.069335938 996.536132812 325.03515625 994.771484375 c 128,-1,116
 336 993.006835938 336 993.006835938 336 977.9375 c 0,117,118
 336 938.671875 336 938.671875 329.97265625 876.3515625 c 0,119,120
 328.658203125 865.571289062 328.658203125 865.571289062 327.314453125 848.766601562 c 128,-1,121
 325.970703125 831.961914062 325.970703125 831.961914062 323.944335938 819.059570312 c 0,122,123
 321.986328125 801.739257812 321.986328125 801.739257812 321.45703125 793.598632812 c 128,-1,124
 320.927734375 785.45703125 320.927734375 785.45703125 316.99609375 758.551757812 c 0,125,126
 316.9609375 756.296875 316.9609375 756.296875 316.6484375 752.602539062 c 128,-1,127
 316.3359375 748.908203125 316.3359375 748.908203125 316.234375 747.43359375 c 1,128,129
 322.25390625 752.681640625 322.25390625 752.681640625 326.501953125 756.954101562 c 0,130,131
 357.104492188 783.620117188 357.104492188 783.620117188 455.384765625 871.850585938 c 1,132,133
 457 895.377929688 457 895.377929688 457 933.46875 c 2,134,-1
 457 933.58984375 l 1,135,136
 459.99609375 1061.94238281 459.99609375 1061.94238281 459.005859375 1081.91015625 c 2,137,-1
 459 1082.14648438 l 2,138,139
 459 1098.21679688 459 1098.21679688 469.96484375 1118.3828125 c 128,-1,140
 481.020507812 1138.71386719 481.020507812 1138.71386719 496.997070312 1152.12304688 c 128,-1,141
 512.974609375 1165.53222656 512.974609375 1165.53222656 523.46484375 1163.84375 c 128,-1,142
 533.955078125 1162.15625 533.955078125 1162.15625 534 1147.19726562 c 0,143,144
 534.25 1141.78613281 534.25 1141.78613281 534.25 1117.38867188 c 128,-1,145
 534.25 1092.99121094 534.25 1092.99121094 532 994.341796875 c 0,16,17
EndSplineSet
EndChar

StartChar: dollar
Encoding: 36 36 7
AltUni2: 00ff04.ffffffff.0 00fe69.ffffffff.0 00ff04.ffffffff.0 00fe69.ffffffff.0
Width: 555
GlyphClass: 1
Flags: HW
LayerCount: 2
Fore
SplineSet
318.321289062 359.493164062 m 1,0,-1
 311.079101562 350.495117188 l 1,1,-1
 311.079101562 485.026367188 l 2,2,3
 311.079101562 485.296875 311.079101562 485.296875 311.6015625 492.690429688 c 128,-1,4
 312.123046875 500.083007812 312.123046875 500.083007812 312.123046875 535.90234375 c 2,5,-1
 312.123046875 617.272460938 l 1,6,-1
 317.719726562 621.5859375 l 1,7,-1
 332.291015625 632.815429688 l 2,8,9
 383.477539062 672.702148438 383.477539062 672.702148438 409.303710938 680.884765625 c 0,10,11
 430.41796875 688.021484375 430.41796875 688.021484375 444.129882812 679.487304688 c 2,12,-1
 444.333984375 679.333984375 l 1,13,14
 460 665.32421875 460 665.32421875 460 626.985351562 c 0,15,16
 460 571.552734375 460 571.552734375 393.719726562 466.485351562 c 0,17,18
 365.095703125 418.375 365.095703125 418.375 338.158203125 384.138671875 c 2,19,-1
 318.321289062 359.493164062 l 1,0,-1
134.698242188 533.025390625 m 1,20,-1
 127 526.565429688 l 1,21,-1
 122.900390625 523.125976562 l 1,22,-1
 122.096679688 526.466796875 l 1,23,-1
 121.096679688 530.627929688 l 1,24,-1
 121 531.032226562 l 1,25,-1
 121 532.301757812 l 2,26,27
 120 542.51171875 120 542.51171875 120 547.692382812 c 0,28,29
 120 575.341796875 120 575.341796875 140.979492188 621.267578125 c 1,30,-1
 141.46484375 622.23828125 l 1,31,-1
 142.276367188 623.729492188 l 1,32,33
 167.8671875 676.778320312 167.8671875 676.778320312 218.529296875 745.622070312 c 0,34,35
 227.37109375 759.028320312 227.37109375 759.028320312 234.99609375 767.108398438 c 2,36,-1
 252.745117188 785.001953125 l 1,37,-1
 259.158203125 791.466796875 l 1,38,39
 255.744140625 714.482421875 255.744140625 714.482421875 255.744140625 711.594726562 c 2,40,-1
 255.744140625 710.594726562 l 2,41,42
 255.744140625 710.05859375 255.744140625 710.05859375 255.22265625 706.209960938 c 128,-1,43
 254.700195312 702.359375 254.700195312 702.359375 254.700195312 680.422851562 c 128,-1,44
 254.700195312 658.499023438 254.700195312 658.499023438 252.200195312 628.862304688 c 1,45,46
 208.905273438 590.291992188 208.905273438 590.291992188 188.349609375 573.044921875 c 128,-1,47
 167.793945312 555.795898438 167.793945312 555.795898438 153.475585938 545.8046875 c 0,48,49
 138.803710938 534.47265625 138.803710938 534.47265625 134.698242188 533.025390625 c 1,20,-1
315.2578125 790.221679688 m 128,-1,51
 317.348632812 824.515625 317.348632812 824.515625 318.512695312 864.54296875 c 1,52,53
 355.551757812 901.342773438 355.551757812 901.342773438 372.791015625 915.80859375 c 128,-1,54
 390.029296875 930.2734375 390.029296875 930.2734375 403.731445312 938.490234375 c 0,55,56
 407.181640625 939.666015625 407.181640625 939.666015625 410 942.03125 c 0,57,58
 418.615234375 949.259765625 418.615234375 949.259765625 428.076171875 962.791015625 c 128,-1,59
 437.537109375 976.322265625 437.537109375 976.322265625 440.096679688 991.26953125 c 0,60,61
 442 999.267578125 442 999.267578125 442 1004.8828125 c 128,-1,62
 442 1010.49707031 442 1010.49707031 436.416992188 1015.2578125 c 128,-1,63
 430.833007812 1020.01757812 430.833007812 1020.01757812 417.07421875 1011.05273438 c 2,64,-1
 416.5625 1010.74707031 l 1,65,66
 396.965820312 1000.09375 396.965820312 1000.09375 367.458007812 975.333984375 c 0,67,68
 355.1328125 964.991210938 355.1328125 964.991210938 322.563476562 935.263671875 c 1,69,-1
 322.563476562 1041.48925781 l 2,70,71
 321.61328125 1053.63574219 321.61328125 1053.63574219 312.705078125 1054.265625 c 128,-1,72
 303.776367188 1054.8984375 303.776367188 1054.8984375 291.516601562 1044.61132812 c 128,-1,73
 279.2578125 1034.32519531 279.2578125 1034.32519531 271.677734375 1018.14160156 c 128,-1,74
 264.096679688 1001.95703125 264.096679688 1001.95703125 264.096679688 990.603515625 c 0,75,76
 264.096679688 989.752929688 264.096679688 989.752929688 264.619140625 981.69140625 c 128,-1,77
 265.140625 973.62890625 265.140625 973.62890625 265.140625 949.479492188 c 128,-1,78
 265.140625 925.377929688 265.140625 925.377929688 262.911132812 870.1015625 c 1,79,80
 221.294921875 820.099609375 221.294921875 820.099609375 194.38671875 784.635742188 c 0,81,82
 128.21484375 697.586914062 128.21484375 697.586914062 91.9306640625 621.049804688 c 1,83,-1
 91.53515625 620.271484375 l 1,84,-1
 90.689453125 618.717773438 l 1,85,86
 58.240234375 531.91015625 58.240234375 531.91015625 55 495.150390625 c 1,87,88
 55 442.782226562 55 442.782226562 89.873046875 447.50390625 c 0,89,90
 106.875976562 449.243164062 106.875976562 449.243164062 139.939453125 471.334960938 c 0,91,92
 160.475585938 484.655273438 160.475585938 484.655273438 192.057617188 511.155273438 c 0,93,94
 195.033203125 513.65234375 195.033203125 513.65234375 253.65625 566.145507812 c 1,95,-1
 253.65625 435.842773438 l 2,96,97
 253.65625 348.745117188 253.65625 348.745117188 251.37109375 289.92578125 c 1,98,-1
 246.34765625 285.7109375 l 1,99,-1
 227.5546875 269.94140625 l 2,100,101
 173.8046875 224.83984375 173.8046875 224.83984375 85.0478515625 167.454101562 c 0,102,103
 80.94140625 164.91796875 80.94140625 164.91796875 79 163.2890625 c 0,104,105
 69.513671875 155.329101562 69.513671875 155.329101562 61.7685546875 143.666992188 c 0,106,107
 50.5078125 126.421875 50.5078125 126.421875 47.9033203125 111.2109375 c 0,108,109
 47 105.938476562 47 105.938476562 47 104.4375 c 0,110,111
 47 94.9404296875 47 94.9404296875 52.158203125 90.5556640625 c 0,112,113
 59.9755859375 86.830078125 59.9755859375 86.830078125 72.984375 95.14453125 c 0,114,115
 170.663085938 157.203125 170.663085938 157.203125 229.643554688 206.693359375 c 2,116,-1
 244.259765625 218.958007812 l 1,117,-1
 249.719726562 223.540039062 l 1,118,119
 245.30078125 125.651367188 245.30078125 125.651367188 239.040039062 60.326171875 c 1,120,-1
 239.040039062 56.578125 l 2,121,122
 239.040039062 46.8125 239.040039062 46.8125 246.56640625 42.591796875 c 0,123,124
 254.41796875 37.482421875 254.41796875 37.482421875 269.317382812 49.984375 c 0,125,126
 278.72265625 57.8759765625 278.72265625 57.8759765625 287.130859375 72.5615234375 c 0,127,128
 295.181640625 86.6220703125 295.181640625 86.6220703125 296.494140625 102.337890625 c 0,129,130
 304.82421875 182.135742188 304.82421875 182.135742188 308.081054688 281.55078125 c 1,131,-1
 312.03125 285.706054688 l 1,132,-1
 321.1796875 295.329101562 l 1,133,134
 380.703125 364 380.703125 364 430.879882812 445.45703125 c 2,135,-1
 431.00390625 445.657226562 l 2,136,137
 474.200195312 514.30078125 474.200195312 514.30078125 496.690429688 571.306640625 c 1,138,-1
 496.836914062 571.6640625 l 1,139,140
 524 635.202148438 524 635.202148438 524 679.688476562 c 2,141,-1
 524 687.594726562 l 1,142,143
 520.076171875 790.250976562 520.076171875 790.250976562 435.7890625 761.185546875 c 0,144,145
 405.573242188 750.452148438 405.573242188 750.452148438 363.724609375 721.231445312 c 0,146,147
 339.0234375 702.473632812 339.0234375 702.473632812 331.959960938 696.547851562 c 2,148,-1
 318.387695312 685.159179688 l 1,149,-1
 313.166992188 680.778320312 l 1,150,-1
 313.166992188 685.778320312 l 1,151,-1
 313.166992188 700.778320312 l 2,152,50
 313.166992188 755.934570312 313.166992188 755.934570312 315.2578125 790.221679688 c 128,-1,51
EndSplineSet
EndChar

StartChar: percent
Encoding: 37 37 8
AltUni2: 00ff05.ffffffff.0 00fe6a.ffffffff.0 00066a.ffffffff.0 00ff05.ffffffff.0 00fe6a.ffffffff.0 00066a.ffffffff.0
Width: 691
GlyphClass: 1
Flags: HW
LayerCount: 2
Fore
SplineSet
539.634765625 509.953125 m 0,0,1
 526.346679688 466.455078125 526.346679688 466.455078125 500.219726562 437.895507812 c 0,2,3
 479.275390625 415.814453125 479.275390625 415.814453125 464.03515625 407.591796875 c 0,4,5
 456.465820312 403.508789062 456.465820312 403.508789062 445.979492188 402.651367188 c 1,6,7
 433.196289062 407.766601562 433.196289062 407.766601562 433.196289062 444.495117188 c 0,8,9
 433.196289062 471.752929688 433.196289062 471.752929688 448.778320312 513.081054688 c 0,10,11
 466.158203125 559.177734375 466.158203125 559.177734375 497.734375 597.971679688 c 1,12,13
 507.973632812 603.240234375 507.973632812 603.240234375 511.961914062 606.587890625 c 128,-1,14
 515.951171875 609.934570312 515.951171875 609.934570312 538.783203125 632.798828125 c 1,15,-1
 539.868164062 629.130859375 l 1,16,-1
 542.856445312 618.706054688 l 2,17,18
 549 600.272460938 549 600.272460938 549 571.514648438 c 0,19,20
 549 541.958984375 549 541.958984375 539.634765625 509.953125 c 0,0,1
496.991210938 653.119140625 m 1,21,-1
 495.006835938 649.907226562 l 1,22,23
 480.828125 641.462890625 480.828125 641.462890625 475.760742188 637.2109375 c 0,24,25
 471.418945312 633.567382812 471.418945312 633.567382812 465.270507812 624.93359375 c 0,26,27
 423.575195312 569.646484375 423.575195312 569.646484375 398.604492188 504.439453125 c 128,-1,28
 373.633789062 439.232421875 373.633789062 439.232421875 373.633789062 393.515625 c 2,29,-1
 373.633789062 390.515625 l 2,30,31
 373.633789062 328.543945312 373.633789062 328.543945312 408.124023438 322.940429688 c 0,32,33
 437.375976562 319.001953125 437.375976562 319.001953125 479.41015625 354.272460938 c 0,34,35
 492.306640625 365.094726562 492.306640625 365.094726562 509.321289062 382.295898438 c 0,36,37
 569.424804688 442.291992188 569.424804688 442.291992188 596.365234375 531.287109375 c 0,38,39
 613 584.38671875 613 584.38671875 613 631.368164062 c 0,40,41
 613 701.326171875 613 701.326171875 579.1484375 713.776367188 c 0,42,43
 560.598632812 721.3984375 560.598632812 721.3984375 533.837890625 698.943359375 c 0,44,45
 517.09765625 684.896484375 517.09765625 684.896484375 502.061523438 661.32421875 c 2,46,-1
 496.991210938 653.119140625 l 1,21,-1
220.6171875 727.120117188 m 0,47,48
 220.6171875 653.8203125 220.6171875 653.8203125 171.307617188 602.840820312 c 0,49,50
 160.677734375 592.024414062 160.677734375 592.024414062 151.359375 584.206054688 c 0,51,52
 138.534179688 573.444335938 138.534179688 573.444335938 134.080078125 570.889648438 c 0,53,54
 121.45703125 565.556640625 121.45703125 565.556640625 116.7265625 566.154296875 c 0,55,56
 103 565.18359375 103 565.18359375 103 590.427734375 c 2,57,-1
 103 593.427734375 l 2,58,59
 103 623.616210938 103 623.616210938 119.524414062 669.524414062 c 0,60,61
 134.52734375 713.083984375 134.52734375 713.083984375 159.323242188 748.75 c 1,62,63
 160.334960938 757.62890625 160.334960938 757.62890625 162.231445312 761.331054688 c 128,-1,64
 164.127929688 765.034179688 164.127929688 765.034179688 167.423828125 767.799804688 c 0,65,66
 171.661132812 771.35546875 171.661132812 771.35546875 173.616210938 764.90234375 c 1,67,68
 179.977539062 769.018554688 179.977539062 769.018554688 183.65234375 772.102539062 c 128,-1,69
 187.325195312 775.184570312 187.325195312 775.184570312 210.3984375 798.290039062 c 1,70,71
 218.514648438 761.069335938 218.514648438 761.069335938 219.56640625 748.700195312 c 128,-1,72
 220.6171875 736.331054688 220.6171875 736.331054688 220.6171875 727.120117188 c 0,47,48
249.122070312 872.393554688 m 2,73,74
 230.094726562 886.072265625 230.094726562 886.072265625 204.185546875 864.33203125 c 0,75,76
 189.694335938 852.172851562 189.694335938 852.172851562 173.69140625 824.994140625 c 2,77,-1
 168.232421875 815.723632812 l 1,78,-1
 167.969726562 815.627929688 l 1,79,80
 153.116210938 808.479492188 153.116210938 808.479492188 148.314453125 804.450195312 c 0,81,82
 144.483398438 801.236328125 144.483398438 801.236328125 135.311523438 788.10546875 c 0,83,84
 92.6376953125 729.991210938 92.6376953125 729.991210938 65.3740234375 659.432617188 c 0,85,86
 39 588.43359375 39 588.43359375 39 538.724609375 c 2,87,-1
 39 535.724609375 l 2,88,89
 39 481.09765625 39 481.09765625 75.1572265625 481.940429688 c 0,90,91
 105.825195312 481.797851562 105.825195312 481.797851562 151 519.704101562 c 0,92,93
 233.661132812 589.064453125 233.661132812 589.064453125 265.181640625 685.462890625 c 0,94,95
 281.208007812 736.978515625 281.208007812 736.978515625 281.208007812 778.9609375 c 0,96,97
 281.208007812 854.841796875 281.208007812 854.841796875 249.275390625 872.296875 c 1,98,-1
 249.122070312 872.393554688 l 2,73,74
319.329101562 624.118164062 m 0,99,100
 159.548828125 266.639648438 159.548828125 266.639648438 107.76171875 61.8955078125 c 0,101,102
 106 56.095703125 106 56.095703125 106 50.021484375 c 0,103,104
 106 44.6328125 106 44.6328125 110.693359375 36.609375 c 0,105,106
 116.899414062 24.970703125 116.899414062 24.970703125 129.758789062 29.5810546875 c 0,107,108
 138.053710938 34.8984375 138.053710938 34.8984375 141.731445312 37.955078125 c 128,-1,109
 145.408203125 41.01171875 145.408203125 41.01171875 153.004882812 52.3994140625 c 0,110,111
 163.59765625 70.15625 163.59765625 70.15625 167.314453125 91.3779296875 c 2,112,-1
 167.4375 91.953125 l 1,113,114
 214.909179688 283.526367188 214.909179688 283.526367188 366.323242188 624.216796875 c 0,115,116
 509.42578125 946.797851562 509.42578125 946.797851562 647.692382812 1184.2265625 c 1,117,-1
 648.768554688 1185.85644531 l 1,118,119
 660 1200.89648438 660 1200.89648438 660 1209.80566406 c 0,120,121
 660 1225.33789062 660 1225.33789062 651.791015625 1231.21972656 c 2,122,-1
 651.572265625 1231.41113281 l 2,123,124
 642.981445312 1240.52539062 642.981445312 1240.52539062 628 1227.95410156 c 0,125,126
 617.340820312 1219.01074219 617.340820312 1219.01074219 608.842773438 1201.68164062 c 2,127,-1
 608.32421875 1200.7109375 l 1,128,129
 468.911132812 961.133789062 468.911132812 961.133789062 319.329101562 624.118164062 c 0,99,100
EndSplineSet
EndChar

StartChar: ampersand
Encoding: 38 38 9
AltUni2: 00ff06.ffffffff.0 00fe60.ffffffff.0 00ff06.ffffffff.0 00fe60.ffffffff.0
Width: 650
GlyphClass: 1
Flags: HW
LayerCount: 2
Fore
SplineSet
151 583.704101562 m 128,-1,1
 151 543.262695312 151 543.262695312 161.87890625 503.930664062 c 128,-1,2
 172.731445312 464.692382812 172.731445312 464.692382812 180.866210938 456.266601562 c 128,-1,3
 189 447.840820312 189 447.840820312 189 439.58984375 c 2,4,-1
 189 438.272460938 l 1,5,-1
 158.229492188 358.091796875 l 1,6,7
 69 157.306640625 69 157.306640625 69 75.8974609375 c 0,8,9
 69 47.0087890625 69 47.0087890625 71.9638671875 43.1435546875 c 128,-1,10
 74.9287109375 39.279296875 74.9287109375 39.279296875 96.7265625 43.3544921875 c 0,11,12
 148.884765625 52.087890625 148.884765625 52.087890625 222.610351562 113.952148438 c 0,13,14
 241.5546875 129.84765625 241.5546875 129.84765625 261.931640625 149.254882812 c 0,15,16
 361.987304688 244.547851562 361.987304688 244.547851562 434.854492188 364.771484375 c 1,17,-1
 435.047851562 365.083007812 l 1,18,-1
 465.047851562 412.255859375 l 1,19,-1
 468 416.8984375 l 1,20,-1
 470.952148438 417.2109375 l 1,21,-1
 500.952148438 420.383789062 l 1,22,-1
 501.53515625 420.372070312 l 1,23,24
 530.069335938 415.78125 530.069335938 415.78125 558 439.217773438 c 2,25,-1
 583 460.1953125 l 1,26,-1
 583 520.204101562 l 1,27,28
 577.813476562 520.84375 577.813476562 520.84375 569.5 513.8671875 c 0,29,30
 555.876953125 502.435546875 555.876953125 502.435546875 540.4609375 505.965820312 c 1,31,-1
 524.58203125 507.528320312 l 1,32,-1
 521.186523438 507.862304688 l 1,33,-1
 524.114257812 513.9296875 l 1,34,-1
 551.307617188 570.28515625 l 1,35,-1
 505.965820312 578.452148438 l 1,36,-1
 494.53515625 557.428710938 l 1,37,-1
 494.1640625 556.748046875 l 1,38,39
 469.486328125 519.9453125 469.486328125 519.9453125 464.5 515.76171875 c 0,40,41
 462.196289062 513.828125 462.196289062 513.828125 458.064453125 513.338867188 c 0,42,43
 445.337890625 511.830078125 445.337890625 511.830078125 387.95703125 514.28515625 c 128,-1,44
 330.577148438 516.740234375 330.577148438 516.740234375 307.46484375 520.458984375 c 2,45,-1
 284.544921875 523.1484375 l 1,46,-1
 281.8046875 523.470703125 l 1,47,-1
 283.584960938 528.303710938 l 1,48,-1
 299.584960938 571.729492188 l 1,49,-1
 299.7890625 572.284179688 l 1,50,51
 381.7734375 746.056640625 381.7734375 746.056640625 426.38671875 869.248046875 c 128,-1,52
 471 992.439453125 471 992.439453125 471 1036.33886719 c 128,-1,53
 471 1080.23925781 471 1080.23925781 464.032226562 1091.57910156 c 128,-1,54
 457.065429688 1102.91894531 457.065429688 1102.91894531 435.930664062 1095.98632812 c 128,-1,55
 414.795898438 1089.0546875 414.795898438 1089.0546875 400.727539062 1077.25 c 128,-1,56
 386.659179688 1065.4453125 386.659179688 1065.4453125 357.290039062 1032.96972656 c 1,57,-1
 356.7734375 1032.42773438 l 1,58,59
 313.279296875 989.166015625 313.279296875 989.166015625 257.688476562 890.865234375 c 128,-1,60
 202.09765625 792.563476562 202.09765625 792.563476562 172.504882812 708.578125 c 0,61,62
 158.771484375 667.61328125 158.771484375 667.61328125 154.892578125 645.936523438 c 128,-1,0
 151 624.1796875 151 624.1796875 151 583.704101562 c 128,-1,1
389.5 994.829101562 m 0,63,64
 401.6484375 1005.0234375 401.6484375 1005.0234375 401.6484375 988.430664062 c 0,65,66
 401.6484375 980.794921875 401.6484375 980.794921875 398.86328125 966.522460938 c 0,67,68
 382.663085938 885.088867188 382.663085938 885.088867188 308.125 708.72265625 c 0,69,70
 262.107421875 603.0859375 262.107421875 603.0859375 261.655273438 602.145507812 c 0,71,72
 246.171875 572.5625 246.171875 572.5625 240.770507812 568.030273438 c 128,-1,73
 235.369140625 563.498046875 235.369140625 563.498046875 231.634765625 566.68359375 c 128,-1,74
 227.901367188 569.869140625 227.901367188 569.869140625 223.223632812 578.80859375 c 1,75,76
 214.865234375 603.327148438 214.865234375 603.327148438 214.865234375 632.005859375 c 0,77,78
 214.865234375 681.138671875 214.865234375 681.138671875 239.19140625 742.7421875 c 0,79,80
 277.306640625 839.267578125 277.306640625 839.267578125 338.330078125 929.120117188 c 1,81,-1
 338.450195312 929.293945312 l 2,82,83
 376.625976562 984.026367188 376.625976562 984.026367188 389.5 994.829101562 c 0,63,64
410.2890625 419.905273438 m 1,84,85
 414.8828125 422.411132812 414.8828125 422.411132812 414.8828125 418.407226562 c 128,-1,86
 414.8828125 414.404296875 414.8828125 414.404296875 409.565429688 404.915039062 c 128,-1,87
 404.248046875 395.424804688 404.248046875 395.424804688 392.9453125 377.680664062 c 0,88,89
 366.5078125 336.177734375 366.5078125 336.177734375 331.782226562 291.71875 c 128,-1,90
 297.055664062 247.258789062 297.055664062 247.258789062 247.217773438 205.440429688 c 128,-1,91
 197.380859375 163.622070312 197.380859375 163.622070312 165.190429688 144.659179688 c 128,-1,92
 133 125.6953125 133 125.6953125 133 141.100585938 c 0,93,94
 133 153.7265625 133 153.7265625 156.336914062 222.51953125 c 128,-1,95
 179.673828125 291.3125 179.673828125 291.3125 209.948242188 355.103515625 c 1,96,-1
 243.122070312 432.700195312 l 1,97,-1
 351.3515625 421.529296875 l 1,98,-1
 410.2890625 419.905273438 l 1,84,85
EndSplineSet
EndChar

StartChar: quotesingle
Encoding: 39 39 10
AltUni2: 00ff07.ffffffff.0 002032.ffffffff.0 002019.ffffffff.0 000374.ffffffff.0 0002c8.ffffffff.0 0002bc.ffffffff.0 0002b9.ffffffff.0 00ff07.ffffffff.0 002032.ffffffff.0 002019.ffffffff.0 000374.ffffffff.0 0002c8.ffffffff.0 0002bc.ffffffff.0 0002b9.ffffffff.0
Width: 166
GlyphClass: 1
Flags: HW
LayerCount: 2
Fore
SplineSet
100 862.91015625 m 128,-1,1
 85.0693359375 850.381835938 85.0693359375 850.381835938 75.03515625 831.926757812 c 128,-1,2
 65 813.471679688 65 813.471679688 65 798.541015625 c 0,3,4
 65 751.197265625 65 751.197265625 65.8623046875 719.265625 c 1,5,-1
 67 720.219726562 l 1,6,-1
 67 715.219726562 l 1,7,-1
 67 687.219726562 l 1,8,-1
 68.9990234375 577.989257812 l 2,9,10
 68.9990234375 562.903320312 68.9990234375 562.903320312 78.61328125 560.918945312 c 128,-1,11
 88.134765625 558.954101562 88.134765625 558.954101562 103 571.427734375 c 128,-1,12
 117.865234375 583.900390625 117.865234375 583.900390625 127.38671875 601.844726562 c 128,-1,13
 137 619.961914062 137 619.961914062 137 634.95703125 c 2,14,-1
 137 746.782226562 l 1,15,16
 135 774.34765625 135 774.34765625 135 857.278320312 c 0,17,18
 135 872.208984375 135 872.208984375 124.96484375 873.823242188 c 128,-1,0
 114.930664062 875.4375 114.930664062 875.4375 100 862.91015625 c 128,-1,1
EndSplineSet
EndChar

StartChar: parenleft
Encoding: 40 40 11
AltUni2: 00ff08.ffffffff.0 00fe59.ffffffff.0 00fe35.ffffffff.0 00208d.ffffffff.0 00207d.ffffffff.0 00ff08.ffffffff.0 00fe59.ffffffff.0 00fe35.ffffffff.0 00208d.ffffffff.0 00207d.ffffffff.0
Width: 360
GlyphClass: 1
Flags: HW
LayerCount: 2
Fore
SplineSet
335 1006.09863281 m 128,-1,1
 335 1013.0703125 335 1013.0703125 332.40234375 1016.95214844 c 0,2,3
 326.245117188 1025.85839844 326.245117188 1025.85839844 312.205078125 1020.296875 c 0,4,5
 301.150390625 1013.58886719 301.150390625 1013.58886719 295.5 1008.90039062 c 128,-1,6
 289.849609375 1004.21191406 289.849609375 1004.21191406 283.627929688 997.254882812 c 0,7,8
 199.618164062 892.4375 199.618164062 892.4375 147.529296875 737.672851562 c 0,9,10
 106.845703125 616.213867188 106.845703125 616.213867188 87.94921875 468.0859375 c 0,11,12
 75 366.573242188 75 366.573242188 75 273.932617188 c 0,13,14
 75 138.682617188 75 138.682617188 96.783203125 85.671875 c 0,15,16
 135.35546875 -17.4609375 135.35546875 -17.4609375 249.034179688 -9.0625 c 0,17,18
 259.109375 -8.5810546875 259.109375 -8.5810546875 271 1.396484375 c 0,19,20
 289.1328125 16.611328125 289.1328125 16.611328125 301.12890625 41.83984375 c 0,21,22
 309 58.0654296875 309 58.0654296875 309 69.2822265625 c 0,23,24
 309 87.8115234375 309 87.8115234375 293.966796875 86.693359375 c 0,25,26
 199.651367188 80.5712890625 199.651367188 80.5712890625 167.198242188 164.8984375 c 0,27,28
 156.135742188 191.172851562 156.135742188 191.172851562 150.00390625 296.651367188 c 0,29,30
 149 313.92578125 149 313.92578125 149 333.025390625 c 0,31,32
 149 420.369140625 149 420.369140625 161.045898438 518.814453125 c 0,33,34
 178.154296875 654.943359375 178.154296875 654.943359375 216.741210938 768.556640625 c 128,-1,35
 255.328125 882.169921875 255.328125 882.169921875 310.161132812 949.90625 c 0,36,37
 325.227539062 968.752929688 325.227539062 968.752929688 331.416992188 988.091796875 c 0,38,0
 335 999.161132812 335 999.161132812 335 1006.09863281 c 128,-1,1
EndSplineSet
Substitution2: "'rtla' Right to Left Alternates lookup 0 subtable" parenright
EndChar

StartChar: parenright
Encoding: 41 41 12
AltUni2: 00ff09.ffffffff.0 00fe5a.ffffffff.0 00fe36.ffffffff.0 00208e.ffffffff.0 00207e.ffffffff.0 00ff09.ffffffff.0 00fe5a.ffffffff.0 00fe36.ffffffff.0 00208e.ffffffff.0 00207e.ffffffff.0
Width: 323
GlyphClass: 1
Flags: HW
LayerCount: 2
Fore
SplineSet
43 -193.918945312 m 0,0,1
 43 -205.5390625 43 -205.5390625 52.001953125 -209.369140625 c 0,2,3
 62.4990234375 -214.556640625 62.4990234375 -214.556640625 82 -198.193359375 c 0,4,5
 92.9091796875 -189.040039062 92.9091796875 -189.040039062 102.958007812 -172.640625 c 0,6,7
 226.102539062 25.2783203125 226.102539062 25.2783203125 275.09375 315.798828125 c 0,8,9
 297 446.69921875 297 446.69921875 297 560.212890625 c 0,10,11
 297 626.713867188 297 626.713867188 288.096679688 663.7578125 c 0,12,13
 270.227539062 736.125 270.227539062 736.125 228.50390625 786.548828125 c 0,14,15
 192.697265625 826.126953125 192.697265625 826.126953125 136.868164062 861.03125 c 0,16,17
 125.36328125 868.192382812 125.36328125 868.192382812 106 851.944335938 c 0,18,19
 95.4931640625 843.127929688 95.4931640625 843.127929688 85.75 828.775390625 c 0,20,21
 69 803.221679688 69 803.221679688 69 782.897460938 c 0,22,23
 69 772.473632812 69 772.473632812 75.0986328125 768.877929688 c 0,24,25
 133.341796875 731.389648438 133.341796875 731.389648438 162.490234375 696.545898438 c 0,26,27
 200.775390625 651.09375 200.775390625 651.09375 215.903320312 588.1484375 c 0,28,29
 224 556.481445312 224 556.481445312 224 499.958007812 c 0,30,31
 224 385.455078125 224 385.455078125 202.900390625 269.254882812 c 0,32,33
 160.540039062 12.8828125 160.540039062 12.8828125 58.02734375 -151.288085938 c 0,34,35
 43 -175.388671875 43 -175.388671875 43 -193.918945312 c 0,0,1
EndSplineSet
Substitution2: "'rtla' Right to Left Alternates lookup 0 subtable" parenleft
EndChar

StartChar: asterisk
Encoding: 42 42 13
AltUni2: 00ff0a.ffffffff.0 00fe61.ffffffff.0 002731.ffffffff.0 002217.ffffffff.0 00ff0a.ffffffff.0 00fe61.ffffffff.0 002731.ffffffff.0 002217.ffffffff.0
Width: 503
GlyphClass: 1
Flags: HW
LayerCount: 2
Fore
SplineSet
376.231445312 662.170898438 m 0,0,1
 385.181640625 665.205078125 385.181640625 665.205078125 392.18359375 671.081054688 c 128,-1,2
 399.185546875 676.95703125 399.185546875 676.95703125 405.43359375 683.953125 c 0,3,4
 419.385742188 700.970703125 419.385742188 700.970703125 426.544921875 722.189453125 c 0,5,6
 431 733.948242188 431 733.948242188 431 740.396484375 c 0,7,8
 431 763.561523438 431 763.561523438 409.768554688 756.361328125 c 0,9,10
 384.095703125 748.169921875 384.095703125 748.169921875 341.599609375 751.971679688 c 2,11,-1
 320.647460938 753.346679688 l 1,12,-1
 309.9375 754.049804688 l 1,13,14
 353.348632812 787.482421875 353.348632812 787.482421875 353.348632812 787.482421875 c 0,15,16
 399.354492188 823.01953125 399.354492188 823.01953125 424.301757812 830.471679688 c 0,17,18
 435.854492188 836.229492188 435.854492188 836.229492188 441.249023438 840.633789062 c 128,-1,19
 446.643554688 845.037109375 446.643554688 845.037109375 452.375976562 851.818359375 c 0,20,21
 466.375976562 868.377929688 466.375976562 868.377929688 473.544921875 889.626953125 c 0,22,23
 478 901.385742188 478 901.385742188 478 907.833984375 c 0,24,25
 478 930.999023438 478 930.999023438 456.768554688 923.799804688 c 0,26,27
 422.543945312 911.705078125 422.543945312 911.705078125 370.33984375 874.795898438 c 2,28,-1
 350.252929688 860.953125 l 1,29,-1
 340.793945312 854.434570312 l 1,30,31
 364.319335938 899.083984375 364.319335938 899.083984375 382.283203125 934.116210938 c 128,-1,32
 400.196289062 969.05078125 400.196289062 969.05078125 404.375976562 976.756835938 c 0,33,34
 413 993.534179688 413 993.534179688 413 1006.54785156 c 0,35,36
 413 1024.19433594 413 1024.19433594 400.829101562 1024.46875 c 0,37,38
 388.228515625 1023.76171875 388.228515625 1023.76171875 373.263671875 1011.20507812 c 128,-1,39
 358.298828125 998.6484375 358.298828125 998.6484375 347.797851562 977.5859375 c 0,40,41
 341 964.541992188 341 964.541992188 328.922851562 940.60546875 c 128,-1,42
 316.845703125 916.668945312 316.845703125 916.668945312 311.685546875 907.150390625 c 0,43,44
 274.182617188 831.362304688 274.182617188 831.362304688 270.926757812 825.283203125 c 128,-1,45
 267.671875 819.205078125 267.671875 819.205078125 261.671875 807.170898438 c 128,-1,46
 255.671875 795.135742188 255.671875 795.135742188 242.712890625 771.303710938 c 1,47,48
 176.323242188 793.23828125 176.323242188 793.23828125 154.655273438 811.295898438 c 0,49,50
 145.241210938 819.872070312 145.241210938 819.872070312 124 802.048828125 c 0,51,52
 115.181640625 794.6484375 115.181640625 794.6484375 104.404296875 779.221679688 c 0,53,54
 87 755.044921875 87 755.044921875 87 734.001953125 c 0,55,56
 87 724.845703125 87 724.845703125 93.3125 719.828125 c 0,57,58
 103.170898438 711.341796875 103.170898438 711.341796875 162.541015625 681.999023438 c 1,59,60
 107.500976562 632.225585938 107.500976562 632.225585938 98.1474609375 624.35546875 c 0,61,62
 82.2041015625 610.051757812 82.2041015625 610.051757812 72.109375 591.048828125 c 128,-1,63
 62 572.016601562 62 572.016601562 62 559.024414062 c 2,64,-1
 62 556.024414062 l 2,65,66
 62 540.15625 62 540.15625 72.4580078125 538.909179688 c 128,-1,67
 83.0078125 537.651367188 83.0078125 537.651367188 97 549.392578125 c 2,68,-1
 100 551.91015625 l 2,69,70
 109.797851562 560.130859375 109.797851562 560.130859375 170.721679688 616.126953125 c 1,71,72
 125.676757812 518.870117188 125.676757812 518.870117188 118.338867188 503.61328125 c 128,-1,73
 111 488.356445312 111 488.356445312 111 476.139648438 c 0,74,75
 111 457.610351562 111 457.610351562 126.033203125 458.728515625 c 0,76,77
 135.622070312 459.80078125 135.622070312 459.80078125 147 469.34765625 c 0,78,79
 166.515625 485.723632812 166.515625 485.723632812 178.272460938 511.107421875 c 128,-1,80
 190.029296875 536.4921875 190.029296875 536.4921875 210.03515625 579.284179688 c 128,-1,81
 229.965820312 621.918945312 229.965820312 621.918945312 247.532226562 661.754882812 c 1,82,-1
 251.73828125 660.552734375 l 1,83,-1
 259.651367188 658.290039062 l 1,84,85
 329.005859375 646.15625 329.005859375 646.15625 376.231445312 662.170898438 c 0,0,1
EndSplineSet
EndChar

StartChar: plus
Encoding: 43 43 14
AltUni2: 00ff0b.ffffffff.0 00fe62.ffffffff.0 00fb29.ffffffff.0 00208a.ffffffff.0 00207a.ffffffff.0 00ff0b.ffffffff.0 00fe62.ffffffff.0 00fb29.ffffffff.0 00208a.ffffffff.0 00207a.ffffffff.0
Width: 638
GlyphClass: 1
Flags: HW
LayerCount: 2
Fore
SplineSet
56 319.989257812 m 0,0,1
 56 308.711914062 56 308.711914062 63.7802734375 305.299804688 c 128,-1,2
 71.5595703125 301.88671875 71.5595703125 301.88671875 84.3369140625 311.755859375 c 0,3,4
 108.202148438 329.79296875 108.202148438 329.79296875 133 350.600585938 c 128,-1,5
 157.856445312 371.458007812 157.856445312 371.458007812 181.709960938 392.46484375 c 0,6,7
 222.600585938 429.771484375 222.600585938 429.771484375 299 502.486328125 c 1,8,-1
 299 496.890625 l 1,9,-1
 299 479.890625 l 2,10,11
 299 455.181640625 299 455.181640625 301.966796875 431.958984375 c 0,12,13
 310.90234375 353.077148438 310.90234375 353.077148438 336.654296875 309.31640625 c 0,14,15
 341.874023438 300.646484375 341.874023438 300.646484375 353.965820312 305.610351562 c 0,16,17
 360.028320312 308.099609375 360.028320312 308.099609375 366 313.110351562 c 128,-1,18
 371.971679688 318.12109375 371.971679688 318.12109375 378.034179688 325.806640625 c 0,19,20
 390.142578125 341.155273438 390.142578125 341.155273438 395.357421875 357.60546875 c 0,21,22
 397.8828125 369.256835938 397.8828125 369.256835938 397.94140625 374.184570312 c 128,-1,23
 398 379.112304688 398 379.112304688 396.274414062 383.845703125 c 0,24,25
 372.07421875 420.168945312 372.07421875 420.168945312 366.020507812 491.6640625 c 0,26,27
 364.010742188 509.104492188 364.010742188 509.104492188 360.709960938 560.249023438 c 1,28,29
 401.79296875 598.14453125 401.79296875 598.14453125 439 629.364257812 c 2,30,-1
 440 630.204101562 l 2,31,32
 440.154296875 630.333007812 440.154296875 630.333007812 440.206054688 630.372070312 c 0,33,34
 515.58984375 690.5703125 515.58984375 690.5703125 557.745117188 698.182617188 c 0,35,36
 566.84375 699.638671875 566.84375 699.638671875 575 706.482421875 c 0,37,38
 592.327148438 721.021484375 592.327148438 721.021484375 602.8046875 744.540039062 c 0,39,40
 608 757.633789062 608 757.633789062 608 766.172851562 c 0,41,42
 608 783.53125 608 783.53125 593.215820312 781.612304688 c 0,43,44
 536.379882812 770.130859375 536.379882812 770.130859375 442.866210938 696.608398438 c 0,45,46
 404.13671875 664.111328125 404.13671875 664.111328125 361.888671875 626.376953125 c 1,47,48
 363 680.646484375 363 680.646484375 363 705.592773438 c 128,-1,49
 363 730.459960938 363 730.459960938 362.006835938 748.493164062 c 2,50,-1
 362.000976562 748.6640625 l 2,51,52
 361.0078125 803.44140625 361.0078125 803.44140625 353.07421875 842.403320312 c 0,53,54
 350.435546875 854.259765625 350.435546875 854.259765625 340.946289062 853.629882812 c 128,-1,55
 331.293945312 852.989257812 331.293945312 852.989257812 321 844.350585938 c 0,56,57
 305.629882812 831.454101562 305.629882812 831.454101562 296.123046875 809.649414062 c 0,58,59
 289 794.075195312 289 794.075195312 289 784.5 c 0,60,61
 289 782.314453125 289 782.314453125 289.883789062 780.404296875 c 0,62,63
 299 725.54296875 299 725.54296875 299 650.890625 c 0,64,65
 299 625.842773438 299 625.842773438 298 592.97265625 c 1,66,-1
 298 584.051757812 l 1,67,-1
 298 569.051757812 l 1,68,-1
 298 564.051757812 l 1,69,-1
 293 559.856445312 l 1,70,-1
 283.069335938 551.5234375 l 1,71,-1
 282.069335938 549.684570312 l 1,72,-1
 280 547.948242188 l 1,73,-1
 274 542.913085938 l 1,74,-1
 273.28515625 542.313476562 l 1,75,76
 220.352539062 491.91015625 220.352539062 491.91015625 178.360351562 453.674804688 c 2,77,-1
 178.23046875 453.55859375 l 2,78,79
 156.11328125 433.994140625 156.11328125 433.994140625 133.5 415.01953125 c 128,-1,80
 110.770507812 395.947265625 110.770507812 395.947265625 100.315429688 388.125 c 128,-1,81
 89.8603515625 380.302734375 89.8603515625 380.302734375 88.0791015625 378.901367188 c 0,82,83
 77.083984375 369.680664062 77.083984375 369.680664062 66.5419921875 352.604492188 c 128,-1,84
 56 335.528320312 56 335.528320312 56 319.989257812 c 0,0,1
EndSplineSet
EndChar

StartChar: comma
Encoding: 44 44 15
AltUni2: 00ff0c.ffffffff.0 00fe50.ffffffff.0 00fe11.ffffffff.0 00fe10.ffffffff.0 003001.ffffffff.0 00066c.ffffffff.0 00ff0c.ffffffff.0 00fe50.ffffffff.0 00fe11.ffffffff.0 00fe10.ffffffff.0 003001.ffffffff.0 00066c.ffffffff.0
Width: 230
GlyphClass: 1
Flags: HW
LayerCount: 2
Fore
SplineSet
81.53515625 -31.119140625 m 0,0,1
 71 -50.4931640625 71 -50.4931640625 71 -65.482421875 c 128,-1,2
 71 -80.470703125 71 -80.470703125 81.6748046875 -83.0771484375 c 128,-1,3
 92.1875 -85.6455078125 92.1875 -85.6455078125 107.059570312 -73.1669921875 c 128,-1,4
 121.930664062 -60.6884765625 121.930664062 -60.6884765625 133.46484375 -39.474609375 c 0,5,6
 163.211914062 15.2333984375 163.211914062 15.2333984375 180.998046875 53.87109375 c 0,7,8
 205 106.654296875 205 106.654296875 205 144.015625 c 0,9,10
 205 169.797851562 205 169.797851562 190.432617188 185.73828125 c 128,-1,11
 175.865234375 201.678710938 175.865234375 201.678710938 141.322265625 210.197265625 c 0,12,13
 129.821289062 212.932617188 129.821289062 212.932617188 114.881835938 200.397460938 c 0,14,15
 100.303710938 188.165039062 100.303710938 188.165039062 88.6513671875 168.23828125 c 128,-1,16
 77 148.3125 77 148.3125 77 132.89453125 c 128,-1,17
 77 117.477539062 77 117.477539062 85.775390625 114.252929688 c 0,18,19
 116.174804688 106.314453125 116.174804688 106.314453125 123.586914062 97.708984375 c 128,-1,20
 131 89.103515625 131 89.103515625 131 79.7958984375 c 128,-1,21
 131 70.48828125 131 70.48828125 120.243164062 44.2509765625 c 1,22,-1
 119.887695312 43.455078125 l 1,23,24
 102.721679688 7.845703125 102.721679688 7.845703125 81.53515625 -31.119140625 c 0,0,1
EndSplineSet
EndChar

StartChar: hyphen
Encoding: 45 45 16
AltUni2: 00ff0d.ffffffff.0 00fe63.ffffffff.0 00fe32.ffffffff.0 002500.ffffffff.0 002212.ffffffff.0 00207b.ffffffff.0 002015.ffffffff.0 002014.ffffffff.0 002013.ffffffff.0 002012.ffffffff.0 002011.ffffffff.0 002010.ffffffff.0 00ff0d.ffffffff.0 00fe63.ffffffff.0 00fe32.ffffffff.0 002500.ffffffff.0 002212.ffffffff.0 00207b.ffffffff.0 002015.ffffffff.0 002014.ffffffff.0 002013.ffffffff.0 002012.ffffffff.0 002011.ffffffff.0 002010.ffffffff.0
Width: 382
GlyphClass: 1
Flags: HW
LayerCount: 2
Fore
SplineSet
143.360351562 448.28125 m 2,0,1
 157.180664062 458.890625 157.180664062 458.890625 196.674804688 492.030273438 c 128,-1,2
 236.168945312 525.168945312 236.168945312 525.168945312 251.336914062 536.885742188 c 2,3,-1
 251.528320312 537.030273438 l 2,4,5
 289.768554688 565.091796875 289.768554688 565.091796875 308.168945312 575.450195312 c 0,6,7
 325.536132812 586.44921875 325.536132812 586.44921875 334.549804688 574.294921875 c 0,8,9
 341.400390625 565.05859375 341.400390625 565.05859375 341.400390625 547.088867188 c 0,10,11
 341.400390625 542.638671875 341.400390625 542.638671875 340.979492188 537.658203125 c 2,12,-1
 340.967773438 537.520507812 l 1,13,14
 337.731445312 512.149414062 337.731445312 512.149414062 326.35546875 490.240234375 c 128,-1,15
 314.98046875 468.330078125 314.98046875 468.330078125 302.640625 457.9765625 c 0,16,17
 298.780273438 454.737304688 298.780273438 454.737304688 282.5390625 444.608398438 c 128,-1,18
 266.296875 434.479492188 266.296875 434.479492188 247.733398438 419.879882812 c 2,19,-1
 247.612304688 419.786132812 l 2,20,21
 234.805664062 410.025390625 234.805664062 410.025390625 195.323242188 376.895507812 c 128,-1,22
 155.841796875 343.766601562 155.841796875 343.766601562 139.68359375 331.21875 c 2,23,-1
 139.568359375 331.129882812 l 2,24,25
 102.213867188 302.98828125 102.213867188 302.98828125 76.6259765625 288.48828125 c 0,26,27
 60.3798828125 279.498046875 60.3798828125 279.498046875 51.4287109375 292.126953125 c 0,28,29
 44.904296875 301.331054688 44.904296875 301.331054688 44.904296875 317.849609375 c 0,30,31
 44.904296875 347.465820312 44.904296875 347.465820312 61.3935546875 378.4765625 c 0,32,33
 71.9609375 398.352539062 71.9609375 398.352539062 84.330078125 408.73046875 c 0,34,35
 88.705078125 412.40234375 88.705078125 412.40234375 92.6416015625 414.458984375 c 0,36,37
 114.931640625 425.41015625 114.931640625 425.41015625 143.174804688 448.134765625 c 2,38,-1
 143.360351562 448.28125 l 2,0,1
EndSplineSet
EndChar

StartChar: period
Encoding: 46 46 17
AltUni2: 00ff0e.ffffffff.0 00fe52.ffffffff.0 002024.ffffffff.0 00ff0e.ffffffff.0 00fe52.ffffffff.0 002024.ffffffff.0
Width: 198
GlyphClass: 1
Flags: HW
LayerCount: 2
Fore
SplineSet
172 195.325195312 m 0,0,1
 172 201.04296875 172 201.04296875 169.61328125 209.86328125 c 128,-1,2
 167.227539062 218.684570312 167.227539062 218.684570312 160.525390625 226.46484375 c 0,3,4
 148.5078125 240.416015625 148.5078125 240.416015625 131.063476562 237.928710938 c 0,5,6
 121.375 236.845703125 121.375 236.845703125 105.747070312 223.732421875 c 128,-1,7
 90.1201171875 210.620117188 90.1201171875 210.620117188 77.6201171875 187.681640625 c 0,8,9
 69.009765625 170.936523438 69.009765625 170.936523438 66.931640625 155.3359375 c 0,10,11
 66.01171875 149.045898438 66.01171875 149.045898438 66 138.637695312 c 0,12,13
 67.0205078125 129.724609375 67.0205078125 129.724609375 72.826171875 108.444335938 c 0,14,15
 75.84375 101.883789062 75.84375 101.883789062 75.990234375 97.369140625 c 1,16,-1
 78.8515625 93.37890625 l 1,17,18
 84.1240234375 76.7119140625 84.1240234375 76.7119140625 105.21484375 89.13671875 c 0,19,20
 117.569335938 96.65234375 117.569335938 96.65234375 122 100.370117188 c 0,21,22
 134.724609375 111.046875 134.724609375 111.046875 144.80859375 125.009765625 c 1,23,24
 172 159.608398438 172 159.608398438 172 195.325195312 c 0,0,1
EndSplineSet
EndChar

StartChar: slash
Encoding: 47 47 18
AltUni2: 00ff0f.ffffffff.0 002215.ffffffff.0 00ff0f.ffffffff.0 002215.ffffffff.0
Width: 452
GlyphClass: 1
Flags: HW
LayerCount: 2
Fore
SplineSet
49 -55.8837890625 m 2,0,1
 49 -67.2275390625 49 -67.2275390625 56.005859375 -71.013671875 c 0,2,3
 64.49609375 -74.8818359375 64.49609375 -74.8818359375 80 -61.8720703125 c 0,4,5
 91.27734375 -52.4091796875 91.27734375 -52.4091796875 101.190429688 -36.33203125 c 128,-1,6
 111.104492188 -20.255859375 111.104492188 -20.255859375 112 -7.8330078125 c 2,7,-1
 112 -7.0205078125 l 2,8,9
 112 -6.6083984375 112 -6.6083984375 112.030273438 -6.4462890625 c 0,10,11
 134.099609375 213.70703125 134.099609375 213.70703125 213.826171875 489.700195312 c 128,-1,12
 293.498046875 765.501953125 293.498046875 765.501953125 415.772460938 1050.54589844 c 0,13,14
 420.640625 1066.91894531 420.640625 1066.91894531 421 1073.26074219 c 0,15,16
 421 1090.55761719 421 1090.55761719 407.299804688 1088.55371094 c 0,17,18
 398.543945312 1086.41796875 398.543945312 1086.41796875 389 1078.41015625 c 0,19,20
 371.629882812 1063.83398438 371.629882812 1063.83398438 362.123046875 1042.02929688 c 0,21,22
 235.479492188 745.299804688 235.479492188 745.299804688 153.716796875 460.819335938 c 128,-1,23
 71.9541015625 176.338867188 71.9541015625 176.338867188 49 -51.162109375 c 1,24,-1
 49 -55.8837890625 l 2,0,1
EndSplineSet
EndChar

StartChar: zero
Encoding: 48 48 19
AltUni2: 00ff10.ffffffff.0 002080.ffffffff.0 002070.ffffffff.0 00ff10.ffffffff.0 002080.ffffffff.0 002070.ffffffff.0
Width: 491
GlyphClass: 1
Flags: HW
LayerCount: 2
Fore
SplineSet
110.904296875 357.984375 m 0,0,1
 110.904296875 261.892578125 110.904296875 261.892578125 148.071289062 242.053710938 c 0,2,3
 183.853515625 225.822265625 183.853515625 225.822265625 261.177734375 290.705078125 c 0,4,5
 274.469726562 301.858398438 274.469726562 301.858398438 288.978515625 315.430664062 c 0,6,7
 349.766601562 371.939453125 349.766601562 371.939453125 383.264648438 493.815429688 c 0,8,9
 406.120117188 582.158203125 406.120117188 582.158203125 406.120117188 662.313476562 c 0,10,11
 406.120117188 700.5 406.120117188 700.5 401.0390625 736.88671875 c 0,12,13
 385.212890625 852.026367188 385.212890625 852.026367188 330.684570312 869.090820312 c 0,14,15
 298.48828125 877.373046875 298.48828125 877.373046875 257.170898438 842.704101562 c 0,16,17
 231.31640625 821.009765625 231.31640625 821.009765625 201.477539062 782.125 c 0,18,19
 195.665039062 774.073242188 195.665039062 774.073242188 189.739257812 768.404296875 c 1,20,21
 162.444335938 698.077148438 162.444335938 698.077148438 139.844726562 595.103515625 c 0,22,23
 111 458.504882812 111 458.504882812 111 368.139648438 c 0,24,25
 110.904296875 362.963867188 110.904296875 362.963867188 110.904296875 357.984375 c 0,0,1
480.741210938 728.263671875 m 0,26,27
 480.741210938 631.961914062 480.741210938 631.961914062 453.766601562 529.836914062 c 0,28,29
 433.43359375 449.8515625 433.43359375 449.8515625 398.73828125 383.64453125 c 0,30,31
 357.287109375 303.823242188 357.287109375 303.823242188 297.43359375 247.576171875 c 0,32,33
 278.1953125 229.548828125 278.1953125 229.548828125 260.268554688 214.505859375 c 0,34,35
 144.694335938 117.528320312 144.694335938 117.528320312 86.90625 146.98046875 c 0,36,37
 35.92578125 175.665039062 35.92578125 175.665039062 35.92578125 296.73828125 c 0,38,39
 35.92578125 301.404296875 35.92578125 301.404296875 36 306.208007812 c 0,40,41
 36 404.836914062 36 404.836914062 67.1630859375 553.625976562 c 0,42,43
 94.3291015625 678.177734375 94.3291015625 678.177734375 126.78125 761.170898438 c 1,44,45
 137.442382812 783.372070312 137.442382812 783.372070312 153.168945312 799.21875 c 1,46,47
 157.846679688 809.186523438 157.846679688 809.186523438 165.34765625 818.69140625 c 0,48,49
 215.266601562 884.069335938 215.266601562 884.069335938 259.782226562 921.422851562 c 0,50,51
 333.504882812 983.283203125 333.504882812 983.283203125 389.850585938 967.088867188 c 0,52,53
 458.799804688 942.946289062 458.799804688 942.946289062 475.970703125 808.932617188 c 0,54,55
 480.741210938 769.108398438 480.741210938 769.108398438 480.741210938 728.263671875 c 0,26,27
EndSplineSet
EndChar

StartChar: one
Encoding: 49 49 20
AltUni2: 00ff11.ffffffff.0 002081.ffffffff.0 0000b9.ffffffff.0 00ff11.ffffffff.0 002081.ffffffff.0 0000b9.ffffffff.0
Width: 317
GlyphClass: 1
Flags: HW
LayerCount: 2
Fore
SplineSet
124.599609375 687.9921875 m 0,0,1
 124.599609375 698.487304688 124.599609375 698.487304688 132.034179688 712.72265625 c 0,2,3
 155.100585938 763.080078125 155.100585938 763.080078125 185.157226562 824.274414062 c 1,4,5
 185.233398438 822.689453125 185.233398438 822.689453125 185.309570312 824.491210938 c 1,6,7
 217.004882812 885.264648438 217.004882812 885.264648438 221.711914062 892.8984375 c 0,8,9
 224.166992188 897.298828125 224.166992188 897.298828125 238.879882812 921.314453125 c 0,10,11
 241.580078125 925.399414062 241.580078125 925.399414062 250.358398438 936.59765625 c 128,-1,12
 259.137695312 947.642578125 259.137695312 947.642578125 268.040039062 955.112304688 c 0,13,14
 288.599609375 972.364257812 288.599609375 972.364257812 300.001953125 968.727539062 c 0,15,16
 307.23046875 966.560546875 307.23046875 966.560546875 307.23046875 957.22265625 c 0,17,18
 307.23046875 952.104492188 307.23046875 952.104492188 306 945.797851562 c 1,19,-1
 306 945.764648438 l 2,20,21
 306 942.383789062 306 942.383789062 305.057617188 938.671875 c 0,22,23
 304.116210938 936.943359375 304.116210938 936.943359375 304.0078125 935.83203125 c 0,24,25
 303.900390625 933.584960938 303.900390625 933.584960938 298.862304688 910.2578125 c 0,26,27
 286.072265625 836.920898438 286.072265625 836.920898438 283.739257812 830.171875 c 0,28,29
 270.815429688 765.188476562 270.815429688 765.188476562 263.825195312 734.0625 c 0,30,31
 208.680664062 486.9921875 208.680664062 486.9921875 208.0078125 217.078125 c 1,32,33
 209.044921875 218.240234375 209.044921875 218.240234375 212.297851562 221.86328125 c 0,34,35
 214.77734375 224.604492188 214.77734375 224.604492188 219.611328125 230.13671875 c 0,36,37
 224.4453125 235.931640625 224.4453125 235.931640625 231.635742188 241.96484375 c 128,-1,38
 238.827148438 247.999023438 238.827148438 247.999023438 246.807617188 249.96484375 c 0,39,40
 260.166015625 253.265625 260.166015625 253.265625 264.780273438 240.118164062 c 0,41,42
 266.599609375 235.0703125 266.599609375 235.0703125 266.599609375 226.991210938 c 0,43,44
 266.599609375 220.770507812 266.599609375 220.770507812 262.474609375 210.247070312 c 0,45,46
 255.556640625 192.501953125 255.556640625 192.501953125 240.63671875 175.961914062 c 0,47,48
 227.278320312 159.741210938 227.278320312 159.741210938 203.0234375 134.435546875 c 1,49,50
 202.51171875 138.927734375 202.51171875 138.927734375 202 133.471679688 c 1,51,52
 200.543945312 137.209960938 200.543945312 137.209960938 199.087890625 130.0546875 c 1,53,54
 163.8125 92.4697265625 163.8125 92.4697265625 127.513671875 41.0234375 c 0,55,56
 118.3515625 28.6416015625 118.3515625 28.6416015625 111.009765625 22.4814453125 c 0,57,58
 86.7431640625 2.119140625 86.7431640625 2.119140625 75.677734375 8.58984375 c 0,59,60
 70.3330078125 11.822265625 70.3330078125 11.822265625 70.3330078125 18.0068359375 c 0,61,62
 70.3330078125 45.541015625 70.3330078125 45.541015625 89.5107421875 74.3828125 c 1,63,64
 134.98046875 118.366210938 134.98046875 118.366210938 133.286132812 129.534179688 c 0,65,66
 133 131.72265625 133 131.72265625 133 135.600585938 c 0,67,68
 133 423.424804688 133 423.424804688 192.12890625 692.060546875 c 0,69,70
 193.315429688 699.013671875 193.315429688 699.013671875 195.600585938 710.571289062 c 0,71,72
 200.82421875 735.216796875 200.82421875 735.216796875 201.720703125 739.395507812 c 1,73,74
 197.294921875 729.849609375 197.294921875 729.849609375 192.045898438 718.268554688 c 0,75,76
 181.282226562 692.376953125 181.282226562 692.376953125 162.944335938 676.989257812 c 0,77,78
 150.712890625 666.725585938 150.712890625 666.725585938 140.188476562 666.2890625 c 0,79,80
 124.599609375 664.604492188 124.599609375 664.604492188 124.599609375 687.9921875 c 0,0,1
EndSplineSet
EndChar

StartChar: two
Encoding: 50 50 21
AltUni2: 00ff12.ffffffff.0 002082.ffffffff.0 0000b2.ffffffff.0 00ff12.ffffffff.0 002082.ffffffff.0 0000b2.ffffffff.0
Width: 500
GlyphClass: 1
Flags: HW
LayerCount: 2
Fore
SplineSet
90.7744140625 553.791992188 m 128,-1,1
 79.7685546875 535.76953125 79.7685546875 535.76953125 67.2060546875 525.228515625 c 0,2,3
 47.3388671875 508.557617188 47.3388671875 508.557617188 36.0205078125 513.711914062 c 0,4,5
 28.599609375 517.091796875 28.599609375 517.091796875 28.599609375 528.618164062 c 0,6,7
 28.599609375 531.419921875 28.599609375 531.419921875 29.0439453125 534.682617188 c 0,8,9
 38.291015625 621.208007812 38.291015625 621.208007812 101.71484375 728.912109375 c 0,10,11
 158.28515625 824.700195312 158.28515625 824.700195312 236.287109375 899.223632812 c 0,12,13
 255.416992188 917.951171875 255.416992188 917.951171875 273.360351562 933.0078125 c 0,14,15
 330.838867188 981.237304688 330.838867188 981.237304688 375.705078125 991.83203125 c 0,16,17
 439.903320312 1004.84667969 439.903320312 1004.84667969 442.997070312 922.016601562 c 1,18,19
 442.997070312 919.084960938 442.997070312 919.084960938 442.997070312 921.837890625 c 2,20,21
 442.997070312 884.766601562 442.997070312 884.766601562 434.8671875 845.819335938 c 0,22,23
 422.69140625 781.625976562 422.69140625 781.625976562 381.30078125 676.194335938 c 1,24,25
 350.272460938 601.604492188 350.272460938 601.604492188 299.87890625 494.05859375 c 1,26,27
 299.837890625 495.322265625 299.837890625 495.322265625 299.796875 493.88671875 c 2,28,29
 260.416015625 412.538085938 260.416015625 412.538085938 243.3046875 375.543945312 c 0,30,31
 214.75 315.08203125 214.75 315.08203125 198.227539062 274.201171875 c 0,32,33
 198.048828125 271.850585938 198.048828125 271.850585938 196.0703125 268.470703125 c 0,34,35
 194.405273438 263.938476562 194.405273438 263.938476562 192.310546875 259.220703125 c 128,-1,36
 190.215820312 254.50390625 190.215820312 254.50390625 186.666992188 244.840820312 c 128,-1,37
 183.116210938 235.17578125 183.116210938 235.17578125 170.888671875 203.78125 c 0,38,39
 170.608398438 201.969726562 170.608398438 201.969726562 168.344726562 196.583007812 c 1,40,41
 196.208007812 230.561523438 196.208007812 230.561523438 221.092773438 263.161132812 c 0,42,43
 223.245117188 265.48828125 223.245117188 265.48828125 226.4296875 269.659179688 c 128,-1,44
 229.61328125 273.829101562 229.61328125 273.829101562 234.849609375 280.196289062 c 128,-1,45
 240.0859375 286.5625 240.0859375 286.5625 241.986328125 289.052734375 c 0,46,47
 283.22265625 343.073242188 283.22265625 343.073242188 313.8515625 379.201171875 c 0,48,49
 360.673828125 433.522460938 360.673828125 433.522460938 394.845703125 463.205078125 c 1,50,-1
 395 463.334960938 l 2,51,52
 408.93359375 475.026367188 408.93359375 475.026367188 416.768554688 477.818359375 c 0,53,54
 419.508789062 478.31640625 419.508789062 478.31640625 427.508789062 481.083007812 c 0,55,56
 430.727539062 481.666992188 430.727539062 481.666992188 444.647460938 484.521484375 c 0,57,58
 448.194335938 488.147460938 448.194335938 488.147460938 451.665039062 491.059570312 c 0,59,60
 461.8515625 499.606445312 461.8515625 499.606445312 471.094726562 501.813476562 c 0,61,62
 484.666992188 505.052734375 484.666992188 505.052734375 487.903320312 492.944335938 c 0,63,64
 490 484.361328125 490 484.361328125 490 479.923828125 c 2,65,66
 489.98046875 483.31640625 489.98046875 483.31640625 489.9609375 479.2734375 c 1,67,68
 487.768554688 460.133789062 487.768554688 460.133789062 478.697265625 443.44140625 c 0,69,70
 467.212890625 420.361328125 467.212890625 420.361328125 448 404.240234375 c 1,71,72
 447.5078125 408.138671875 447.5078125 408.138671875 447.015625 403.509765625 c 1,73,74
 439.515625 402.939453125 439.515625 402.939453125 432.015625 393.881835938 c 1,75,76
 431.689453125 397.89453125 431.689453125 397.89453125 431.364257812 393.46484375 c 1,77,78
 420.463867188 389.694335938 420.463867188 389.694335938 399 386.168945312 c 1,79,80
 399 390.586914062 399 390.586914062 399 387.1171875 c 1,81,82
 394.887695312 390.271484375 394.887695312 390.271484375 390.775390625 385.624023438 c 1,83,84
 366.9921875 362.637695312 366.9921875 362.637695312 344.338867188 336.043945312 c 128,-1,85
 321.684570312 309.450195312 321.684570312 309.450195312 275.810546875 251.317382812 c 0,86,87
 268.701171875 242.493164062 268.701171875 242.493164062 232.956054688 195.666992188 c 0,88,89
 210.649414062 166.946289062 210.649414062 166.946289062 189.364257812 143.063476562 c 0,90,91
 135.986328125 81.01171875 135.986328125 81.01171875 98.3203125 61.791015625 c 0,92,93
 82.6787109375 54.17578125 82.6787109375 54.17578125 76.7001953125 61.5 c 0,94,95
 74.21875 62.6884765625 74.21875 62.6884765625 72.9423828125 68.8974609375 c 128,-1,96
 71.6669921875 75.1064453125 71.6669921875 75.1064453125 71.6669921875 78.5712890625 c 0,97,98
 71.6669921875 94.0048828125 71.6669921875 94.0048828125 84.5849609375 128.736328125 c 0,99,100
 88.5244140625 139.326171875 88.5244140625 139.326171875 92.0390625 149.703125 c 0,101,102
 98.4638671875 168.67578125 98.4638671875 168.67578125 99.66015625 170.948242188 c 0,103,104
 101.28125 174.02734375 101.28125 174.02734375 102 177.264648438 c 2,105,106
 102 181.033203125 102 181.033203125 102 178.020507812 c 2,107,108
 102.86328125 180.7421875 102.86328125 180.7421875 121.713867188 230.645507812 c 0,109,110
 125.547851562 239.536132812 125.547851562 239.536132812 127.736328125 246.768554688 c 0,111,112
 128.750976562 248.62109375 128.750976562 248.62109375 129 249.112304688 c 2,113,114
 129 252.26953125 129 252.26953125 129 249.993164062 c 1,115,116
 129.5 253.6328125 129.5 253.6328125 130 251.865234375 c 1,117,118
 130.333007812 255.544921875 130.333007812 255.544921875 130.666015625 253.849609375 c 1,119,120
 150.458984375 304.153320312 150.458984375 304.153320312 193.485351562 395.034179688 c 0,121,122
 209.397460938 428.64453125 209.397460938 428.64453125 235.943359375 484.71484375 c 0,123,124
 286.053710938 589.689453125 286.053710938 589.689453125 314.147460938 657.357421875 c 0,125,126
 348.310546875 741.598632812 348.310546875 741.598632812 361.756835938 801.501953125 c 0,127,128
 367.8984375 834.661132812 367.8984375 834.661132812 367.905273438 857.759765625 c 0,129,130
 366.895507812 900.702148438 366.895507812 900.702148438 332.5390625 894.061523438 c 0,131,132
 308.509765625 888.985351562 308.509765625 888.985351562 274.047851562 860.068359375 c 0,133,134
 261.344726562 849.409179688 261.344726562 849.409179688 247.190429688 835.481445312 c 0,135,136
 192.110351562 781.579101562 192.110351562 781.579101562 151.391601562 714.81640625 c 0,137,138
 108.784179688 642.876953125 108.784179688 642.876953125 102.977539062 587.693359375 c 0,139,0
 101.780273438 571.814453125 101.780273438 571.814453125 90.7744140625 553.791992188 c 128,-1,1
EndSplineSet
EndChar

StartChar: three
Encoding: 51 51 22
AltUni2: 00ff13.ffffffff.0 002083.ffffffff.0 0000b3.ffffffff.0 00ff13.ffffffff.0 002083.ffffffff.0 0000b3.ffffffff.0
Width: 492
GlyphClass: 1
Flags: HW
LayerCount: 2
Fore
SplineSet
73.8837890625 585.896484375 m 0,0,1
 70.11328125 582.068359375 70.11328125 582.068359375 66.560546875 579.086914062 c 0,2,3
 54.8662109375 569.274414062 54.8662109375 569.274414062 44.63671875 568.766601562 c 128,-1,4
 34.4072265625 568.2578125 34.4072265625 568.2578125 31.578125 581.518554688 c 0,5,6
 30.904296875 584.672851562 30.904296875 584.672851562 30.904296875 588.1796875 c 0,7,8
 30.904296875 599.677734375 30.904296875 599.677734375 38.0458984375 614.518554688 c 0,9,10
 121.42578125 793.8203125 121.42578125 793.8203125 216.778320312 878.885742188 c 0,11,12
 223.409179688 884.896484375 223.409179688 884.896484375 229.857421875 890.306640625 c 0,13,14
 313 960.071289062 313 960.071289062 362.25 928.645507812 c 0,15,16
 392.802734375 905.829101562 392.802734375 905.829101562 392.802734375 853.848632812 c 0,17,18
 392.802734375 825.625976562 392.802734375 825.625976562 383.309570312 786.5546875 c 128,-1,19
 373.817382812 747.484375 373.817382812 747.484375 355.482421875 707.627929688 c 1,20,21
 383.168945312 724.174804688 383.168945312 724.174804688 405.830078125 727.130859375 c 0,22,23
 441.896484375 733.99609375 441.896484375 733.99609375 461.47265625 711.826171875 c 128,-1,24
 481.048828125 689.65625 481.048828125 689.65625 481.048828125 648.352539062 c 0,25,26
 481.048828125 546.703125 481.048828125 546.703125 389.956054688 402.14453125 c 0,27,28
 287.12109375 243.922851562 287.12109375 243.922851562 104 90.2666015625 c 0,29,30
 88.9306640625 77.6220703125 88.9306640625 77.6220703125 77.96484375 79.384765625 c 128,-1,31
 67 81.150390625 67 81.150390625 67 96.7197265625 c 128,-1,32
 67 112.2890625 67 112.2890625 77.96484375 132.455078125 c 128,-1,33
 88.9306640625 152.622070312 88.9306640625 152.622070312 104 165.266601562 c 0,34,35
 260.594726562 296.665039062 260.594726562 296.665039062 344.170898438 423.619140625 c 0,36,37
 406 521.072265625 406 521.072265625 406 581.373046875 c 2,38,39
 406 583.12109375 406 583.12109375 406 581.541992188 c 2,40,41
 406.079101562 583.88671875 406.079101562 583.88671875 406.08203125 586.116210938 c 0,42,43
 406.08203125 637.877929688 406.08203125 637.877929688 363.1640625 629.61328125 c 0,44,45
 337.40234375 625.0078125 337.40234375 625.0078125 305.032226562 597.846679688 c 0,46,47
 284.7421875 580.8203125 284.7421875 580.8203125 261.799804688 554.912109375 c 0,48,49
 255.815429688 547.975585938 255.815429688 547.975585938 245.607421875 534.548828125 c 0,50,51
 237.344726562 524.243164062 237.344726562 524.243164062 229.12890625 517.263671875 c 0,52,53
 223.12109375 511.627929688 223.12109375 511.627929688 221.270507812 510.075195312 c 0,54,55
 196.854492188 489.587890625 196.854492188 489.587890625 187.05078125 503.859375 c 0,56,57
 184.079101562 508.629882812 184.079101562 508.629882812 184.079101562 515.838867188 c 128,-1,58
 184.079101562 523.08203125 184.079101562 523.08203125 187.077148438 532.641601562 c 0,59,60
 193.293945312 552.463867188 193.293945312 552.463867188 208.87890625 571.177734375 c 128,-1,61
 224.463867188 589.889648438 224.463867188 589.889648438 231.731445312 598.905273438 c 0,62,63
 291.522460938 677.706054688 291.522460938 677.706054688 309.7578125 747.1328125 c 0,64,65
 314.75 776.877929688 314.75 776.877929688 314.91796875 786.725585938 c 0,66,67
 314.91796875 819.751953125 314.91796875 819.751953125 295.666992188 832.919921875 c 0,68,69
 269.096679688 849.864257812 269.096679688 849.864257812 225.60546875 813.37109375 c 0,70,71
 223.666992188 811.744140625 223.666992188 811.744140625 221.686523438 810.005859375 c 0,72,73
 161.084960938 754.340820312 161.084960938 754.340820312 98.0380859375 620.446289062 c 0,74,75
 89.8486328125 602.10546875 89.8486328125 602.10546875 73.8837890625 585.896484375 c 0,0,1
EndSplineSet
EndChar

StartChar: four
Encoding: 52 52 23
AltUni2: 00ff14.ffffffff.0 002084.ffffffff.0 002074.ffffffff.0 00ff14.ffffffff.0 002084.ffffffff.0 002074.ffffffff.0
Width: 534
GlyphClass: 1
Flags: HW
LayerCount: 2
Fore
SplineSet
150.716796875 845.947265625 m 0,0,1
 159.36328125 843.6953125 159.36328125 843.6953125 159.36328125 831.053710938 c 0,2,3
 159.36328125 829.591796875 159.36328125 829.591796875 150.999023438 737.744140625 c 0,4,5
 150.958007812 728.392578125 150.958007812 728.392578125 146.99609375 701.546875 c 0,6,7
 146.959960938 699.32421875 146.959960938 699.32421875 146.482421875 693.5390625 c 0,8,9
 145.362304688 679.951171875 145.362304688 679.951171875 141.99609375 610.528320312 c 0,10,11
 141.359375 592.982421875 141.359375 592.982421875 141.360351562 577.251953125 c 0,12,13
 141.360351562 420.154296875 141.360351562 420.154296875 205.025390625 444.443359375 c 0,14,15
 225.232421875 452.192382812 225.232421875 452.192382812 255.072265625 477.231445312 c 0,16,17
 267.911132812 488.00390625 267.911132812 488.00390625 282.510742188 501.979492188 c 0,18,19
 286.862304688 506.647460938 286.862304688 506.647460938 293.67578125 513.364257812 c 0,20,21
 303.245117188 522.798828125 303.245117188 522.798828125 313.544921875 533.34375 c 1,22,23
 314.919921875 544.146484375 314.919921875 544.146484375 314.919921875 558.249023438 c 2,24,-1
 314.928710938 558.541992188 l 1,25,-1
 321.220703125 669.852539062 l 2,26,27
 323.096679688 700.068359375 323.096679688 700.068359375 323.096679688 719.71484375 c 128,-1,28
 323.096679688 739.361328125 323.096679688 739.361328125 322.267578125 752.1171875 c 2,29,-1
 322.258789062 752.407226562 l 2,30,31
 322.258789062 768.4765625 322.258789062 768.4765625 333.752929688 789.086914062 c 0,32,33
 346.390625 811.74609375 346.390625 811.74609375 362.615234375 825.36328125 c 128,-1,34
 378.840820312 838.98046875 378.840820312 838.98046875 389.833007812 837.717773438 c 128,-1,35
 400.826171875 836.455078125 400.826171875 836.455078125 400.881835938 821.517578125 c 0,36,37
 401.719726562 806.944335938 401.719726562 806.944335938 401.719726562 785.442382812 c 128,-1,38
 401.719726562 763.939453125 401.719726562 763.939453125 400.25 736.654296875 c 0,39,40
 395.1796875 642.587890625 395.1796875 642.587890625 393.506835938 619.243164062 c 1,41,42
 399.844726562 627.364257812 399.844726562 627.364257812 406.895507812 634.317382812 c 0,43,44
 474.10546875 711.275390625 474.10546875 711.275390625 485.344726562 720.70703125 c 128,-1,45
 496.583984375 730.137695312 496.583984375 730.137695312 505.094726562 732.099609375 c 0,46,47
 518.318359375 735.145507812 518.318359375 735.145507812 521.83203125 723.169921875 c 0,48,49
 523.454101562 719.17578125 523.454101562 719.17578125 523.454101562 711.911132812 c 128,-1,50
 523.454101562 704.697265625 523.454101562 704.697265625 518.274414062 691.900390625 c 0,51,52
 509.661132812 670.770507812 509.661132812 670.770507812 493.8984375 653.934570312 c 0,53,54
 483.150390625 642.99609375 483.150390625 642.99609375 427.478515625 580.65625 c 0,55,56
 405.291992188 554.7734375 405.291992188 554.7734375 388.09375 536.5234375 c 1,57,58
 385.091796875 477.59765625 385.091796875 477.59765625 385.091796875 424.740234375 c 128,-1,59
 385.091796875 371.8828125 385.091796875 371.8828125 390.302734375 354.6875 c 0,60,61
 391.296875 351.41015625 391.296875 351.41015625 391.296875 347.396484375 c 0,62,63
 391.296875 337.114257812 391.296875 337.114257812 384.833007812 322.40234375 c 0,64,65
 373.760742188 297.201171875 373.760742188 297.201171875 352.909179688 279.705078125 c 0,66,67
 340.229492188 269.065429688 340.229492188 269.065429688 329.793945312 267.006835938 c 0,68,69
 316.44921875 264.374023438 316.44921875 264.374023438 313.958984375 277.1171875 c 0,70,71
 306.534179688 303.010742188 306.534179688 303.010742188 306.534179688 380.34765625 c 0,72,73
 306.534179688 398.2421875 306.534179688 398.2421875 308.426757812 454.178710938 c 1,74,75
 273.05859375 419.745117188 273.05859375 419.745117188 253.36328125 403.21875 c 0,76,77
 207.198242188 364.482421875 207.198242188 364.482421875 171.833007812 350.700195312 c 0,78,79
 113.98046875 329.682617188 113.98046875 329.682617188 88.2900390625 379.111328125 c 0,80,81
 66.4482421875 421.133789062 66.4482421875 421.133789062 66.4482421875 518.942382812 c 0,82,83
 66.4482421875 534.54296875 66.4482421875 534.54296875 67.0029296875 551.5546875 c 2,84,85
 67.0029296875 549.794921875 67.0029296875 549.794921875 67.0029296875 551.65625 c 1,86,87
 69.001953125 587.9765625 69.001953125 587.9765625 71 628.893554688 c 2,88,89
 71.0205078125 635.1328125 71.0205078125 635.1328125 73.0009765625 648.614257812 c 0,90,91
 73.06640625 660.916015625 73.06640625 660.916015625 75.5556640625 675.286132812 c 0,92,93
 77.94921875 689.102539062 77.94921875 689.102539062 85.0146484375 770.171875 c 0,94,95
 86.16796875 785.930664062 86.16796875 785.930664062 96.7158203125 804.149414062 c 128,-1,96
 107.264648438 822.369140625 107.264648438 822.369140625 120.041015625 833.08984375 c 0,97,98
 138.998046875 848.99609375 138.998046875 848.99609375 150.716796875 845.947265625 c 0,0,1
EndSplineSet
EndChar

StartChar: five
Encoding: 53 53 24
AltUni2: 00ff15.ffffffff.0 002085.ffffffff.0 002075.ffffffff.0 00ff15.ffffffff.0 002085.ffffffff.0 002075.ffffffff.0
Width: 469
GlyphClass: 1
Flags: HW
LayerCount: 2
Fore
SplineSet
195.41796875 576.974609375 m 2,0,-1
 195.546875 577.08203125 l 1,1,-1
 225.314453125 603.061523438 l 2,2,3
 254.401367188 627.467773438 254.401367188 627.467773438 281.107421875 646.331054688 c 128,-1,4
 307.8125 665.194335938 307.8125 665.194335938 332.083984375 673.255859375 c 0,5,6
 386.54296875 689.133789062 386.54296875 689.133789062 398.927734375 625.08203125 c 0,7,8
 402.063476562 609.638671875 402.063476562 609.638671875 402.063476562 591.362304688 c 0,9,10
 402.063476562 538.168945312 402.063476562 538.168945312 375.48828125 461.103515625 c 0,11,12
 342.96875 368.548828125 342.96875 368.548828125 283.782226562 276.65234375 c 0,13,14
 228.208984375 191.282226562 228.208984375 191.282226562 173.810546875 145.63671875 c 0,15,16
 87.232421875 72.98828125 87.232421875 72.98828125 52.3310546875 130.833984375 c 0,17,18
 49.5 135.712890625 49.5 135.712890625 49.5 142.913085938 c 128,-1,19
 49.5 150.146484375 49.5 150.146484375 52.35546875 159.578125 c 0,20,21
 58.197265625 178.87109375 58.197265625 178.87109375 73.30078125 196.2265625 c 0,22,23
 80.11328125 204.693359375 80.11328125 204.693359375 87.125 210.577148438 c 128,-1,24
 94.21484375 216.526367188 94.21484375 216.526367188 101.354492188 219.703125 c 0,25,26
 115.883789062 226.166992188 115.883789062 226.166992188 121.668945312 216.200195312 c 0,27,28
 137.465820312 188.977539062 137.465820312 188.977539062 169.916015625 216.20703125 c 0,29,30
 198.873046875 240.50390625 198.873046875 240.50390625 236.03125 296.655273438 c 0,31,32
 280.625 363.875 280.625 363.875 305.588867188 433.997070312 c 0,33,34
 326.1875 490.200195312 326.1875 490.200195312 326.1875 528.419921875 c 0,35,36
 326.1875 540.153320312 326.1875 540.153320312 324.2578125 550.15625 c 0,37,38
 317.250976562 583.244140625 317.250976562 583.244140625 293.034179688 574.59765625 c 0,39,40
 272.823242188 567.92578125 272.823242188 567.92578125 226.377929688 528.953125 c 0,41,42
 223.346679688 526.41015625 223.346679688 526.41015625 214.35546875 518.368164062 c 128,-1,43
 205.364257812 510.326171875 205.364257812 510.326171875 197.823242188 503.993164062 c 0,44,45
 149.4296875 460.818359375 149.4296875 460.818359375 126.036132812 445.8359375 c 0,46,47
 77.455078125 414.453125 77.455078125 414.453125 60.40234375 439.069335938 c 0,48,49
 52.857421875 450.114257812 52.857421875 450.114257812 52.857421875 474.10546875 c 128,-1,50
 52.857421875 498.096679688 52.857421875 498.096679688 61.6787109375 537.16015625 c 0,51,52
 78.3076171875 610.797851562 78.3076171875 610.797851562 128.525390625 752.0703125 c 0,53,54
 130.6640625 758.087890625 130.6640625 758.087890625 133.813476562 764.915039062 c 0,55,56
 143.110351562 788.495117188 143.110351562 788.495117188 161.477539062 805.1328125 c 0,57,58
 227.799804688 869.670898438 227.799804688 869.670898438 411.873046875 1065.47460938 c 0,59,60
 416.326171875 1070.23925781 416.326171875 1070.23925781 420.665039062 1073.87988281 c 0,61,62
 430.8515625 1082.42773438 430.8515625 1082.42773438 440.094726562 1084.55761719 c 0,63,64
 453.438476562 1087.76464844 453.438476562 1087.76464844 456.872070312 1074.88183594 c 0,65,66
 457.900390625 1071.36230469 457.900390625 1071.36230469 457.900390625 1067.09472656 c 0,67,68
 457.900390625 1057.07324219 457.900390625 1057.07324219 452.274414062 1043.26074219 c 0,69,70
 444.17578125 1023.37695312 444.17578125 1023.37695312 429.099609375 1007.3046875 c 0,71,72
 249.772460938 818.344726562 249.772460938 818.344726562 190.62109375 759.36328125 c 1,73,74
 127.8828125 582.553710938 127.8828125 582.553710938 127.8828125 536.859375 c 0,75,76
 127.8828125 529.712890625 127.8828125 529.712890625 129.516601562 526.778320312 c 0,77,78
 131.606445312 526.418945312 131.606445312 526.418945312 139.990234375 531.358398438 c 0,79,80
 152.735351562 540.1953125 152.735351562 540.1953125 195.41796875 576.974609375 c 2,0,-1
EndSplineSet
EndChar

StartChar: six
Encoding: 54 54 25
AltUni2: 00ff16.ffffffff.0 002086.ffffffff.0 002076.ffffffff.0 00ff16.ffffffff.0 002086.ffffffff.0 002076.ffffffff.0
Width: 462
GlyphClass: 1
Flags: HW
LayerCount: 2
Fore
SplineSet
251.659179688 260.154296875 m 0,0,1
 256.732421875 264.122070312 256.732421875 264.122070312 261.673828125 268.268554688 c 0,2,3
 321.372070312 318.361328125 321.372070312 318.361328125 351.889648438 387.116210938 c 0,4,5
 376.599609375 444.916992188 376.599609375 444.916992188 376.599609375 495.884765625 c 0,6,7
 376.599609375 508.716796875 376.599609375 508.716796875 375.032226562 521.116210938 c 0,8,9
 367.250976562 582.677734375 367.250976562 582.677734375 327.486328125 584.03515625 c 0,10,11
 302.681640625 583.2265625 302.681640625 583.2265625 270.158203125 555.935546875 c 0,12,13
 247.212890625 536.681640625 247.212890625 536.681640625 222.380859375 506.521484375 c 128,-1,14
 197.549804688 476.362304688 197.549804688 476.362304688 177.123046875 445.288085938 c 0,15,16
 157.006835938 414.473632812 157.006835938 414.473632812 152.5546875 400.944335938 c 0,17,18
 144.145507812 374.966796875 144.145507812 374.966796875 123.1875 355.545898438 c 1,19,20
 116.62109375 299.79296875 116.62109375 299.79296875 116.470703125 283.201171875 c 0,21,22
 116.470703125 248.076171875 116.470703125 248.076171875 125.706054688 230.170898438 c 0,23,24
 150.598632812 182.125 150.598632812 182.125 251.659179688 260.154296875 c 0,0,1
190.955078125 549.403320312 m 0,25,26
 233.057617188 599.438476562 233.057617188 599.438476562 270.532226562 630.8828125 c 0,27,28
 331.100585938 681.70703125 331.100585938 681.70703125 376.241210938 681.318359375 c 0,29,30
 438.763671875 681.1875 438.763671875 681.1875 448.965820312 594.110351562 c 0,31,32
 451.161132812 577.4453125 451.161132812 577.4453125 451.161132812 559.923828125 c 0,33,34
 451.161132812 487.953125 451.161132812 487.953125 414.170898438 401.758789062 c 0,35,36
 363.3828125 283.495117188 363.3828125 283.495117188 262.330078125 198.702148438 c 0,37,38
 254.676757812 192.280273438 254.676757812 192.280273438 246.615234375 185.950195312 c 0,39,40
 95.353515625 70.126953125 95.353515625 70.126953125 55.27734375 150.063476562 c 0,41,42
 41.9560546875 176.567382812 41.9560546875 176.567382812 41.9560546875 224.375 c 0,43,44
 41.9560546875 286.111328125 41.9560546875 286.111328125 64.19140625 383.53125 c 0,45,46
 94.3466796875 512.977539062 94.3466796875 512.977539062 163.723632812 695.024414062 c 1,47,48
 163.756835938 692.375976562 163.756835938 692.375976562 163.791015625 695.190429688 c 1,49,50
 233.234375 863.561523438 233.234375 863.561523438 283.657226562 951.690429688 c 0,51,52
 294.780273438 971.350585938 294.780273438 971.350585938 311.328125 985.235351562 c 128,-1,53
 327.875 999.120117188 327.875 999.120117188 339.62890625 997.576171875 c 0,54,55
 350 994.907226562 350 994.907226562 350 980.1875 c 128,-1,56
 350 965.317382812 350 965.317382812 338.494140625 944.310546875 c 0,57,58
 291.677734375 862.107421875 291.677734375 862.107421875 233.594726562 717.283203125 c 0,59,60
 189.798828125 608.245117188 189.798828125 608.245117188 158.739257812 507.413085938 c 1,61,62
 178.188476562 533.71875 178.188476562 533.71875 190.955078125 549.403320312 c 0,25,26
EndSplineSet
EndChar

StartChar: seven
Encoding: 55 55 26
AltUni2: 00ff17.ffffffff.0 002087.ffffffff.0 002077.ffffffff.0 00ff17.ffffffff.0 002087.ffffffff.0 002077.ffffffff.0
Width: 499
GlyphClass: 1
Flags: HW
LayerCount: 2
Fore
SplineSet
422.72265625 839.744140625 m 128,-1,1
 391.873046875 747.76171875 391.873046875 747.76171875 382.458007812 718.375976562 c 1,2,3
 408.861328125 742.287109375 408.861328125 742.287109375 435.265625 768.095703125 c 1,4,5
 445.684570312 776.837890625 445.684570312 776.837890625 454.811523438 778.348632812 c 0,6,7
 471.400390625 781.09765625 471.400390625 781.09765625 471.400390625 761.537109375 c 0,8,9
 471.400390625 749.34375 471.400390625 749.34375 463.108398438 731.125 c 128,-1,10
 454.817382812 712.908203125 454.817382812 712.908203125 439.38671875 697.616210938 c 0,11,12
 429.3359375 689.182617188 429.3359375 689.182617188 384.3359375 645.49609375 c 1,13,14
 372.504882812 635.568359375 372.504882812 635.568359375 348.44140625 612.55078125 c 1,15,16
 343.3359375 596.864257812 343.3359375 596.864257812 341.4765625 589.1953125 c 0,17,18
 303.731445312 471.92578125 303.731445312 471.92578125 286.001953125 387.565429688 c 0,19,20
 274.892578125 331.640625 274.892578125 331.640625 274.892578125 301.065429688 c 0,21,22
 274.892578125 283.447265625 274.892578125 283.447265625 277.599609375 277.033203125 c 128,-1,23
 280.306640625 270.620117188 280.306640625 270.620117188 280.306640625 263.423828125 c 128,-1,24
 280.306640625 256.227539062 280.306640625 256.227539062 274.870117188 243.283203125 c 0,25,26
 266.482421875 223.314453125 266.482421875 223.314453125 250.934570312 205.778320312 c 0,27,28
 245.221679688 199.311523438 245.221679688 199.311523438 237.552734375 192.875976562 c 128,-1,29
 229.884765625 186.44140625 229.884765625 186.44140625 220.951171875 184.125976562 c 0,30,31
 206.760742188 180.323242188 206.760742188 180.323242188 202.330078125 191.149414062 c 0,32,33
 196.279296875 207.567382812 196.279296875 207.567382812 196.279296875 234.920898438 c 0,34,35
 196.279296875 275.551757812 196.279296875 275.551757812 209.665039062 340.614257812 c 0,36,37
 226.762695312 418.186523438 226.762695312 418.186523438 260.131835938 529.120117188 c 1,38,39
 242.599609375 511.913085938 242.599609375 511.913085938 225.067382812 494.21484375 c 1,40,41
 225.006835938 494.442382812 225.006835938 494.442382812 224.946289062 494.095703125 c 2,42,43
 221.483398438 490.724609375 221.483398438 490.724609375 218.151367188 487.928710938 c 0,44,45
 205.456054688 477.275390625 205.456054688 477.275390625 195.0078125 475.193359375 c 0,46,47
 181.657226562 472.53125 181.657226562 472.53125 179.15625 485.220703125 c 0,48,49
 178.165039062 488.501953125 178.165039062 488.501953125 178.165039062 492.517578125 c 0,50,51
 178.165039062 502.825195312 178.165039062 502.825195312 184.63671875 517.567382812 c 0,52,53
 193.793945312 538.424804688 193.793945312 538.424804688 209.685546875 554.053710938 c 0,54,55
 252.342773438 596.518554688 252.342773438 596.518554688 294.037109375 635.420898438 c 1,56,57
 318.243164062 710.0546875 318.243164062 710.0546875 388.423828125 912.913085938 c 0,58,59
 403.982421875 962.361328125 403.982421875 962.361328125 410.033203125 983.225585938 c 0,60,61
 410.176757812 985.48828125 410.176757812 985.48828125 410.958984375 988.452148438 c 0,62,63
 401.43359375 986.842773438 401.43359375 986.842773438 380 968.857421875 c 0,64,65
 367.294921875 958.197265625 367.294921875 958.197265625 343.153320312 934.939453125 c 1,66,-1
 342.743164062 934.595703125 l 2,67,68
 341.633789062 933.623046875 341.633789062 933.623046875 337.421875 929.641601562 c 128,-1,69
 333.209960938 925.66015625 333.209960938 925.66015625 330.310546875 922.706054688 c 128,-1,70
 327.411132812 919.751953125 327.411132812 919.751953125 321.05859375 914.400390625 c 0,71,72
 282.65625 878.200195312 282.65625 878.200195312 243.063476562 836.043945312 c 128,-1,73
 203.469726562 793.888671875 203.469726562 793.888671875 148.362304688 732.6796875 c 2,74,75
 148.2890625 727.598632812 148.2890625 727.598632812 148.21484375 732.515625 c 2,76,77
 128.245117188 710.766601562 128.245117188 710.766601562 83.3779296875 661.153320312 c 0,78,79
 68.2802734375 643.87890625 68.2802734375 643.87890625 54.9052734375 640.796875 c 128,-1,80
 41.681640625 637.75 41.681640625 637.75 38.16796875 649.725585938 c 0,81,82
 36.5458984375 653.720703125 36.5458984375 653.720703125 36.5458984375 660.985351562 c 128,-1,83
 36.5458984375 668.25 36.5458984375 668.25 41.7255859375 681.106445312 c 0,84,85
 49.9423828125 701.499023438 49.9423828125 701.499023438 64.7099609375 718.129882812 c 0,86,87
 109.489257812 767.901367188 109.489257812 767.901367188 128.689453125 788.810546875 c 0,88,89
 183.69921875 850.690429688 183.69921875 850.690429688 216.791015625 885.796875 c 0,90,91
 270.611328125 942.016601562 270.611328125 942.016601562 313.153320312 981.766601562 c 0,92,93
 314.263671875 982.735351562 314.263671875 982.735351562 317.943359375 986.3046875 c 128,-1,94
 321.623046875 989.874023438 321.623046875 989.874023438 325.297851562 992.95703125 c 128,-1,95
 328.97265625 996.041015625 328.97265625 996.041015625 332.901367188 1001.20898438 c 1,96,97
 362.458007812 1029.13769531 362.458007812 1029.13769531 380 1043.85742188 c 0,98,99
 452.5546875 1104.73828125 452.5546875 1104.73828125 483.400390625 1078.64746094 c 0,100,101
 488 1073.42089844 488 1073.42089844 488 1063.28320312 c 0,102,103
 488 1044.46679688 488 1044.46679688 480.817382812 1019.79882812 c 128,-1,104
 473.634765625 995.129882812 473.634765625 995.129882812 463.602539062 963.427734375 c 128,-1,0
 453.571289062 931.7265625 453.571289062 931.7265625 422.72265625 839.744140625 c 128,-1,1
EndSplineSet
EndChar

StartChar: eight
Encoding: 56 56 27
AltUni2: 00ff18.ffffffff.0 002088.ffffffff.0 002078.ffffffff.0 00ff18.ffffffff.0 002088.ffffffff.0 002078.ffffffff.0
Width: 457
GlyphClass: 1
Flags: HW
LayerCount: 2
Fore
SplineSet
388.470703125 578.8359375 m 0,0,1
 447 572.2421875 447 572.2421875 447 499.130859375 c 0,2,3
 447 453.831054688 447 453.831054688 416.6640625 395.359375 c 0,4,5
 389.888671875 344.44921875 389.888671875 344.44921875 350.80078125 296.431640625 c 0,6,7
 300.22265625 235.228515625 300.22265625 235.228515625 250.028320312 193.110351562 c 0,8,9
 220.8828125 168.654296875 220.8828125 168.654296875 194.982421875 152.678710938 c 0,10,11
 190.459960938 149.94140625 190.459960938 149.94140625 182.374023438 146.884765625 c 1,12,13
 38.7998046875 30.412109375 38.7998046875 30.412109375 179.321289062 144.323242188 c 1,14,15
 178.719726562 149.161132812 178.719726562 149.161132812 178.118164062 144.438476562 c 1,16,17
 79.146484375 90.490234375 79.146484375 90.490234375 42.158203125 104.981445312 c 0,18,19
 12.9296875 113.658203125 12.9296875 113.658203125 12.9296875 155.065429688 c 0,20,21
 12.9296875 216.89453125 12.9296875 216.89453125 77.1572265625 346.80859375 c 0,22,23
 100.469726562 393.963867188 100.469726562 393.963867188 124.655273438 438.44921875 c 1,24,25
 95.056640625 438.986328125 95.056640625 438.986328125 79.6591796875 451.806640625 c 0,26,27
 60.591796875 468.620117188 60.591796875 468.620117188 60.591796875 505.39453125 c 0,28,29
 60.591796875 561.993164062 60.591796875 561.993164062 105.82421875 665.342773438 c 0,30,31
 139.487304688 743.393554688 139.487304688 743.393554688 172.703125 800.334960938 c 0,32,33
 233.208007812 902.16015625 233.208007812 902.16015625 300.901367188 958.959960938 c 0,34,35
 330.520507812 983.813476562 330.520507812 983.813476562 353.615234375 989.173828125 c 0,36,37
 367.157226562 992.31640625 367.157226562 992.31640625 391.686523438 987.697265625 c 0,38,39
 420.922851562 980.76953125 420.922851562 980.76953125 420.922851562 941.038085938 c 0,40,41
 420.922851562 933.891601562 420.922851562 933.891601562 419.971679688 925.698242188 c 0,42,43
 416.833984375 888.379882812 416.833984375 888.379882812 387.232421875 817.227539062 c 1,44,45
 387.155273438 815.040039062 387.155273438 815.040039062 387.078125 816.870117188 c 1,46,47
 359.879882812 756.291015625 359.879882812 756.291015625 323.538085938 688.146484375 c 0,48,49
 314.193359375 670.590820312 314.193359375 670.590820312 247.887695312 552.897460938 c 1,50,51
 251.200195312 553.844726562 251.200195312 553.844726562 254.013671875 554.888671875 c 128,-1,52
 256.827148438 555.934570312 256.827148438 555.934570312 263.372070312 557.598632812 c 0,53,54
 271.702148438 559.71875 271.702148438 559.71875 274.881835938 561.143554688 c 0,55,56
 322.775390625 574.447265625 322.775390625 574.447265625 334.901367188 576.766601562 c 0,57,58
 370.236328125 581.521484375 370.236328125 581.521484375 388.470703125 578.8359375 c 0,0,1
323.76171875 802.569335938 m 2,59,60
 346.266601562 852.7265625 346.266601562 852.7265625 346.266601562 874.280273438 c 0,61,62
 346.266601562 887.456054688 346.266601562 887.456054688 336.3359375 889.819335938 c 0,63,64
 320.439453125 893.983398438 320.439453125 893.983398438 314.219726562 892.303710938 c 128,-1,65
 307.999023438 890.624023438 307.999023438 890.624023438 299.814453125 883.755859375 c 0,66,67
 297.892578125 882.143554688 297.892578125 882.143554688 295.8125 880.234375 c 0,68,69
 260.698242188 847.915039062 260.698242188 847.915039062 226.171875 789.084960938 c 0,70,71
 205.528320312 754.140625 205.528320312 754.140625 169.014648438 674.0390625 c 0,72,73
 135.657226562 596.803710938 135.657226562 596.803710938 135.534179688 565.24609375 c 0,74,75
 135.534179688 547.887695312 135.534179688 547.887695312 144.928710938 540.14453125 c 0,76,77
 158.060546875 530.729492188 158.060546875 530.729492188 179.909179688 533.520507812 c 1,78,79
 223.087890625 605.205078125 223.087890625 605.205078125 266.265625 686.889648438 c 1,80,81
 304.907226562 758.942382812 304.907226562 758.942382812 323.616210938 802.245117188 c 2,82,83
 323.688476562 797.407226562 323.688476562 797.407226562 323.76171875 802.569335938 c 2,59,60
90.876953125 235.150390625 m 0,84,85
 88 221.984375 88 221.984375 88 215.5078125 c 0,86,87
 88 200.091796875 88 200.091796875 98.716796875 197.17578125 c 0,88,89
 123.85546875 189.263671875 123.85546875 189.263671875 201.032226562 230.450195312 c 0,90,91
 208.521484375 234.365234375 208.521484375 234.365234375 213.708984375 236.09765625 c 1,92,93
 231.887695312 247.341796875 231.887695312 247.341796875 250.559570312 263.008789062 c 0,94,95
 285.297851562 292.157226562 285.297851562 292.157226562 321.881835938 336.735351562 c 0,96,97
 372 398.54296875 372 398.54296875 372 433.145507812 c 0,98,99
 372 475.037109375 372 475.037109375 335.393554688 479.967773438 c 1,100,101
 311.224609375 484.016601562 311.224609375 484.016601562 235.73828125 462.922851562 c 0,102,103
 234.202148438 461.8828125 234.202148438 461.8828125 225.54296875 459.75 c 128,-1,104
 216.8828125 457.6171875 216.8828125 457.6171875 213.731445312 456.467773438 c 128,-1,105
 210.580078125 455.318359375 210.580078125 455.318359375 202.42578125 453.202148438 c 128,-1,106
 194.270507812 451.084960938 194.270507812 451.084960938 189.700195312 449.873046875 c 1,107,108
 157.1171875 391.385742188 157.1171875 391.385742188 136.11328125 348.147460938 c 2,109,-1
 135.97265625 347.86328125 l 1,110,111
 97.6083984375 270.608398438 97.6083984375 270.608398438 90.876953125 235.150390625 c 0,84,85
EndSplineSet
EndChar

StartChar: nine
Encoding: 57 57 28
AltUni2: 00ff19.ffffffff.0 002089.ffffffff.0 002079.ffffffff.0 00ff19.ffffffff.0 002089.ffffffff.0 002079.ffffffff.0
Width: 464
GlyphClass: 1
Flags: HW
LayerCount: 2
Fore
SplineSet
367.46875 623.345703125 m 1,0,1
 378.737304688 683.516601562 378.737304688 683.516601562 378.737304688 725.150390625 c 128,-1,2
 378.737304688 766.784179688 378.737304688 766.784179688 372.092773438 795.260742188 c 0,3,4
 354.55078125 874.438476562 354.55078125 874.438476562 288.1015625 845.588867188 c 0,5,6
 263.247070312 834.611328125 263.247070312 834.611328125 241.203125 816.11328125 c 0,7,8
 208.079101562 788.319335938 208.079101562 788.319335938 180.627929688 743.130859375 c 0,9,10
 136.852539062 669.016601562 136.852539062 669.016601562 131.989257812 594.415039062 c 0,11,12
 131.51953125 586.790039062 131.51953125 586.790039062 131.51953125 579.818359375 c 0,13,14
 131.51953125 514.782226562 131.51953125 514.782226562 172.572265625 507.302734375 c 0,15,16
 224.252929688 503.677734375 224.252929688 503.677734375 319.76953125 583.826171875 c 0,17,18
 336.46875 597.838867188 336.46875 597.838867188 353.565429688 613.658203125 c 2,19,-1
 354 614.041015625 l 2,20,21
 361.408203125 620.2578125 361.408203125 620.2578125 367.46875 623.345703125 c 1,0,1
162.53125 210.413085938 m 0,22,23
 209.5390625 249.857421875 209.5390625 249.857421875 253.658203125 321.428710938 c 0,24,25
 311.184570312 414.717773438 311.184570312 414.717773438 345.712890625 531.576171875 c 1,26,27
 331.650390625 518.928710938 331.650390625 518.928710938 317.420898438 506.98828125 c 0,28,29
 188.247070312 398.598632812 188.247070312 398.598632812 119.46484375 410.708007812 c 0,30,31
 56.5068359375 420.838867188 56.5068359375 420.838867188 56.5068359375 518.096679688 c 0,32,33
 56.5068359375 526.762695312 56.5068359375 526.762695312 57.0087890625 536.13671875 c 0,34,35
 63.130859375 641.974609375 63.130859375 641.974609375 130.665039062 757.637695312 c 0,36,37
 178.842773438 839.830078125 178.842773438 839.830078125 238.876953125 890.204101562 c 0,38,39
 277.8671875 922.920898438 277.8671875 922.920898438 320.198242188 940.680664062 c 0,40,41
 421.44921875 981.705078125 421.44921875 981.705078125 445.9140625 871.091796875 c 0,42,43
 453.474609375 837.115234375 453.474609375 837.115234375 453.474609375 794.375 c 0,44,45
 453.474609375 717.169921875 453.474609375 717.169921875 428.795898438 611.385742188 c 0,46,47
 389.380859375 447.388671875 389.380859375 447.388671875 305.463867188 307.313476562 c 0,48,49
 238.326171875 198.391601562 238.326171875 198.391601562 163.858398438 135.905273438 c 0,50,51
 123.133789062 101.733398438 123.133789062 101.733398438 80.080078125 83.193359375 c 0,52,53
 66.13671875 76.51171875 66.13671875 76.51171875 60.35546875 84.1474609375 c 0,54,55
 57.5 87.974609375 57.5 87.974609375 57.5 94.373046875 c 0,56,57
 57.5 102.959960938 57.5 102.959960938 60.3828125 113.509765625 c 0,58,59
 66.1923828125 134.25 66.1923828125 134.25 80.6455078125 152.95703125 c 0,60,61
 87.78515625 162.16015625 87.78515625 162.16015625 95.125 168.319335938 c 0,62,63
 102.826171875 174.78125 102.826171875 174.78125 109.965820312 177.502929688 c 0,64,65
 136.951171875 188.94921875 136.951171875 188.94921875 162.53125 210.413085938 c 0,22,23
EndSplineSet
EndChar

StartChar: colon
Encoding: 58 58 29
AltUni2: 00ff1a.ffffffff.0 00fe55.ffffffff.0 00fe13.ffffffff.0 002236.ffffffff.0 000589.ffffffff.0 00ff1a.ffffffff.0 00fe55.ffffffff.0 00fe13.ffffffff.0 002236.ffffffff.0 000589.ffffffff.0
Width: 230
GlyphClass: 1
Flags: HW
LayerCount: 2
Fore
SplineSet
68 128.05859375 m 1,0,-1
 68 127.05859375 l 2,1,2
 68 109.958984375 68 109.958984375 79.7275390625 106.231445312 c 0,3,4
 90.6142578125 103.611328125 90.6142578125 103.611328125 108.984375 115.3515625 c 0,5,6
 113.499023438 118.237304688 113.499023438 118.237304688 120 123.692382812 c 128,-1,7
 126.493164062 129.140625 126.493164062 129.140625 136.94140625 139.797851562 c 0,8,9
 166.77734375 172.340820312 166.77734375 172.340820312 183.620117188 209.55078125 c 1,10,11
 191.985351562 236.186523438 191.985351562 236.186523438 192.999023438 246.204101562 c 0,12,13
 192.896484375 263.33203125 192.896484375 263.33203125 178.998046875 270.201171875 c 0,14,15
 160.129882812 278.897460938 160.129882812 278.897460938 130.881835938 261.947265625 c 0,16,17
 124.913085938 257.793945312 124.913085938 257.793945312 123 256.208984375 c 0,18,19
 111.682617188 246.712890625 111.682617188 246.712890625 104.266601562 230.84375 c 1,20,-1
 103.474609375 228.594726562 l 1,21,-1
 102.759765625 226.563476562 l 1,22,23
 87.5498046875 205.689453125 87.5498046875 205.689453125 80.2578125 188.715820312 c 0,24,25
 76.5498046875 179.100585938 76.5498046875 179.100585938 74.6982421875 172.958007812 c 0,26,27
 68.265625 140.786132812 68.265625 140.786132812 68 131.05859375 c 2,28,-1
 68 128.05859375 l 1,0,-1
78 414.450195312 m 0,29,30
 78 390.3671875 78 390.3671875 94.716796875 385.819335938 c 0,31,32
 114.204101562 380.828125 114.204101562 380.828125 150.43359375 411.228515625 c 128,-1,33
 186.662109375 441.627929688 186.662109375 441.627929688 200.336914062 480.94921875 c 0,34,35
 205 499.877929688 205 499.877929688 205 507.015625 c 0,36,37
 205 523.784179688 205 523.784179688 194.567382812 534.947265625 c 0,38,39
 180.594726562 551.16796875 180.594726562 551.16796875 156.553710938 544.002929688 c 0,40,41
 141.690429688 539.891601562 141.690429688 539.891601562 128 528.404296875 c 0,42,43
 109.299804688 512.713867188 109.299804688 512.713867188 93.92578125 484.666992188 c 0,44,45
 88.2724609375 469.592773438 88.2724609375 469.592773438 88 467.340820312 c 2,46,-1
 88 456.840820312 l 1,47,-1
 88 455.327148438 l 1,48,-1
 87.1630859375 453.370117188 l 1,49,-1
 85.1630859375 448.692382812 l 2,50,51
 79.75 436.5 79.75 436.5 78.875 428.326171875 c 128,-1,52
 78 420.153320312 78 420.153320312 78 414.450195312 c 0,29,30
EndSplineSet
EndChar

StartChar: semicolon
Encoding: 59 59 30
AltUni2: 00ff1b.ffffffff.0 00fe54.ffffffff.0 00fe14.ffffffff.0 00037e.ffffffff.0 00ff1b.ffffffff.0 00fe54.ffffffff.0 00fe14.ffffffff.0 00037e.ffffffff.0
Width: 212
GlyphClass: 1
Flags: HW
LayerCount: 2
Fore
SplineSet
119.6484375 468.100585938 m 0,0,1
 128.522460938 475.546875 128.522460938 475.546875 137.932617188 479.3515625 c 0,2,3
 199.256835938 505.051757812 199.256835938 505.051757812 199.256835938 453.583007812 c 0,4,5
 199.256835938 421.02734375 199.256835938 421.02734375 171.221679688 373.848632812 c 0,6,7
 150.036132812 338.870117188 150.036132812 338.870117188 125.741210938 318.484375 c 0,8,9
 111.814453125 306.797851562 111.814453125 306.797851562 98.9521484375 301.46875 c 0,10,11
 76.71484375 292.81640625 76.71484375 292.81640625 65.525390625 304.750976562 c 0,12,13
 57 314.647460938 57 314.647460938 57 340.829101562 c 2,14,-1
 57 345.829101562 l 1,15,-1
 57 353.829101562 l 2,16,17
 57 354.486328125 57 354.486328125 57.076171875 354.765625 c 0,18,19
 60.3701171875 376.194335938 60.3701171875 376.194335938 72.63671875 396.65625 c 1,20,-1
 77.46484375 405.536132812 l 1,21,-1
 77.9033203125 406.340820312 l 1,22,23
 82.306640625 412.678710938 82.306640625 412.678710938 85.9892578125 422.211914062 c 1,24,-1
 86.46484375 423.087890625 l 2,25,26
 91.46484375 432.283203125 91.46484375 432.283203125 91.568359375 432.469726562 c 0,27,28
 104.346679688 455.260742188 104.346679688 455.260742188 119.6484375 468.100585938 c 0,0,1
206.76171875 210.623046875 m 0,29,30
 206.76171875 156.944335938 206.76171875 156.944335938 177.635742188 89.744140625 c 0,31,32
 153.193359375 33.3515625 153.193359375 33.3515625 113.580078125 -13.439453125 c 0,33,34
 106.564453125 -21.6650390625 106.564453125 -21.6650390625 98.1015625 -28.765625 c 128,-1,35
 89.6396484375 -35.8671875 89.6396484375 -35.8671875 79.8896484375 -39.498046875 c 0,36,37
 62.8232421875 -45.8544921875 62.8232421875 -45.8544921875 58.1953125 -32.560546875 c 0,38,39
 52.6591796875 -19.3740234375 52.6591796875 -19.3740234375 60.494140625 3.4296875 c 0,40,41
 68.4150390625 26.4833984375 68.4150390625 26.4833984375 85.521484375 46.5400390625 c 0,42,43
 97.8017578125 60.3525390625 97.8017578125 60.3525390625 107.46875 83.6552734375 c 0,44,45
 119.400390625 112.416015625 119.400390625 112.416015625 119.400390625 136.668945312 c 0,46,47
 119.400390625 150.565429688 119.400390625 150.565429688 113.458007812 157.111328125 c 0,48,49
 108.33984375 163.90625 108.33984375 163.90625 96.419921875 158.161132812 c 0,50,51
 79.4150390625 149.560546875 79.4150390625 149.560546875 71.494140625 159.322265625 c 0,52,53
 66.9169921875 164.962890625 66.9169921875 164.962890625 66.9169921875 173.336914062 c 128,-1,54
 66.9169921875 181.7109375 66.9169921875 181.7109375 69.2265625 190.579101562 c 0,55,56
 74.884765625 213.43359375 74.884765625 213.43359375 91.8896484375 235.638671875 c 0,57,58
 101.639648438 248.369140625 101.639648438 248.369140625 110.1015625 255.469726562 c 128,-1,59
 118.564453125 262.5703125 118.564453125 262.5703125 125.580078125 266.119140625 c 0,60,61
 169.520507812 288.342773438 169.520507812 288.342773438 192.501953125 262.70703125 c 1,62,63
 206.76171875 243.63671875 206.76171875 243.63671875 206.76171875 210.623046875 c 0,29,30
EndSplineSet
EndChar

StartChar: less
Encoding: 60 60 31
AltUni2: 00ff1c.ffffffff.0 00fe64.ffffffff.0 003008.ffffffff.0 002329.ffffffff.0 002039.ffffffff.0 00ff1c.ffffffff.0 00fe64.ffffffff.0 003008.ffffffff.0 002329.ffffffff.0 002039.ffffffff.0
Width: 390
GlyphClass: 1
Flags: HW
LayerCount: 2
Fore
SplineSet
314.737304688 377.318359375 m 0,0,1
 350.827148438 377.879882812 350.827148438 377.879882812 350.827148438 347.604492188 c 0,2,3
 350.827148438 332.950195312 350.827148438 332.950195312 344.56640625 315.078125 c 0,4,5
 337.729492188 292.469726562 337.729492188 292.469726562 320.302734375 271.100585938 c 0,6,7
 312.282226562 261.266601562 312.282226562 261.266601562 303.8203125 254.166015625 c 128,-1,8
 295.358398438 247.06640625 295.358398438 247.06640625 286.840820312 244.177734375 c 0,9,10
 260.8515625 234.844726562 260.8515625 234.844726562 260.8515625 261.10546875 c 0,11,12
 260.8515625 261.909179688 260.8515625 261.909179688 260.876953125 262.7421875 c 2,13,-1
 258.46484375 262.342773438 l 2,14,15
 255.182617188 262.87109375 255.182617188 262.87109375 243.934570312 261.736328125 c 0,16,17
 216.461914062 260.051757812 216.461914062 260.051757812 208.013671875 264.525390625 c 0,18,19
 193.02734375 270.92578125 193.02734375 270.92578125 142.244140625 289.055664062 c 1,20,-1
 92.3359375 301.078125 l 2,21,22
 65.9306640625 307.358398438 65.9306640625 307.358398438 56.6552734375 316.064453125 c 0,23,24
 43.2001953125 328.321289062 43.2001953125 328.321289062 43.2001953125 353.329101562 c 0,25,26
 43.2001953125 359.584960938 43.2001953125 359.584960938 44.0439453125 366.623046875 c 2,27,-1
 44.0625 366.767578125 l 2,28,29
 48.2666015625 396.567382812 48.2666015625 396.567382812 71.0732421875 444.732421875 c 0,30,31
 86.2568359375 476.704101562 86.2568359375 476.704101562 121.53125 541.577148438 c 1,32,33
 177.481445312 640.479492188 177.481445312 640.479492188 309.389648438 883.069335938 c 0,34,35
 321.861328125 907.07421875 321.861328125 907.07421875 340.5 922.713867188 c 128,-1,36
 359.069335938 938.294921875 359.069335938 938.294921875 371.53515625 936.290039062 c 0,37,38
 384.520507812 934.200195312 384.520507812 934.200195312 384.521484375 915.65234375 c 128,-1,39
 384.521484375 897.104492188 384.521484375 897.104492188 372.583007812 875.1484375 c 0,40,41
 333.491210938 802.168945312 333.491210938 802.168945312 261.48046875 671.77734375 c 128,-1,42
 189.469726562 541.385742188 189.469726562 541.385742188 183.471679688 530.354492188 c 0,43,44
 154.837890625 478.680664062 154.837890625 478.680664062 140.015625 448.497070312 c 0,45,46
 138.116210938 444.03515625 138.116210938 444.03515625 132.778320312 430.66015625 c 0,47,48
 132.342773438 428.6015625 132.342773438 428.6015625 131.094726562 426.075195312 c 0,49,50
 131.2578125 425.8046875 131.2578125 425.8046875 131.911132812 425.044921875 c 128,-1,51
 132.565429688 424.286132812 132.565429688 424.286132812 132.823242188 423.25 c 0,52,53
 139.04296875 419.484375 139.04296875 419.484375 156.708007812 413.848632812 c 0,54,55
 203.361328125 403.8203125 203.361328125 403.8203125 207.776367188 402.62109375 c 0,56,57
 240.860351562 392.28515625 240.860351562 392.28515625 276.939453125 376.458007812 c 0,58,59
 281.16796875 374.158203125 281.16796875 374.158203125 297.768554688 377.020507812 c 0,60,61
 300.56640625 377.279296875 300.56640625 377.279296875 306.6953125 376.973632812 c 128,-1,62
 312.823242188 376.668945312 312.823242188 376.668945312 314.737304688 377.318359375 c 0,0,1
260.482421875 669.985351562 m 1,63,-1
 260.482421875 669.985351562 l 1,63,-1
EndSplineSet
Substitution2: "'rtla' Right to Left Alternates lookup 0 subtable" greater
EndChar

StartChar: equal
Encoding: 61 61 32
AltUni2: 00ff1d.ffffffff.0 00fe66.ffffffff.0 00208c.ffffffff.0 00207c.ffffffff.0 00ff1d.ffffffff.0 00fe66.ffffffff.0 00208c.ffffffff.0 00207c.ffffffff.0
Width: 546
GlyphClass: 1
Flags: HW
LayerCount: 2
Fore
SplineSet
119.361328125 513.239257812 m 0,0,1
 120.80078125 514.447265625 120.80078125 514.447265625 122.2578125 515.580078125 c 0,2,3
 296.999023438 655.217773438 296.999023438 655.217773438 492.740234375 827.451171875 c 0,4,5
 494.198242188 828.764648438 494.198242188 828.764648438 495.638671875 829.973632812 c 0,6,7
 511.943359375 843.655273438 511.943359375 843.655273438 524.904296875 842.649414062 c 0,8,9
 539.080078125 841.549804688 539.080078125 841.549804688 539.081054688 823.475585938 c 128,-1,10
 539.083007812 805.401367188 539.083007812 805.401367188 527.203125 782.471679688 c 128,-1,11
 515.322265625 759.541992188 515.322265625 759.541992188 497.31640625 743.307617188 c 2,12,-1
 497.204101562 743.208007812 l 1,13,14
 298.0078125 568.0546875 298.0078125 568.0546875 118.801757812 424.690429688 c 1,15,-1
 118.68359375 424.59765625 l 2,16,17
 100.739257812 410.662109375 100.739257812 410.662109375 88.38671875 413.2109375 c 128,-1,18
 76 415.766601562 76 415.766601562 76 433.771484375 c 2,19,-1
 76.0087890625 434.076171875 l 2,20,21
 77.126953125 454.032226562 77.126953125 454.032226562 90.091796875 476.794921875 c 128,-1,22
 103.056640625 499.557617188 103.056640625 499.557617188 119.361328125 513.239257812 c 0,0,1
81 228.966796875 m 128,-1,24
 81 246.971679688 81 246.971679688 93.38671875 270.315429688 c 128,-1,25
 105.739257812 293.594726562 105.739257812 293.594726562 123.68359375 309.7734375 c 2,26,-1
 123.90234375 309.965820312 l 1,27,28
 384.817382812 533.897460938 384.817382812 533.897460938 494.68359375 632.079101562 c 0,29,30
 496.169921875 633.418945312 496.169921875 633.418945312 497.635742188 634.649414062 c 0,31,32
 513.962890625 648.349609375 513.962890625 648.349609375 526.352539062 646.89453125 c 128,-1,33
 538.741210938 645.440429688 538.741210938 645.440429688 540.9609375 629.545898438 c 2,34,-1
 540.98046875 629.408203125 l 2,35,36
 541.083007812 627.852539062 541.083007812 627.852539062 541.083007812 626.383789062 c 0,37,38
 541.083007812 610.079101562 541.083007812 610.079101562 529.203125 587.149414062 c 128,-1,39
 517.322265625 564.220703125 517.322265625 564.220703125 499.271484375 547.9453125 c 0,40,41
 387.205078125 447.907226562 387.205078125 447.907226562 126.1953125 223.893554688 c 0,42,43
 124.743164062 222.592773438 124.743164062 222.592773438 123.315429688 221.393554688 c 0,44,45
 106.010742188 206.873046875 106.010742188 206.873046875 93.5048828125 208.885742188 c 128,-1,23
 81 210.897460938 81 210.897460938 81 228.966796875 c 128,-1,24
EndSplineSet
EndChar

StartChar: greater
Encoding: 62 62 33
AltUni2: 00ff1e.ffffffff.0 00fe65.ffffffff.0 003009.ffffffff.0 00232a.ffffffff.0 00203a.ffffffff.0 00ff1e.ffffffff.0 00fe65.ffffffff.0 003009.ffffffff.0 00232a.ffffffff.0 00203a.ffffffff.0
Width: 361
GlyphClass: 1
Flags: HW
LayerCount: 2
Fore
SplineSet
355.841796875 615.173828125 m 0,0,1
 355.841796875 592.4375 355.841796875 592.4375 344.5078125 561.59765625 c 0,2,3
 332.080078125 527.784179688 332.080078125 527.784179688 310.716796875 485.379882812 c 2,4,-1
 301.891601562 468.16796875 l 1,5,6
 293.822265625 450.32421875 293.822265625 450.32421875 282.307617188 427.14453125 c 128,-1,7
 270.786132812 403.951171875 270.786132812 403.951171875 265.790039062 393.764648438 c 0,8,9
 234.95703125 332.0859375 234.95703125 332.0859375 205.114257812 264.26953125 c 0,10,11
 195.727539062 242.834960938 195.727539062 242.834960938 171.290039062 201.965820312 c 0,12,13
 163.416015625 188.46875 163.416015625 188.46875 160.502929688 183.110351562 c 128,-1,14
 157.588867188 177.751953125 157.588867188 177.751953125 156.124023438 175.459960938 c 0,15,16
 156.142578125 174.719726562 156.142578125 174.719726562 156.142578125 173.973632812 c 0,17,18
 156.142578125 144.963867188 156.142578125 144.963867188 128.953125 111.59765625 c 0,19,20
 111.962890625 89.484375 111.962890625 89.484375 95.609375 83.0927734375 c 0,21,22
 78.5576171875 76.4287109375 78.5576171875 76.4287109375 71.35546875 87.0205078125 c 0,23,24
 66.8330078125 94.53125 66.8330078125 94.53125 66.8330078125 108.3359375 c 128,-1,25
 66.8330078125 122.141601562 66.8330078125 122.141601562 75.55859375 145.700195312 c 0,26,27
 83.990234375 169.599609375 83.990234375 169.599609375 99.6611328125 195.356445312 c 0,28,29
 109.5390625 213.49609375 109.5390625 213.49609375 115.047851562 222.571289062 c 0,30,31
 129.397460938 245.134765625 129.397460938 245.134765625 133.928710938 255.28125 c 0,32,33
 171.596679688 339.624023438 171.596679688 339.624023438 208.665039062 415.047851562 c 0,34,35
 221.6171875 441.40234375 221.6171875 441.40234375 243.21484375 485.346679688 c 0,36,37
 261.729492188 522.319335938 261.729492188 522.319335938 265.658203125 534.456054688 c 0,38,39
 267.696289062 538.883789062 267.696289062 538.883789062 267.952148438 541.092773438 c 0,40,41
 260.774414062 553.495117188 260.774414062 553.495117188 219.403320312 561.62890625 c 1,42,-1
 219.202148438 561.681640625 l 1,43,44
 189.317382812 571.470703125 189.317382812 571.470703125 149.38671875 577.895507812 c 0,45,46
 135.931640625 580.671875 135.931640625 580.671875 47.255859375 603.338867188 c 0,47,48
 35.9169921875 606.237304688 35.9169921875 606.237304688 35.9169921875 622.499023438 c 0,49,50
 35.9169921875 642.342773438 35.9169921875 642.342773438 49.486328125 666.16796875 c 128,-1,51
 63.056640625 689.994140625 63.056640625 689.994140625 79.361328125 703.674804688 c 0,52,53
 99.2041015625 720.325195312 99.2041015625 720.325195312 112.745117188 716.916015625 c 0,54,55
 166.698242188 701.241210938 166.698242188 701.241210938 212.53515625 691.873046875 c 0,56,57
 253.620117188 685.26171875 253.620117188 685.26171875 283.721679688 675.41015625 c 0,58,59
 317.7578125 667.801757812 317.7578125 667.801757812 330.119140625 660.836914062 c 0,60,61
 355.841796875 645.122070312 355.841796875 645.122070312 355.841796875 615.173828125 c 0,0,1
EndSplineSet
Substitution2: "'rtla' Right to Left Alternates lookup 0 subtable" less
EndChar

StartChar: question
Encoding: 63 63 34
AltUni2: 00ff1f.ffffffff.0 00fe56.ffffffff.0 00fe16.ffffffff.0 00ff1f.ffffffff.0 00fe56.ffffffff.0 00fe16.ffffffff.0
Width: 464
GlyphClass: 1
Flags: HW
LayerCount: 2
Fore
SplineSet
210.233398438 230.709960938 m 0,0,1
 233.706054688 280.756835938 233.706054688 280.756835938 263.647460938 305.880859375 c 0,2,3
 278.014648438 317.935546875 278.014648438 317.935546875 290.009765625 322.92578125 c 0,4,5
 316.763671875 333.603515625 316.763671875 333.603515625 325.56640625 319.23046875 c 0,6,7
 338.567382812 303.942382812 338.567382812 303.942382812 324.438476562 265.931640625 c 0,8,9
 311.630859375 229.651367188 311.630859375 229.651367188 275.090820312 182.286132812 c 0,10,11
 252.649414062 153.098632812 252.649414062 153.098632812 236.279296875 139.361328125 c 0,12,13
 218.317382812 124.290039062 218.317382812 124.290039062 206.659179688 119.989257812 c 0,14,15
 177.743164062 111.087890625 177.743164062 111.087890625 177.743164062 139.487304688 c 0,16,17
 177.743164062 166.625976562 177.743164062 166.625976562 198.26171875 207.681640625 c 0,18,19
 206.143554688 223.161132812 206.143554688 223.161132812 210.233398438 230.709960938 c 0,0,1
84.6796875 565.01171875 m 0,20,21
 84.6796875 567.783203125 84.6796875 567.783203125 85.0322265625 570.921875 c 0,22,23
 91.2158203125 635.703125 91.2158203125 635.703125 140.349609375 731.182617188 c 0,24,25
 185.107421875 816.548828125 185.107421875 816.548828125 243.193359375 888.7265625 c 0,26,27
 284.573242188 939.505859375 284.573242188 939.505859375 320.173828125 969.37890625 c 0,28,29
 343.62109375 989.052734375 343.62109375 989.052734375 364.525390625 999.63671875 c 0,30,31
 432.116210938 1035.52539062 432.116210938 1035.52539062 452.841796875 976.23046875 c 0,32,33
 459.095703125 957.24609375 459.095703125 957.24609375 459.095703125 931.827148438 c 0,34,35
 459.095703125 865.958984375 459.095703125 865.958984375 415.361328125 752.083007812 c 0,36,37
 406.317382812 728.41796875 406.317382812 728.41796875 382.375976562 669.421875 c 128,-1,38
 358.43359375 610.424804688 358.43359375 610.424804688 354.469726562 598.178710938 c 0,39,40
 334.662109375 546.896484375 334.662109375 546.896484375 327.482421875 514.203125 c 0,41,42
 326.58984375 508.365234375 326.58984375 508.365234375 325.745117188 504.751953125 c 128,-1,43
 324.819335938 501.19921875 324.819335938 501.19921875 323.33984375 493.544921875 c 2,44,-1
 317.8515625 467.494140625 l 1,45,-1
 317.71875 466.854492188 l 2,46,47
 316.21875 462.595703125 316.21875 462.595703125 315.032226562 456.850585938 c 128,-1,48
 313.844726562 451.10546875 313.844726562 451.10546875 312.944335938 448.34765625 c 0,49,50
 312.416015625 442.000976562 312.416015625 442.000976562 309.017578125 435.276367188 c 0,51,52
 302.760742188 419.7265625 302.760742188 419.7265625 296.182617188 409.64453125 c 0,53,54
 286.987304688 393.020507812 286.987304688 393.020507812 269.314453125 375.982421875 c 1,55,56
 247.802734375 357.931640625 247.802734375 357.931640625 235.317382812 362.068359375 c 0,57,58
 229.831054688 363.0078125 229.831054688 363.0078125 225.3671875 368.190429688 c 1,59,60
 221 377.626953125 221 377.626953125 221 398.33984375 c 128,-1,61
 221 419.051757812 221 419.051757812 238.5859375 447.161132812 c 1,62,-1
 243.1484375 469.241210938 l 2,63,64
 252.424804688 512.180664062 252.424804688 512.180664062 277.638671875 576.413085938 c 0,65,66
 286.663085938 600.02734375 286.663085938 600.02734375 308.725585938 655.646484375 c 0,67,68
 350.4609375 759.23046875 350.4609375 759.23046875 360.58203125 795.879882812 c 128,-1,69
 370.704101562 832.529296875 370.704101562 832.529296875 370.704101562 857.278320312 c 0,70,71
 370.704101562 871.689453125 370.704101562 871.689453125 367.1484375 881.859375 c 0,72,73
 359.827148438 905.002929688 359.827148438 905.002929688 338.498046875 894.262695312 c 0,74,75
 329.833007812 889.545898438 329.833007812 889.545898438 319.765625 881.09765625 c 0,76,77
 300.389648438 864.83984375 300.389648438 864.83984375 275.852539062 834.822265625 c 0,78,79
 235.920898438 784.743164062 235.920898438 784.743164062 206.37890625 727.5078125 c 128,-1,80
 176.836914062 670.271484375 176.836914062 670.271484375 172.98046875 635.6796875 c 0,81,82
 171.788085938 616.588867188 171.788085938 616.588867188 158.317382812 594.404296875 c 128,-1,83
 144.845703125 572.219726562 144.845703125 572.219726562 130.04296875 559.798828125 c 0,84,85
 107.678710938 541.033203125 107.678710938 541.033203125 94.6083984375 546.248046875 c 0,86,87
 84.6796875 550.208984375 84.6796875 550.208984375 84.6796875 565.01171875 c 0,20,21
EndSplineSet
EndChar

StartChar: at
Encoding: 64 64 35
AltUni2: 00ff20.ffffffff.0 00fe6b.ffffffff.0 00ff20.ffffffff.0 00fe6b.ffffffff.0
Width: 537
GlyphClass: 1
Flags: HW
LayerCount: 2
Fore
SplineSet
299.973632812 595.188476562 m 0,0,1
 298.10546875 577.73828125 298.10546875 577.73828125 298.10546875 558.817382812 c 128,-1,2
 298.10546875 539.897460938 298.10546875 539.897460938 304.134765625 528.169921875 c 1,3,4
 305.500976562 530.540039062 305.500976562 530.540039062 308.591796875 536.412109375 c 128,-1,5
 311.682617188 542.284179688 311.682617188 542.284179688 312.764648438 543.728515625 c 0,6,7
 319.12109375 560.381835938 319.12109375 560.381835938 320.067382812 587.099609375 c 0,8,9
 321.1953125 618.950195312 321.1953125 618.950195312 324.10546875 637.979492188 c 0,10,11
 328.76953125 664.284179688 328.76953125 664.284179688 336.012695312 691.048828125 c 1,12,13
 328.9453125 689.920898438 328.9453125 689.920898438 325.490234375 688.091796875 c 0,14,15
 324.9765625 687.594726562 324.9765625 687.594726562 324.3984375 686.530273438 c 0,16,17
 304.799804688 653.287109375 304.799804688 653.287109375 299.973632812 595.188476562 c 0,0,1
488.479492188 647.293945312 m 0,18,19
 468.2421875 611.616210938 468.2421875 611.616210938 441.086914062 588.830078125 c 128,-1,20
 413.931640625 566.043945312 413.931640625 566.043945312 390.141601562 567.401367188 c 1,21,22
 383.340820312 550.293945312 383.340820312 550.293945312 381.036132812 545.875 c 128,-1,23
 378.732421875 541.456054688 378.732421875 541.456054688 376.732421875 537.278320312 c 128,-1,24
 374.732421875 533.099609375 374.732421875 533.099609375 373.53515625 530.8984375 c 0,25,26
 335.104492188 460.220703125 335.104492188 460.220703125 300.064453125 430.783203125 c 0,27,28
 299.0078125 429.87109375 299.0078125 429.87109375 297.9609375 428.993164062 c 0,29,30
 256.553710938 394.249023438 256.553710938 394.249023438 233.716796875 414.532226562 c 0,31,32
 210.270507812 433.666015625 210.270507812 433.666015625 210.270507812 493.567382812 c 0,33,34
 210.270507812 509.954101562 210.270507812 509.954101562 212.021484375 529.370117188 c 0,35,36
 220.205078125 625.231445312 220.205078125 625.231445312 266.650390625 704.458007812 c 0,37,38
 291.537109375 747.817382812 291.537109375 747.817382812 323.21875 774.401367188 c 0,39,40
 371.858398438 815.215820312 371.858398438 815.215820312 419.62109375 803.55078125 c 0,41,42
 432.764648438 800.778320312 432.764648438 800.778320312 432.764648438 785.388671875 c 0,43,44
 432.764648438 775.174804688 432.764648438 775.174804688 426.91796875 759.758789062 c 0,45,46
 426.295898438 753.52734375 426.295898438 753.52734375 424.206054688 749.1640625 c 0,47,48
 421 739.65625 421 739.65625 421 729.047851562 c 0,49,50
 421 704.646484375 421 704.646484375 435.528320312 688.82421875 c 1,51,52
 438.828125 707.4375 438.828125 707.4375 441.0078125 738.331054688 c 0,53,54
 443.994140625 794.5859375 443.994140625 794.5859375 444 814.48046875 c 0,55,56
 443.010742188 844.947265625 443.010742188 844.947265625 433.22265625 872.029296875 c 0,57,58
 423.845703125 891.111328125 423.845703125 891.111328125 384.854492188 877.4140625 c 0,59,60
 354.7578125 866.4921875 354.7578125 866.4921875 326.97265625 843.177734375 c 0,61,62
 317.309570312 835.069335938 317.309570312 835.069335938 302.900390625 820.169921875 c 128,-1,63
 288.491210938 805.271484375 288.491210938 805.271484375 281.028320312 795.810546875 c 1,64,-1
 280.174804688 795.094726562 l 2,65,66
 278.98828125 793.798828125 278.98828125 793.798828125 276.09765625 789.696289062 c 1,67,-1
 267.53515625 772.953125 l 1,68,69
 253.5 747.141601562 253.5 747.141601562 245.387695312 733.2265625 c 0,70,71
 180.568359375 615.9375 180.568359375 615.9375 163.883789062 522.44140625 c 0,72,73
 158.311523438 492.337890625 158.311523438 492.337890625 158.311523438 467.306640625 c 0,74,75
 158.311523438 421.946289062 158.311523438 421.946289062 176.62109375 393.11328125 c 0,76,77
 205.02734375 348.3828125 205.02734375 348.3828125 266.671875 359.990234375 c 0,78,79
 334.907226562 373.999023438 334.907226562 373.999023438 419.181640625 444.713867188 c 1,80,-1
 425.53125 450.143554688 l 2,81,82
 441.989257812 463.953125 441.989257812 463.953125 454.430664062 461.951171875 c 128,-1,83
 466.873046875 459.950195312 466.873046875 459.950195312 467.990234375 443.006835938 c 2,84,-1
 468 442.698242188 l 2,85,86
 468 424.693359375 468 424.693359375 455.61328125 401.349609375 c 128,-1,87
 443.25390625 378.057617188 443.25390625 378.057617188 424.297851562 361.037109375 c 2,88,-1
 424.088867188 360.853515625 l 2,89,90
 420.307617188 357.614257812 420.307617188 357.614257812 416.552734375 354.463867188 c 0,91,92
 305.596679688 261.360351562 305.596679688 261.360351562 219.314453125 246.809570312 c 0,93,94
 134.991210938 229.8984375 134.991210938 229.8984375 95.3916015625 291.1015625 c 0,95,96
 70.103515625 329.775390625 70.103515625 329.775390625 70.103515625 393.618164062 c 0,97,98
 70.103515625 427.184570312 70.103515625 427.184570312 77.1201171875 467.803710938 c 0,99,100
 100.438476562 591.799804688 100.438476562 591.799804688 184.674804688 745.702148438 c 1,101,102
 194.46484375 761.75 194.46484375 761.75 203.12890625 779.608398438 c 2,103,-1
 203.46484375 780.262695312 l 2,104,105
 211.112304688 794.327148438 211.112304688 794.327148438 212.213867188 796.90234375 c 128,-1,106
 213.314453125 799.477539062 213.314453125 799.477539062 215.516601562 802.9765625 c 128,-1,107
 217.717773438 806.475585938 217.717773438 806.475585938 218.54296875 807.991210938 c 0,108,109
 231.385742188 830.541015625 231.385742188 830.541015625 255.419921875 859.067382812 c 0,110,111
 258.887695312 863.1328125 258.887695312 863.1328125 269.385742188 874.3046875 c 128,-1,112
 279.884765625 885.475585938 279.884765625 885.475585938 294.2421875 900.795898438 c 128,-1,113
 308.599609375 916.116210938 308.599609375 916.116210938 328.049804688 932.4375 c 0,114,115
 373.686523438 970.73046875 373.686523438 970.73046875 423.231445312 988.608398438 c 0,116,117
 497.12890625 1013.66699219 497.12890625 1013.66699219 516.780273438 968.100585938 c 0,118,119
 531.25 933.213867188 531.25 933.213867188 531.25 876.958984375 c 0,120,121
 531.25 852.66015625 531.25 852.66015625 528.98828125 805.533203125 c 0,122,123
 522.859375 709.48046875 522.859375 709.48046875 488.479492188 647.293945312 c 0,18,19
EndSplineSet
EndChar

StartChar: A
Encoding: 65 65 36
AltUni2: 00ff21.ffffffff.0 001d2c.ffffffff.0 0013aa.ffffffff.0 000410.ffffffff.0 000391.ffffffff.0 00ff21.ffffffff.0 001d2c.ffffffff.0 0013aa.ffffffff.0 000410.ffffffff.0 000391.ffffffff.0
Width: 456
GlyphClass: 1
Flags: HW
LayerCount: 2
Fore
SplineSet
325.071289062 951.555664062 m 1,0,1
 275.903320312 868.557617188 275.903320312 868.557617188 232.232421875 750.893554688 c 128,-1,2
 188.563476562 633.244140625 188.563476562 633.244140625 161.856445312 506.620117188 c 0,3,4
 147.048828125 435.888671875 147.048828125 435.888671875 139.124023438 371.82421875 c 1,5,6
 188.919921875 434.955078125 188.919921875 434.955078125 241.556640625 508.211914062 c 128,-1,7
 294.194335938 581.469726562 294.194335938 581.469726562 357.055664062 682.073242188 c 1,8,9
 357.900390625 719.494140625 357.900390625 719.494140625 357.900390625 751.204101562 c 0,10,11
 357.900390625 827.138671875 357.900390625 827.138671875 353.026367188 870.1953125 c 0,12,13
 346.609375 936.884765625 346.609375 936.884765625 325.071289062 951.555664062 c 1,0,1
56.0380859375 187.5625 m 0,14,15
 56.0380859375 306.216796875 56.0380859375 306.216796875 89.14453125 462.99609375 c 0,16,17
 118.28125 604.734375 118.28125 604.734375 166.125 737.548828125 c 0,18,19
 216.6875 872.666015625 216.6875 872.666015625 279.611328125 975.575195312 c 0,20,21
 298.09765625 1005.6328125 298.09765625 1005.6328125 329 1031.56347656 c 0,22,23
 334.211914062 1035.9375 334.211914062 1035.9375 339.420898438 1039.80273438 c 0,24,25
 356.875 1053.37792969 356.875 1053.37792969 369.57421875 1053.01269531 c 0,26,27
 415.793945312 1045.4296875 415.793945312 1045.4296875 427.977539062 940.077148438 c 0,28,29
 432.900390625 892.365234375 432.900390625 892.365234375 432.900390625 807.326171875 c 0,30,31
 432.900390625 726.211914062 432.900390625 726.211914062 430.99609375 705.356445312 c 0,32,33
 430 642.192382812 430 642.192382812 430 603.5625 c 0,34,35
 430 565.221679688 430 565.221679688 430.989257812 551.3125 c 2,36,37
 430.993164062 551.580078125 430.993164062 551.580078125 430.998046875 551.008789062 c 1,38,39
 432.981445312 475.173828125 432.981445312 475.173828125 443.802734375 445.251953125 c 0,40,41
 448.419921875 434.625 448.419921875 434.625 440.3515625 415.131835938 c 0,42,43
 432.283203125 396.727539062 432.283203125 396.727539062 417.470703125 380.298828125 c 0,44,45
 412.028320312 374.278320312 412.028320312 374.278320312 404.721679688 368.147460938 c 128,-1,46
 397.416015625 362.017578125 397.416015625 362.017578125 388.905273438 359.327148438 c 0,47,48
 375.477539062 355.209960938 375.477539062 355.209960938 371.177734375 364.52734375 c 0,49,50
 357.008789062 403.766601562 357.008789062 403.766601562 356.000976562 485.71875 c 0,51,52
 355.5 506.803710938 355.5 506.803710938 355.5 532.260742188 c 128,-1,53
 355.5 557.78125 355.5 557.78125 355.86328125 585.9140625 c 1,54,55
 303.427734375 509.439453125 303.427734375 509.439453125 274.012695312 469.920898438 c 0,56,57
 194.234375 361.109375 194.234375 361.109375 131.8359375 287.717773438 c 1,58,59
 131.038085938 266.719726562 131.038085938 266.719726562 131.038085938 247.669921875 c 0,60,61
 131.038085938 171.719726562 131.038085938 171.719726562 147.780273438 132.967773438 c 0,62,63
 149.5234375 128.106445312 149.5234375 128.106445312 149.5234375 120.017578125 c 0,64,65
 149.5234375 113.918945312 149.5234375 113.918945312 144.856445312 103.053710938 c 0,66,67
 137.373046875 85.2578125 137.373046875 85.2578125 122.470703125 68.763671875 c 0,68,69
 116.5546875 62.201171875 116.5546875 62.201171875 109.364257812 56.16796875 c 128,-1,70
 102.172851562 50.1337890625 102.172851562 50.1337890625 94.1923828125 47.0341796875 c 0,71,72
 80.833984375 41.8544921875 80.833984375 41.8544921875 76.21875 50.958984375 c 0,73,74
 56.0380859375 99.208984375 56.0380859375 99.208984375 56.0380859375 187.5625 c 0,14,15
EndSplineSet
EndChar

StartChar: B
Encoding: 66 66 37
AltUni2: 00ff22.ffffffff.0 00212c.ffffffff.0 001d2e.ffffffff.0 0013f4.ffffffff.0 000412.ffffffff.0 000392.ffffffff.0 00ff22.ffffffff.0 00212c.ffffffff.0 001d2e.ffffffff.0 0013f4.ffffffff.0 000412.ffffffff.0 000392.ffffffff.0
Width: 472
GlyphClass: 1
Flags: HW
LayerCount: 2
Fore
SplineSet
301.069335938 754.815429688 m 1,0,1
 325.083007812 802.62109375 325.083007812 802.62109375 325.083007812 829.359375 c 0,2,3
 325.083007812 840.2578125 325.083007812 840.2578125 321.15625 847.831054688 c 0,4,5
 308.140625 873.143554688 308.140625 873.143554688 261.583007812 859.137695312 c 0,6,7
 221.880859375 846.3046875 221.880859375 846.3046875 177.405273438 808.986328125 c 0,8,9
 167.806640625 800.931640625 167.806640625 800.931640625 157.979492188 791.73046875 c 0,10,11
 155.896484375 788.8125 155.896484375 788.8125 150.53125 784.309570312 c 1,12,13
 143.583984375 658.390625 143.583984375 658.390625 143.411132812 528.90625 c 1,14,15
 157.600585938 544.879882812 157.600585938 544.879882812 166.899414062 556.708007812 c 128,-1,16
 176.197265625 568.53515625 176.197265625 568.53515625 178.939453125 571.091796875 c 0,17,18
 200.642578125 598.150390625 200.642578125 598.150390625 228.359375 632.162109375 c 0,19,20
 255.83984375 668.819335938 255.83984375 668.819335938 271.12890625 696.209960938 c 128,-1,21
 286.418945312 723.600585938 286.418945312 723.600585938 300.883789062 754.432617188 c 2,22,-1
 301.069335938 754.815429688 l 1,0,1
148.657226562 217.872070312 m 0,23,24
 149.670898438 200.294921875 149.670898438 200.294921875 149.706054688 176.345703125 c 1,25,26
 151.598632812 178.206054688 151.598632812 178.206054688 155.071289062 181.120117188 c 0,27,28
 155.483398438 181.465820312 155.483398438 181.465820312 176.2578125 202.85546875 c 128,-1,29
 197.033203125 224.245117188 197.033203125 224.245117188 200.635742188 227.34765625 c 0,30,31
 305.768554688 334.265625 305.768554688 334.265625 334.46484375 386.184570312 c 0,32,33
 365.237304688 441.8984375 365.237304688 441.8984375 365.237304688 478.737304688 c 0,34,35
 365.237304688 519.909179688 365.237304688 519.909179688 327.653320312 531.03515625 c 0,36,37
 288.384765625 540.747070312 288.384765625 540.747070312 237.09765625 516.272460938 c 0,38,39
 205.815429688 501.344726562 205.815429688 501.344726562 178.546875 478.463867188 c 0,40,41
 161.489257812 464.150390625 161.489257812 464.150390625 145.965820312 446.690429688 c 0,42,43
 143.782226562 444.553710938 143.782226562 444.553710938 143.408203125 444.165039062 c 0,44,45
 143.465820312 388.978515625 143.465820312 388.978515625 145.50390625 270.286132812 c 1,46,47
 146.545898438 259.794921875 146.545898438 259.794921875 147.586914062 239.3046875 c 2,48,49
 148.651367188 231.952148438 148.651367188 231.952148438 148.657226562 217.872070312 c 0,23,24
2.2685546875 668.23046875 m 0,50,51
 61.5400390625 784.390625 61.5400390625 784.390625 148.047851562 865.194335938 c 0,52,53
 173.326171875 888.56640625 173.326171875 888.56640625 177.341796875 891.935546875 c 128,-1,54
 181.358398438 895.305664062 181.358398438 895.305664062 181.483398438 895.411132812 c 0,55,56
 243.09375 947.107421875 243.09375 947.107421875 301.361328125 966.243164062 c 0,57,58
 374.130859375 987.35546875 374.130859375 987.35546875 395.756835938 940.62109375 c 0,59,60
 403.384765625 923.504882812 403.384765625 923.504882812 403.384765625 900.225585938 c 0,61,62
 403.384765625 847.950195312 403.384765625 847.950195312 364.982421875 765.234375 c 1,63,64
 364.889648438 770.041992188 364.889648438 770.041992188 364.797851562 764.850585938 c 1,65,66
 340.678710938 716.473632812 340.678710938 716.473632812 329.469726562 695.859375 c 0,67,68
 304.958984375 652.520507812 304.958984375 652.520507812 280.783203125 619.848632812 c 1,69,70
 341.512695312 643.73828125 341.512695312 643.73828125 383.723632812 631.318359375 c 0,71,72
 443.7421875 614.735351562 443.7421875 614.735351562 443.7421875 541.447265625 c 0,73,74
 443.7421875 473.259765625 443.7421875 473.259765625 389.53515625 376.323242188 c 0,75,76
 363.750976562 328.904296875 363.750976562 328.904296875 310.016601562 264.420898438 c 0,77,78
 277.086914062 225.663085938 277.086914062 225.663085938 215.306640625 162.663085938 c 0,79,80
 211.358398438 159.350585938 211.358398438 159.350585938 191.940429688 139.399414062 c 0,81,82
 188.733398438 134.48828125 188.733398438 134.48828125 178.650390625 124.510742188 c 128,-1,83
 168.567382812 114.534179688 168.567382812 114.534179688 166.004882812 112.303710938 c 0,84,85
 106.59765625 51.6533203125 106.59765625 51.6533203125 89.68359375 32.5361328125 c 0,86,87
 73.6630859375 12.349609375 73.6630859375 12.349609375 59.1982421875 7.7333984375 c 128,-1,88
 44.8837890625 3.1669921875 44.8837890625 3.1669921875 40.2529296875 15.1904296875 c 0,89,90
 34.623046875 25.333984375 34.623046875 25.333984375 41.4580078125 45.8779296875 c 128,-1,91
 48.33984375 66.564453125 48.33984375 66.564453125 65.130859375 86.6513671875 c 0,92,93
 65.4287109375 88.0048828125 65.4287109375 88.0048828125 65.4287109375 89.10546875 c 0,94,95
 65.4287109375 97.3447265625 65.4287109375 97.3447265625 69 108.0390625 c 1,96,97
 69 113.46875 69 113.46875 69 108.897460938 c 2,98,99
 69 130.756835938 69 130.756835938 68.0078125 147.784179688 c 2,100,101
 68.00390625 152.921875 68.00390625 152.921875 68 148.05859375 c 2,102,103
 68 160.744140625 68 160.744140625 67 167.905273438 c 1,104,105
 67 178.5625 67 178.5625 67 179.219726562 c 1,106,107
 66.7626953125 188.405273438 66.7626953125 188.405273438 66.525390625 187.58984375 c 1,108,109
 66.2626953125 192.89453125 66.2626953125 192.89453125 66 188.19921875 c 1,110,111
 66 193.790039062 66 193.790039062 66 189.380859375 c 1,112,113
 66 200.8515625 66 200.8515625 66 202.321289062 c 1,114,115
 60.1708984375 447.157226562 60.1708984375 447.157226562 67.5546875 678.568359375 c 1,116,117
 64.6572265625 678.045898438 64.6572265625 678.045898438 61.7607421875 667.525390625 c 1,118,119
 50.384765625 644.19140625 50.384765625 644.19140625 34.2646484375 630.662109375 c 128,-1,120
 18.14453125 617.133789062 18.14453125 617.133789062 6.7548828125 617.862304688 c 0,121,122
 -6.1064453125 617.455078125 -6.1064453125 617.455078125 -6.111328125 635.946289062 c 0,123,124
 -6.111328125 650.80859375 -6.111328125 650.80859375 2.2685546875 668.23046875 c 0,50,51
EndSplineSet
EndChar

StartChar: C
Encoding: 67 67 38
AltUni2: 00ff23.ffffffff.0 00a7f2.ffffffff.0 00216d.ffffffff.0 00212d.ffffffff.0 002102.ffffffff.0 0013df.ffffffff.0 000421.ffffffff.0 00ff23.ffffffff.0 00a7f2.ffffffff.0 00216d.ffffffff.0 00212d.ffffffff.0 002102.ffffffff.0 0013df.ffffffff.0 000421.ffffffff.0
Width: 521
GlyphClass: 1
Flags: HW
LayerCount: 2
Fore
SplineSet
224.58984375 187.09765625 m 0,0,1
 164.236328125 136.455078125 164.236328125 136.455078125 119.854492188 120.567382812 c 0,2,3
 62.4208984375 98.744140625 62.4208984375 98.744140625 62.4208984375 193.8671875 c 0,4,5
 62.4208984375 230.331054688 62.4208984375 230.331054688 70.0712890625 282.481445312 c 0,6,7
 93.189453125 436.137695312 93.189453125 436.137695312 165.474609375 644.801757812 c 0,8,9
 242.873046875 866.55078125 242.873046875 866.55078125 324.72265625 997.4765625 c 0,10,11
 368.1796875 1065.93945312 368.1796875 1065.93945312 407.799804688 1099.18457031 c 0,12,13
 418.014648438 1107.75585938 418.014648438 1107.75585938 427.19140625 1113.44433594 c 0,14,15
 478.657226562 1144.47265625 478.657226562 1144.47265625 507.6171875 1100.93847656 c 0,16,17
 510.380859375 1097.55078125 510.380859375 1097.55078125 510.380859375 1091.40234375 c 0,18,19
 510.380859375 1083.2734375 510.380859375 1083.2734375 507.079101562 1071.96679688 c 0,20,21
 500.651367188 1050.04296875 500.651367188 1050.04296875 486.791992188 1032.13183594 c 0,22,23
 479.430664062 1022.79003906 479.430664062 1022.79003906 472.125 1016.66015625 c 128,-1,24
 464.78515625 1010.50097656 464.78515625 1010.50097656 457.645507812 1007.72265625 c 0,25,26
 443.116210938 1002.13476562 443.116210938 1002.13476562 437.306640625 1014.421875 c 0,27,28
 430.655273438 1025.84863281 430.655273438 1025.84863281 420.319335938 1028.74511719 c 0,29,30
 413.211914062 1028.36523438 413.211914062 1028.36523438 405.969726562 1022.2890625 c 0,31,32
 394.037109375 1012.27636719 394.037109375 1012.27636719 374.52734375 980.65234375 c 2,33,34
 374.418945312 974.638671875 374.418945312 974.638671875 374.310546875 980.21484375 c 1,35,36
 307.014648438 874.502929688 307.014648438 874.502929688 236.09375 673.952148438 c 0,37,38
 166.80078125 476.877929688 166.80078125 476.877929688 143.924804688 331.790039062 c 0,39,40
 137.333007812 288.1328125 137.333007812 288.1328125 137.333007812 265.056640625 c 0,41,42
 137.333007812 242.939453125 137.333007812 242.939453125 138.940429688 231.370117188 c 0,43,44
 144.438476562 211.7734375 144.438476562 211.7734375 153.149414062 215.575195312 c 0,45,46
 181.939453125 226.439453125 181.939453125 226.439453125 225.53515625 263.020507812 c 0,47,48
 246.508789062 280.619140625 246.508789062 280.619140625 274.646484375 307.755859375 c 128,-1,49
 302.78515625 334.934570312 302.78515625 334.934570312 354.946289062 392.60546875 c 0,50,51
 357.24609375 394.783203125 357.24609375 394.783203125 358.54296875 396.127929688 c 128,-1,52
 359.838867188 397.436523438 359.838867188 397.436523438 361.211914062 398.983398438 c 0,53,54
 362.583007812 400.98828125 362.583007812 400.98828125 365.2109375 403.407226562 c 0,55,56
 366.915039062 405.673828125 366.915039062 405.673828125 369.063476562 407.6328125 c 0,57,58
 377.3046875 417.069335938 377.3046875 417.069335938 388.326171875 428.44921875 c 0,59,60
 398.916992188 439.490234375 398.916992188 439.490234375 407.122070312 448.364257812 c 128,-1,61
 415.326171875 457.400390625 415.326171875 457.400390625 419.665039062 461.041015625 c 0,62,63
 429.8515625 469.588867188 429.8515625 469.588867188 439.094726562 470.989257812 c 0,64,65
 452.399414062 472.954101562 452.399414062 472.954101562 455.872070312 458.774414062 c 0,66,67
 456.900390625 454.61328125 456.900390625 454.61328125 456.900390625 449.719726562 c 0,68,69
 456.900390625 440.895507812 456.900390625 440.895507812 451.274414062 428.168945312 c 0,70,71
 443.173828125 409.87890625 443.173828125 409.87890625 427.135742188 393.424804688 c 0,72,73
 415.172851562 380.384765625 415.172851562 380.384765625 404.857421875 369.264648438 c 128,-1,74
 394.541015625 358.225585938 394.541015625 358.225585938 388.893554688 351.3203125 c 1,75,-1
 387.879882812 350.469726562 l 2,76,77
 387.020507812 349.748046875 387.020507812 349.748046875 384.918945312 346.985351562 c 1,78,-1
 383.750976562 346.004882812 l 1,79,80
 383.225585938 350.064453125 383.225585938 350.064453125 382.700195312 344.123046875 c 1,81,-1
 380.526367188 342.299804688 l 2,82,83
 379.075195312 341.08203125 379.075195312 341.08203125 377.1953125 338.907226562 c 0,84,85
 317.047851562 274.192382812 317.047851562 274.192382812 284.579101562 242.172851562 c 128,-1,86
 252.111328125 210.190429688 252.111328125 210.190429688 224.58984375 187.09765625 c 0,0,1
EndSplineSet
EndChar

StartChar: D
Encoding: 68 68 39
AltUni2: 00ff24.ffffffff.0 00216e.ffffffff.0 002145.ffffffff.0 001d30.ffffffff.0 0013a0.ffffffff.0 00ff24.ffffffff.0 00216e.ffffffff.0 002145.ffffffff.0 001d30.ffffffff.0 0013a0.ffffffff.0
Width: 618
GlyphClass: 1
Flags: HW
LayerCount: 2
Fore
SplineSet
149.481445312 425.926757812 m 0,0,1
 137.114257812 289.525390625 137.114257812 289.525390625 137.114257812 213.490234375 c 0,2,3
 137.114257812 207.654296875 137.114257812 207.654296875 137.1875 202.178710938 c 0,4,5
 137.1875 167.208984375 137.1875 167.208984375 141.1328125 145.673828125 c 1,6,7
 289.533203125 336.6015625 289.533203125 336.6015625 359.262695312 469.818359375 c 0,8,9
 407.169921875 560.650390625 407.169921875 560.650390625 443.853515625 651.973632812 c 0,10,11
 489.36328125 762.62890625 489.36328125 762.62890625 507.17578125 842.888671875 c 0,12,13
 518.307617188 891.986328125 518.307617188 891.986328125 518.307617188 924.184570312 c 128,-1,14
 518.307617188 956.381835938 518.307617188 956.381835938 510.223632812 975.646484375 c 0,15,16
 491.771484375 1022.31738281 491.771484375 1022.31738281 423.122070312 1003.71289062 c 0,17,18
 395.315429688 995.856445312 395.315429688 995.856445312 328.596679688 947.256835938 c 0,19,20
 291.241210938 920.046875 291.241210938 920.046875 254.206054688 888.971679688 c 0,21,22
 226.92578125 866.080078125 226.92578125 866.080078125 199.81640625 840.666015625 c 1,23,-1
 199.737304688 839.719726562 l 1,24,25
 172.049804688 664.674804688 172.049804688 664.674804688 149.481445312 425.926757812 c 0,0,1
90.865234375 718.725585938 m 0,26,27
 80.546875 703.913085938 80.546875 703.913085938 79.931640625 699.754882812 c 2,28,29
 79.4033203125 694.022460938 79.4033203125 694.022460938 78.875 695.123046875 c 2,30,31
 78.875 693.685546875 78.875 693.685546875 81.509765625 691.216796875 c 0,32,33
 84.5 686.646484375 84.5 686.646484375 84.5 679.3671875 c 128,-1,34
 84.5 672.189453125 84.5 672.189453125 81.6904296875 662.34765625 c 0,35,36
 76.00390625 642.424804688 76.00390625 642.424804688 62.0166015625 623.787109375 c 0,37,38
 54.0888671875 614.126953125 54.0888671875 614.126953125 46.5849609375 607.831054688 c 128,-1,39
 39.080078125 601.533203125 39.080078125 601.533203125 31.919921875 597.879882812 c 0,40,41
 16.2294921875 589.875 16.2294921875 589.875 10.3662109375 599.88671875 c 0,42,43
 -5.333984375 622.919921875 -5.333984375 622.919921875 4.7548828125 661.250976562 c 0,44,45
 15.0576171875 700.393554688 15.0576171875 700.393554688 48.458984375 748.46875 c 0,46,47
 98.5908203125 819.702148438 98.5908203125 819.702148438 182.846679688 898.399414062 c 0,48,49
 218.787109375 932.241210938 218.787109375 932.241210938 258.448242188 965.521484375 c 128,-1,50
 298.110351562 998.80078125 298.110351562 998.80078125 341.6171875 1030.11425781 c 0,51,52
 422.2421875 1088.25976562 422.2421875 1088.25976562 463.155273438 1099.38183594 c 0,53,54
 557.211914062 1124.98632812 557.211914062 1124.98632812 584.78125 1058.37304688 c 0,55,56
 596.020507812 1031.609375 596.020507812 1031.609375 596.020507812 988.918945312 c 0,57,58
 596.020507812 877.719726562 596.020507812 877.719726562 512.26953125 669.59765625 c 0,59,60
 467.7734375 560.704101562 467.7734375 560.704101562 418.182617188 469.404296875 c 0,61,62
 327.327148438 297.833984375 327.327148438 297.833984375 149.421875 76.18359375 c 1,63,64
 138.482421875 55.9140625 138.482421875 55.9140625 124.803710938 44.4365234375 c 0,65,66
 123.1484375 43.0478515625 123.1484375 43.0478515625 121.462890625 41.798828125 c 0,67,68
 67.1005859375 -25.5732421875 67.1005859375 -25.5732421875 21.3173828125 -75.9365234375 c 0,69,70
 5.2626953125 -93.97265625 5.2626953125 -93.97265625 -9.0673828125 -97.3994140625 c 128,-1,71
 -23.33203125 -100.809570312 -23.33203125 -100.809570312 -26.8427734375 -88.7763671875 c 0,72,73
 -28.4541015625 -84.4306640625 -28.4541015625 -84.4306640625 -28.4541015625 -76.794921875 c 128,-1,74
 -28.4541015625 -69.16015625 -28.4541015625 -69.16015625 -23.322265625 -56.0556640625 c 0,75,76
 -15.3056640625 -35.5869140625 -15.3056640625 -35.5869140625 0.6826171875 -17.6025390625 c 0,77,78
 31.4951171875 16.6552734375 31.4951171875 16.6552734375 65.8359375 57.3876953125 c 1,79,80
 65.0224609375 64.2763671875 65.0224609375 64.2763671875 64.2099609375 61.3701171875 c 1,81,82
 64.1328125 66.5 64.1328125 66.5 64.056640625 61.9150390625 c 1,83,84
 57.7646484375 97.61328125 57.7646484375 97.61328125 57.7646484375 168.787109375 c 128,-1,85
 57.7646484375 239.9609375 57.7646484375 239.9609375 71.021484375 367.94140625 c 0,86,87
 87.6513671875 557.565429688 87.6513671875 557.565429688 115.420898438 749.9453125 c 1,88,89
 101.44140625 733.754882812 101.44140625 733.754882812 90.865234375 718.725585938 c 0,26,27
EndSplineSet
EndChar

StartChar: E
Encoding: 69 69 40
AltUni2: 00ff25.ffffffff.0 002130.ffffffff.0 001d31.ffffffff.0 0013ac.ffffffff.0 000415.ffffffff.0 000395.ffffffff.0 00ff25.ffffffff.0 002130.ffffffff.0 001d31.ffffffff.0 0013ac.ffffffff.0 000415.ffffffff.0 000395.ffffffff.0
Width: 525
GlyphClass: 1
Flags: HW
LayerCount: 2
Fore
SplineSet
103.130859375 102.606445312 m 0,0,1
 48.4462890625 122.641601562 48.4462890625 122.641601562 48.4462890625 248.375976562 c 0,2,3
 48.4462890625 276.703125 48.4462890625 276.703125 50.552734375 306.052734375 c 1,4,5
 50.0224609375 305.59375 50.0224609375 305.59375 49.49609375 305.15234375 c 0,6,7
 33.79296875 291.975585938 33.79296875 291.975585938 23.396484375 295.189453125 c 0,8,9
 11 296.0859375 11 296.0859375 11 312.424804688 c 128,-1,10
 11 328.904296875 11 328.904296875 23.5732421875 349.797851562 c 0,11,12
 38.3916015625 377.798828125 38.3916015625 377.798828125 65.3955078125 422.458984375 c 1,13,14
 75.4111328125 486.608398438 75.4111328125 486.608398438 93.2099609375 561.12890625 c 0,15,16
 102.295898438 598.671875 102.295898438 598.671875 108.83984375 624.409179688 c 1,17,18
 86.689453125 616.440429688 86.689453125 616.440429688 86.689453125 639.778320312 c 0,19,20
 86.689453125 642.6328125 86.689453125 642.6328125 87.0361328125 646.004882812 c 0,21,22
 94.2734375 711.315429688 94.2734375 711.315429688 149.479492188 802.362304688 c 0,23,24
 191.94921875 870.657226562 191.94921875 870.657226562 262.205078125 950.201171875 c 0,25,26
 359.384765625 1063.5625 359.384765625 1063.5625 485.76171875 1172.59863281 c 0,27,28
 487.20703125 1173.91015625 487.20703125 1173.91015625 488.634765625 1175.109375 c 0,29,30
 502.924804688 1187.09960938 502.924804688 1187.09960938 514.389648438 1186.34667969 c 128,-1,31
 525.854492188 1185.78417969 525.854492188 1185.78417969 526.989257812 1170.03613281 c 2,32,33
 526.994140625 1165.46289062 526.994140625 1165.46289062 527 1169.71386719 c 2,34,35
 527 1153.93945312 527 1153.93945312 515.53515625 1133.06445312 c 0,36,37
 504.21484375 1112.45507812 504.21484375 1112.45507812 488.360351562 1098.0390625 c 2,38,39
 488.2265625 1094.23339844 488.2265625 1094.23339844 488.09375 1097.80371094 c 1,40,41
 378.818359375 1004.16210938 378.818359375 1004.16210938 287.139648438 898.970703125 c 0,42,43
 258.944335938 867.034179688 258.944335938 867.034179688 238.223632812 839.657226562 c 0,44,45
 237.978515625 838.873046875 237.978515625 838.873046875 237.340820312 837.1328125 c 0,46,47
 204.337890625 745.8515625 204.337890625 745.8515625 170.24609375 605.536132812 c 0,48,49
 164.448242188 580.1796875 164.448242188 580.1796875 161.418945312 565.875976562 c 1,50,51
 238.530273438 668.155273438 238.530273438 668.155273438 338.5546875 770.987304688 c 0,52,53
 341.578125 774.018554688 341.578125 774.018554688 345.262695312 777.110351562 c 0,54,55
 358.095703125 787.877929688 358.095703125 787.877929688 370.334960938 790.034179688 c 128,-1,56
 382.57421875 792.189453125 382.57421875 792.189453125 386.124023438 779.939453125 c 0,57,58
 387.137695312 776.446289062 387.137695312 776.446289062 387.137695312 772.206054688 c 0,59,60
 387.137695312 761.555664062 387.137695312 761.555664062 380.793945312 746.559570312 c 0,61,62
 371.821289062 725.349609375 371.821289062 725.349609375 354.07421875 707.075195312 c 0,63,64
 222.670898438 571.57421875 222.670898438 571.57421875 137.853515625 441.666015625 c 1,65,66
 126.466796875 364.32421875 126.466796875 364.32421875 126.467773438 312.923828125 c 0,67,68
 126.467773438 216.602539062 126.467773438 216.602539062 164.090820312 203.579101562 c 0,69,70
 192.796875 193.66015625 192.796875 193.66015625 251.284179688 242.737304688 c 0,71,72
 283.969726562 270.1640625 283.969726562 270.1640625 324.673828125 315.250976562 c 0,73,74
 329.279296875 320.24609375 329.279296875 320.24609375 337.041015625 326.758789062 c 128,-1,75
 344.803710938 333.272460938 344.803710938 333.272460938 354.47265625 336.337890625 c 0,76,77
 368.676757812 340.840820312 368.676757812 340.840820312 374.66015625 329.716796875 c 0,78,79
 375.768554688 325.306640625 375.768554688 325.306640625 375.768554688 320.577148438 c 0,80,81
 375.768554688 309.35546875 375.768554688 309.35546875 369.981445312 294.9375 c 0,82,83
 361.590820312 274.036132812 361.590820312 274.036132812 344.916992188 256.5546875 c 0,84,85
 270.9921875 181.446289062 270.9921875 181.446289062 251.337890625 164.954101562 c 0,86,87
 250.729492188 164.443359375 250.729492188 164.443359375 250.173828125 163.989257812 c 0,88,89
 155.5 84.548828125 155.5 84.548828125 103.130859375 102.606445312 c 0,0,1
EndSplineSet
EndChar

StartChar: F
Encoding: 70 70 41
AltUni2: 00ff26.ffffffff.0 00a7f3.ffffffff.0 002131.ffffffff.0 00ff26.ffffffff.0 00a7f3.ffffffff.0 002131.ffffffff.0
Width: 551
GlyphClass: 1
Flags: HW
LayerCount: 2
Fore
SplineSet
60.3310546875 664.575195312 m 0,0,1
 57.5 669.466796875 57.5 669.466796875 57.5 676.802734375 c 128,-1,2
 57.5 684.139648438 57.5 684.139648438 60.3310546875 693.783203125 c 0,3,4
 66.0615234375 713.298828125 66.0615234375 713.298828125 80.9091796875 732.522460938 c 1,5,6
 92.3369140625 742.134765625 92.3369140625 742.134765625 103.765625 759.571289062 c 2,7,8
 106.833984375 764.114257812 106.833984375 764.114257812 111.05859375 769.744140625 c 0,9,10
 187.2578125 859.536132812 187.2578125 859.536132812 296.65234375 976.061523438 c 0,11,12
 391.125976562 1077.15527344 391.125976562 1077.15527344 455.828125 1131.44726562 c 0,13,14
 508.4375 1175.59179688 508.4375 1175.59179688 534.741210938 1179.8828125 c 0,15,16
 547.459960938 1182.42578125 547.459960938 1182.42578125 550.888671875 1169.30078125 c 0,17,18
 551.900390625 1165.43359375 551.900390625 1165.43359375 551.900390625 1160.87988281 c 0,19,20
 551.900390625 1149.12792969 551.900390625 1149.12792969 546.045898438 1135.25 c 0,21,22
 536.973632812 1115.16308594 536.973632812 1115.16308594 521.21484375 1098 c 0,23,24
 516.69921875 1093.08203125 516.69921875 1093.08203125 512.395507812 1089.47070312 c 0,25,26
 501.236328125 1080.10644531 501.236328125 1080.10644531 491.995117188 1079.83300781 c 1,27,28
 490.84765625 1074.37011719 490.84765625 1074.37011719 489.700195312 1078.90722656 c 1,29,-1
 489.295898438 1078.56835938 l 1,30,31
 482.295898438 1074.69433594 482.295898438 1074.69433594 477 1070.25097656 c 2,32,33
 476.8515625 1065.12988281 476.8515625 1065.12988281 476.702148438 1070.00976562 c 2,34,35
 468.350585938 1063.49316406 468.350585938 1063.49316406 458 1054.80761719 c 128,-1,36
 447.595703125 1046.07714844 447.595703125 1046.07714844 435.252929688 1035.23730469 c 0,37,38
 394.243164062 998.890625 394.243164062 998.890625 313.606445312 914.6875 c 0,39,40
 225.387695312 820.619140625 225.387695312 820.619140625 158.499023438 742.596679688 c 1,41,42
 157.858398438 737.331054688 157.858398438 737.331054688 157.422851562 729.7265625 c 0,43,44
 156.236328125 708.998046875 156.236328125 708.998046875 153.9765625 687.172851562 c 0,45,46
 147.991210938 612.846679688 147.991210938 612.846679688 144.975585938 588.583007812 c 0,47,48
 143.1484375 561.692382812 143.1484375 561.692382812 139.66796875 517.036132812 c 1,49,50
 244.600585938 647.244140625 244.600585938 647.244140625 403.932617188 780.939453125 c 0,51,52
 419.599609375 794.0859375 419.599609375 794.0859375 431.520507812 792.624023438 c 0,53,54
 443 790.790039062 443 790.790039062 443 774.220703125 c 128,-1,55
 443 757.575195312 443 757.575195312 431.423828125 736.8828125 c 0,56,57
 419.522460938 716.021484375 419.522460938 716.021484375 403.932617188 702.939453125 c 0,58,59
 225.6796875 553.368164062 225.6796875 553.368164062 133.826171875 423.098632812 c 1,60,61
 128.2734375 297.986328125 128.2734375 297.986328125 128.23046875 263.3046875 c 0,62,63
 128.23046875 155.109375 128.23046875 155.109375 142.8203125 115.171875 c 0,64,65
 143.947265625 111.515625 143.947265625 111.515625 143.947265625 103.622070312 c 128,-1,66
 143.947265625 95.728515625 143.947265625 95.728515625 138.899414062 82.1748046875 c 0,67,68
 131.408203125 62.05859375 131.408203125 62.05859375 115.920898438 44.474609375 c 0,69,70
 110.319335938 38.115234375 110.319335938 38.115234375 102.734375 31.75 c 128,-1,71
 95.1494140625 25.3857421875 95.1494140625 25.3857421875 86.0625 22.849609375 c 0,72,73
 71.7578125 18.8564453125 71.7578125 18.8564453125 67.177734375 31.0439453125 c 0,74,75
 49.9560546875 78.52734375 49.9560546875 78.52734375 49.9560546875 195.725585938 c 0,76,77
 49.9560546875 270.814453125 49.9560546875 270.814453125 58.4833984375 398.090820312 c 128,-1,78
 67.009765625 525.365234375 67.009765625 525.365234375 67.009765625 529.134765625 c 2,79,80
 72.822265625 592.274414062 72.822265625 592.274414062 78.634765625 659.787109375 c 1,81,82
 66.486328125 655.443359375 66.486328125 655.443359375 60.3310546875 664.575195312 c 0,0,1
EndSplineSet
EndChar

StartChar: G
Encoding: 71 71 42
AltUni2: 00ff27.ffffffff.0 001d33.ffffffff.0 0013c0.ffffffff.0 00ff27.ffffffff.0 001d33.ffffffff.0 0013c0.ffffffff.0
Width: 498
GlyphClass: 1
Flags: HW
LayerCount: 2
Fore
SplineSet
437.872070312 427.438476562 m 0,0,1
 434.399414062 409.677734375 434.399414062 409.677734375 421.094726562 390.5234375 c 0,2,3
 411.8515625 377.216796875 411.8515625 377.216796875 402.76171875 369.588867188 c 128,-1,4
 393.671875 361.961914062 393.671875 361.961914062 388.584960938 359.776367188 c 1,5,6
 382.202148438 349.817382812 382.202148438 349.817382812 378.423828125 344.749023438 c 0,7,8
 326.237304688 270.842773438 326.237304688 270.842773438 276.482421875 229.09375 c 0,9,10
 242.447265625 200.53515625 242.447265625 200.53515625 208.475585938 185.138671875 c 0,11,12
 38.5546875 111.364257812 38.5546875 111.364257812 38.5546875 271.36328125 c 0,13,14
 38.5546875 406.166992188 38.5546875 406.166992188 157.899414062 676.075195312 c 0,15,16
 256.015625 890.283203125 256.015625 890.283203125 356.4375 1047.04882812 c 0,17,18
 406.297851562 1126.92480469 406.297851562 1126.92480469 439 1154.36425781 c 0,19,20
 478.0546875 1187.13574219 478.0546875 1187.13574219 485.88671875 1154.77246094 c 0,21,22
 487.142578125 1150.43945312 487.142578125 1150.43945312 487.142578125 1144.06640625 c 0,23,24
 487.142578125 1126.86035156 487.142578125 1126.86035156 479.6171875 1101.02441406 c 0,25,26
 473.86328125 1082.5703125 473.86328125 1082.5703125 460.079101562 1064.77050781 c 0,27,28
 452.145507812 1054.52636719 452.145507812 1054.52636719 444.931640625 1048.47265625 c 128,-1,29
 437.71875 1042.42089844 437.71875 1042.42089844 431.334960938 1039.00195312 c 0,30,31
 417.458007812 1032.83496094 417.458007812 1032.83496094 410.9296875 1039.50878906 c 1,32,33
 405.146484375 1030.65527344 405.146484375 1030.65527344 401.916015625 1025.81640625 c 0,34,35
 311.946289062 883.703125 311.946289062 883.703125 222.177734375 687.778320312 c 0,36,37
 119.916015625 459.055664062 119.916015625 459.055664062 113.994140625 347.956054688 c 0,38,39
 113.735351562 342.325195312 113.735351562 342.325195312 113.735351562 337.059570312 c 0,40,41
 113.735351562 223.615234375 113.735351562 223.615234375 238.696289062 278.831054688 c 0,42,43
 258.349609375 287.938476562 258.349609375 287.938476562 274.594726562 301.569335938 c 0,44,45
 289.797851562 314.326171875 289.797851562 314.326171875 304.54296875 331.26171875 c 0,46,47
 327.494140625 357.080078125 327.494140625 357.080078125 374.600585938 427.7734375 c 1,48,49
 382.856445312 467.284179688 382.856445312 467.284179688 385 478.903320312 c 1,50,51
 385 482.0234375 385 482.0234375 385 479.529296875 c 1,52,53
 395.13671875 527.0390625 395.13671875 527.0390625 401.125976562 556.68359375 c 0,54,55
 411.286132812 611.165039062 411.286132812 611.165039062 411.286132812 631.759765625 c 0,56,57
 411.286132812 634.102539062 411.286132812 634.102539062 411.151367188 635.985351562 c 1,58,59
 393.928710938 620.35546875 393.928710938 620.35546875 348.91796875 566.36328125 c 0,60,61
 341.51171875 557.47265625 341.51171875 557.47265625 333.872070312 551.061523438 c 128,-1,62
 326.232421875 544.651367188 326.232421875 544.651367188 318.59375 541.530273438 c 0,63,64
 303.829101562 535.497070312 303.829101562 535.497070312 298.016601562 544.25 c 0,65,66
 295.043945312 549.017578125 295.043945312 549.017578125 295.043945312 556.225585938 c 128,-1,67
 295.043945312 563.467773438 295.043945312 563.467773438 298.04296875 573.028320312 c 0,68,69
 304.178710938 592.5859375 304.178710938 592.5859375 320.043945312 610.584960938 c 0,70,71
 397.908203125 699.250976562 397.908203125 699.250976562 413.23828125 712.114257812 c 0,72,73
 418.069335938 716.16796875 418.069335938 716.16796875 422.493164062 719.505859375 c 0,74,75
 477.45703125 760.309570312 477.45703125 760.309570312 484.956054688 708.46875 c 0,76,77
 485.841796875 702.654296875 485.841796875 702.654296875 485.841796875 694.473632812 c 0,78,79
 485.841796875 664.489257812 485.841796875 664.489257812 473.880859375 601.741210938 c 0,80,81
 469.86328125 580.529296875 469.86328125 580.529296875 437.872070312 427.438476562 c 0,0,1
EndSplineSet
EndChar

StartChar: H
Encoding: 72 72 43
AltUni2: 00ff28.ffffffff.0 00210d.ffffffff.0 00210c.ffffffff.0 00210b.ffffffff.0 001d34.ffffffff.0 0013bb.ffffffff.0 00041d.ffffffff.0 000397.ffffffff.0 00ff28.ffffffff.0 00210d.ffffffff.0 00210c.ffffffff.0 00210b.ffffffff.0 001d34.ffffffff.0 0013bb.ffffffff.0 00041d.ffffffff.0 000397.ffffffff.0
Width: 497
GlyphClass: 1
Flags: HW
LayerCount: 2
Fore
SplineSet
436.780273438 403.443359375 m 0,0,1
 438.5234375 398.599609375 438.5234375 398.599609375 438.5234375 390.374023438 c 0,2,3
 438.5234375 384.032226562 438.5234375 384.032226562 433.939453125 372.623046875 c 0,4,5
 426.443359375 353.814453125 426.443359375 353.814453125 410.374023438 336.34375 c 0,6,7
 404.370117188 329.783203125 404.370117188 329.783203125 396.765625 323.40234375 c 128,-1,8
 389.161132812 317.021484375 389.161132812 317.021484375 380.624023438 313.87890625 c 0,9,10
 365.994140625 308.44921875 365.994140625 308.44921875 360.774414062 316.912109375 c 0,11,12
 327.98828125 394.126953125 327.98828125 394.126953125 327.98828125 515.48828125 c 0,13,14
 327.98828125 550.948242188 327.98828125 550.948242188 330.747070312 590.114257812 c 1,15,16
 265.250976562 520.5625 265.250976562 520.5625 254.041992188 508.311523438 c 0,17,18
 190.676757812 440.249023438 190.676757812 440.249023438 149.256835938 387.678710938 c 0,19,20
 126.063476562 360.490234375 126.063476562 360.490234375 105.861328125 333.22265625 c 1,21,22
 103.025390625 272.310546875 103.025390625 272.310546875 103.997070312 234.578125 c 0,23,24
 107.1796875 137.154296875 107.1796875 137.154296875 133.348632812 116.969726562 c 0,25,26
 139.120117188 110.926757812 139.120117188 110.926757812 139.120117188 102.017578125 c 0,27,28
 139.120117188 80.0849609375 139.120117188 80.0849609375 117.439453125 51.576171875 c 0,29,30
 103.607421875 32.865234375 103.607421875 32.865234375 88.0791015625 23.90625 c 128,-1,31
 72.5849609375 14.923828125 72.5849609375 14.923828125 64.5830078125 21.2177734375 c 0,32,33
 31.0654296875 55.32421875 31.0654296875 55.32421875 25.0029296875 165.07421875 c 0,34,35
 24.5263671875 179.161132812 24.5263671875 179.161132812 24.5263671875 194.380859375 c 0,36,37
 24.5263671875 276.173828125 24.5263671875 276.173828125 36.291015625 375.625 c 0,38,39
 48.0556640625 474.59765625 48.0556640625 474.59765625 64.064453125 586.553710938 c 0,40,41
 67.1240234375 604.034179688 67.1240234375 604.034179688 80.08984375 683.505859375 c 128,-1,42
 93.0546875 763.142578125 93.0546875 763.142578125 95.0341796875 781.686523438 c 2,43,44
 95.0419921875 781.38671875 95.0419921875 781.38671875 95.05078125 781.76171875 c 2,45,46
 97.357421875 797.685546875 97.357421875 797.685546875 110.649414062 816.848632812 c 0,47,48
 121.1328125 832.04296875 121.1328125 832.04296875 133.1796875 842.151367188 c 0,49,50
 153.127929688 858.889648438 153.127929688 858.889648438 165.44921875 855.32421875 c 0,51,52
 173.670898438 852.9140625 173.670898438 852.9140625 173.670898438 841.313476562 c 0,53,54
 173.670898438 835.916992188 173.670898438 835.916992188 165.060546875 783.790039062 c 0,55,56
 156.450195312 732.526367188 156.450195312 732.526367188 149.65625 688.408203125 c 128,-1,57
 142.952148438 644.287109375 142.952148438 644.287109375 141.915039062 638.181640625 c 0,58,59
 121.771484375 506.931640625 121.771484375 506.931640625 113.03125 427.135742188 c 1,60,-1
 117.909179688 433.479492188 l 2,61,62
 162.115234375 490.033203125 162.115234375 490.033203125 233.7734375 567.01953125 c 0,63,64
 263.455078125 598.772460938 263.455078125 598.772460938 339.07421875 678.616210938 c 1,65,66
 357.193359375 832.173828125 357.193359375 832.173828125 413.310546875 1063.484375 c 1,67,68
 420.15625 1082.51953125 420.15625 1082.51953125 433.624023438 1100.35644531 c 0,69,70
 442.161132812 1111.54101562 442.161132812 1111.54101562 449.623046875 1117.80175781 c 0,71,72
 475.1640625 1139.23339844 475.1640625 1139.23339844 485.939453125 1130.24707031 c 0,73,74
 490.5234375 1126.53027344 490.5234375 1126.53027344 490.5234375 1120.18847656 c 0,75,76
 490.5234375 1111.9609375 490.5234375 1111.9609375 488.7890625 1104.23242188 c 0,77,78
 430.91796875 863.950195312 430.91796875 863.950195312 414.96875 710.642578125 c 0,79,80
 408.106445312 643.119140625 408.106445312 643.119140625 408.109375 586.689453125 c 0,81,82
 408.109375 472.07421875 408.109375 472.07421875 436.780273438 403.443359375 c 0,0,1
EndSplineSet
EndChar

StartChar: I
Encoding: 73 73 44
AltUni2: 00ff29.ffffffff.0 002160.ffffffff.0 002111.ffffffff.0 002110.ffffffff.0 001d35.ffffffff.0 0004c0.ffffffff.0 000406.ffffffff.0 000399.ffffffff.0 00ff29.ffffffff.0 002160.ffffffff.0 002111.ffffffff.0 002110.ffffffff.0 001d35.ffffffff.0 0004c0.ffffffff.0 000406.ffffffff.0 000399.ffffffff.0
Width: 212
GlyphClass: 1
Flags: HW
LayerCount: 2
Fore
SplineSet
103.33984375 49.36328125 m 0,0,1
 89.931640625 38.1123046875 89.931640625 38.1123046875 70.8515625 47.5068359375 c 0,2,3
 54.42578125 57.548828125 54.42578125 57.548828125 54.42578125 161.473632812 c 0,4,5
 54.42578125 251.9375 54.42578125 251.9375 68.00390625 440.627929688 c 0,6,7
 88.525390625 724.876953125 88.525390625 724.876953125 105.28515625 807.370117188 c 0,8,9
 109.775390625 827.38671875 109.775390625 827.38671875 114.749023438 835.258789062 c 0,10,11
 134.860351562 868.197265625 134.860351562 868.197265625 150.024414062 880.921875 c 0,12,13
 175.735351562 902.495117188 175.735351562 902.495117188 183.897460938 867.202148438 c 0,14,15
 184.022460938 867.209960938 184.022460938 867.209960938 184.022460938 867.059570312 c 0,16,17
 184.022460938 855.126953125 184.022460938 855.126953125 140.965820312 467.698242188 c 0,18,19
 132 383.465820312 132 383.465820312 132 127.760742188 c 0,20,21
 132 120.0546875 132 120.0546875 131.203125 114.572265625 c 1,22,23
 131.323242188 114.668945312 131.323242188 114.668945312 131.444335938 113.225585938 c 2,24,25
 131.444335938 109.54296875 131.444335938 109.54296875 125.673828125 91.57421875 c 0,26,27
 120.8359375 75.0419921875 120.8359375 75.0419921875 118.946289062 71.5078125 c 0,28,29
 117.056640625 68.5361328125 117.056640625 68.5361328125 116.34765625 67.6484375 c 0,30,31
 111.197265625 55.9560546875 111.197265625 55.9560546875 103.33984375 49.36328125 c 0,0,1
EndSplineSet
EndChar

StartChar: J
Encoding: 74 74 45
AltUni2: 00ff2a.ffffffff.0 001d36.ffffffff.0 0013ab.ffffffff.0 000408.ffffffff.0 00ff2a.ffffffff.0 001d36.ffffffff.0 0013ab.ffffffff.0 000408.ffffffff.0
Width: 461
GlyphClass: 1
Flags: HW
LayerCount: 2
Fore
SplineSet
216.920898438 233.768554688 m 0,0,1
 244.677734375 257.05859375 244.677734375 257.05859375 273.108398438 307.919921875 c 0,2,3
 330.302734375 415.060546875 330.302734375 415.060546875 354.065429688 577.715820312 c 0,4,5
 368.5 678.065429688 368.5 678.065429688 368.5 787.458007812 c 0,6,7
 368.5 897.124023438 368.5 897.124023438 354.021484375 1016.04101562 c 0,8,9
 353.889648438 1017.92675781 353.889648438 1017.92675781 353.888671875 1019.81152344 c 0,10,11
 353.888671875 1031.25585938 353.888671875 1031.25585938 362.486328125 1048.88964844 c 0,12,13
 371.48828125 1067.19921875 371.48828125 1067.19921875 387.234375 1082.92773438 c 0,14,15
 389.875 1085.49121094 389.875 1085.49121094 392.4609375 1087.66113281 c 0,16,17
 404.771484375 1097.99121094 404.771484375 1097.99121094 416.28515625 1098.92480469 c 128,-1,18
 427.798828125 1099.88378906 427.798828125 1099.88378906 428.98046875 1086.87011719 c 0,19,20
 459.041015625 839.272460938 459.041015625 839.272460938 427.935546875 626.094726562 c 0,21,22
 400.697265625 436.568359375 400.697265625 436.568359375 330.6328125 302.434570312 c 0,23,24
 292.693359375 233.645507812 292.693359375 233.645507812 248.002929688 185.598632812 c 0,25,26
 231.966796875 168.40625 231.966796875 168.40625 215.96875 154.981445312 c 0,27,28
 187.056640625 130.721679688 187.056640625 130.721679688 158.864257812 119.299804688 c 0,29,30
 80.8515625 90.0458984375 80.8515625 90.0458984375 46.19140625 173.825195312 c 0,31,32
 44.400390625 177.943359375 44.400390625 177.943359375 44.400390625 184.774414062 c 0,33,34
 44.400390625 193.41796875 44.400390625 193.41796875 48.4892578125 206.509765625 c 0,35,36
 55.4384765625 228.798828125 55.4384765625 228.798828125 70.529296875 246.739257812 c 0,37,38
 76.4453125 253.745117188 76.4453125 253.745117188 83.6357421875 259.778320312 c 128,-1,39
 90.8271484375 265.8125 90.8271484375 265.8125 98.8076171875 267.778320312 c 0,40,41
 112.510742188 271.239257812 112.510742188 271.239257812 117.77734375 257.885742188 c 0,42,43
 143.138671875 199.502929688 143.138671875 199.502929688 191.9140625 218.025390625 c 0,44,45
 204.483398438 223.33203125 204.483398438 223.33203125 216.920898438 233.768554688 c 0,0,1
EndSplineSet
EndChar

StartChar: K
Encoding: 75 75 46
AltUni2: 00ff2b.ffffffff.0 00212a.ffffffff.0 001d37.ffffffff.0 0013e6.ffffffff.0 00041a.ffffffff.0 00039a.ffffffff.0 00ff2b.ffffffff.0 00212a.ffffffff.0 001d37.ffffffff.0 0013e6.ffffffff.0 00041a.ffffffff.0 00039a.ffffffff.0
Width: 510
GlyphClass: 1
Flags: HW
LayerCount: 2
Fore
SplineSet
47 95.9375 m 0,0,1
 47 119.268554688 47 119.268554688 49.0087890625 149.776367188 c 0,2,3
 55.0234375 254.924804688 55.0234375 254.924804688 80.0595703125 436.950195312 c 1,4,-1
 80.076171875 437.064453125 l 2,5,6
 83.2314453125 457.592773438 83.2314453125 457.592773438 95.087890625 538.727539062 c 2,7,-1
 110.096679688 638.366210938 l 1,8,-1
 120.209960938 704.868164062 l 1,9,10
 123 717.065429688 123 717.065429688 123 724.76171875 c 2,11,12
 123.040039062 724.684570312 123.040039062 724.684570312 123.081054688 725.28125 c 1,13,14
 137.938476562 819.609375 137.938476562 819.609375 141.05078125 847.360351562 c 0,15,16
 143.336914062 863.188476562 143.336914062 863.188476562 154.767578125 880.456054688 c 128,-1,17
 166.19921875 897.838867188 166.19921875 897.838867188 180.052734375 909.462890625 c 0,18,19
 201.04296875 927.076171875 201.04296875 927.076171875 214.1171875 924.663085938 c 0,20,21
 222.69921875 923.280273438 222.69921875 923.280273438 222.69921875 912.505859375 c 0,22,23
 222.69921875 908.670898438 222.69921875 908.670898438 222.0546875 904.138671875 c 2,24,25
 212.375976562 840.630859375 212.375976562 840.630859375 202.698242188 778.8046875 c 2,26,27
 202.579101562 771.815429688 202.579101562 771.815429688 198.3828125 755.739257812 c 0,28,29
 191.455078125 705.071289062 191.455078125 705.071289062 187.890625 689.60546875 c 0,30,31
 181.03515625 644.139648438 181.03515625 644.139648438 177.03125 618.821289062 c 1,32,33
 294.713867188 887.373046875 294.713867188 887.373046875 434.83984375 1104.74121094 c 0,34,35
 444.03515625 1119.63378906 444.03515625 1119.63378906 456.102539062 1129.75976562 c 0,36,37
 476.616210938 1146.97265625 476.616210938 1146.97265625 489.045898438 1143.24023438 c 0,38,39
 496.737304688 1140.48925781 496.737304688 1140.48925781 496.737304688 1129.15917969 c 0,40,41
 496.737304688 1106.91503906 496.737304688 1106.91503906 482.01171875 1082.421875 c 0,42,43
 321.250976562 829.450195312 321.250976562 829.450195312 203.583984375 530.068359375 c 1,44,45
 216.916992188 522.733398438 216.916992188 522.733398438 252.436523438 500.943359375 c 0,46,47
 253.514648438 499.767578125 253.514648438 499.767578125 256.561523438 497.419921875 c 128,-1,48
 259.703125 495.045898438 259.703125 495.045898438 263.325195312 492.143554688 c 0,49,50
 265.302734375 490.670898438 265.302734375 490.670898438 270.181640625 488.137695312 c 0,51,52
 320.529296875 452.580078125 320.529296875 452.580078125 349.73046875 438.41015625 c 0,53,54
 393.668945312 418.235351562 393.668945312 418.235351562 444.219726562 418.390625 c 0,55,56
 457.106445312 416.54296875 457.106445312 416.54296875 457.111328125 395.48828125 c 0,57,58
 457.111328125 383.275390625 457.111328125 383.275390625 447.87109375 364.446289062 c 0,59,60
 437.690429688 344.168945312 437.690429688 344.168945312 419.23046875 328.676757812 c 0,61,62
 405.1171875 316.833984375 405.1171875 316.833984375 393.801757812 315.465820312 c 0,63,64
 337.478515625 313.235351562 337.478515625 313.235351562 283.532226562 335.944335938 c 0,65,66
 247.676757812 351.892578125 247.676757812 351.892578125 199.140625 388.264648438 c 0,67,68
 194.359375 394.4453125 194.359375 394.4453125 190.225585938 394.280273438 c 1,69,70
 183.311523438 399.705078125 183.311523438 399.705078125 180.243164062 401.524414062 c 0,71,72
 177.173828125 403.735351562 177.173828125 403.735351562 170.48046875 408.610351562 c 128,-1,73
 163.940429688 413.66015625 163.940429688 413.66015625 160.78125 416.077148438 c 1,74,75
 159.346679688 411.7421875 159.346679688 411.7421875 155.989257812 401.924804688 c 0,76,77
 154.010742188 396.209960938 154.010742188 396.209960938 150.3359375 384.07421875 c 0,78,79
 146.66015625 373.271484375 146.66015625 373.271484375 141.704101562 365.008789062 c 1,80,81
 130.920898438 274.44921875 130.920898438 274.44921875 125.98828125 209.776367188 c 0,82,83
 124.510742188 172.715820312 124.510742188 172.715820312 124.504882812 157.465820312 c 0,84,85
 124.5 142.762695312 124.5 142.762695312 125.95703125 130.186523438 c 0,86,87
 127.645507812 124.28125 127.645507812 124.28125 127.772460938 123.708984375 c 0,88,89
 143.384765625 122.5 143.384765625 122.5 143.384765625 102.50390625 c 0,90,91
 143.384765625 97.396484375 143.384765625 97.396484375 141.80859375 90.990234375 c 0,92,93
 137.217773438 73.158203125 137.217773438 73.158203125 122.801757812 54.5400390625 c 0,94,95
 113.985351562 43.1220703125 113.985351562 43.1220703125 106.635742188 36.9541015625 c 128,-1,96
 99.2861328125 30.787109375 99.2861328125 30.787109375 93.7080078125 27.6669921875 c 0,97,98
 69.34765625 12.3828125 69.34765625 12.3828125 57.4169921875 28.1826171875 c 0,99,100
 47 42.6435546875 47 42.6435546875 47 95.9375 c 0,0,1
EndSplineSet
EndChar

StartChar: L
Encoding: 76 76 47
AltUni2: 00ff2c.ffffffff.0 00216c.ffffffff.0 002112.ffffffff.0 001d38.ffffffff.0 0013de.ffffffff.0 00ff2c.ffffffff.0 00216c.ffffffff.0 002112.ffffffff.0 001d38.ffffffff.0 0013de.ffffffff.0
Width: 485
GlyphClass: 1
Flags: HW
LayerCount: 2
Fore
SplineSet
156.87109375 878.793945312 m 0,0,1
 166.099609375 875.2578125 166.099609375 875.2578125 166.099609375 860.333984375 c 0,2,3
 166.099609375 852.270507812 166.099609375 852.270507812 158.97265625 777.870117188 c 2,4,5
 158.966796875 782.814453125 158.966796875 782.814453125 158.9609375 777.758789062 c 2,6,7
 148.96484375 689.40234375 148.96484375 689.40234375 142.471679688 627.0078125 c 0,8,9
 126.318359375 471.803710938 126.318359375 471.803710938 126.318359375 364.62890625 c 0,10,11
 126.318359375 292.283203125 126.318359375 292.283203125 133.924804688 248.254882812 c 0,12,13
 143.358398438 210.000976562 143.358398438 210.000976562 156.383789062 198.625976562 c 0,14,15
 166.053710938 189.158203125 166.053710938 189.158203125 182.645507812 200.161132812 c 0,16,17
 196.821289062 209.375 196.821289062 209.375 212.564453125 222.584960938 c 0,18,19
 253.114257812 256.610351562 253.114257812 256.610351562 317.528320312 322.840820312 c 0,20,21
 320.379882812 325.772460938 320.379882812 325.772460938 322.796875 327.852539062 c 0,22,23
 361.279296875 367.094726562 361.279296875 367.094726562 379.365234375 384.286132812 c 0,24,25
 407.680664062 412.084960938 407.680664062 412.084960938 437 436.686523438 c 0,26,27
 453.298828125 450.36328125 453.298828125 450.36328125 463.649414062 446.971679688 c 128,-1,28
 474 443.58203125 474 443.58203125 474 426.6953125 c 128,-1,29
 474 409.80859375 474 409.80859375 463.108398438 388.630859375 c 128,-1,30
 452.217773438 367.456054688 452.217773438 367.456054688 437 354.686523438 c 0,31,32
 399.561523438 323.271484375 399.561523438 323.271484375 335.211914062 257.419921875 c 0,33,34
 331.551757812 253.259765625 331.551757812 253.259765625 326.9765625 249.369140625 c 0,35,36
 272.142578125 194.389648438 272.142578125 194.389648438 250.798828125 174.462890625 c 0,37,38
 233.083007812 158.455078125 233.083007812 158.455078125 212.280273438 140.999023438 c 128,-1,39
 191.477539062 123.543945312 191.477539062 123.543945312 171.28515625 109.782226562 c 0,40,41
 86.1318359375 51.2822265625 86.1318359375 51.2822265625 60.0712890625 171.5625 c 0,42,43
 50.5185546875 219.666992188 50.5185546875 219.666992188 50.5185546875 298.623046875 c 0,44,45
 50.5185546875 422.703125 50.5185546875 422.703125 74.283203125 636.413085938 c 0,46,47
 91 786.741210938 91 786.741210938 91 798.358398438 c 2,48,49
 91.005859375 803.53125 91.005859375 803.53125 91.0107421875 798.704101562 c 2,50,51
 92.1357421875 816.516601562 92.1357421875 816.516601562 103.078125 836.641601562 c 128,-1,52
 114.021484375 856.766601562 114.021484375 856.766601562 127.661132812 868.2109375 c 0,53,54
 145.475585938 883.159179688 145.475585938 883.159179688 156.87109375 878.793945312 c 0,0,1
EndSplineSet
EndChar

StartChar: M
Encoding: 77 77 48
AltUni2: 00ff2d.ffffffff.0 00216f.ffffffff.0 002133.ffffffff.0 001d39.ffffffff.0 0013b7.ffffffff.0 00041c.ffffffff.0 00039c.ffffffff.0 00ff2d.ffffffff.0 00216f.ffffffff.0 002133.ffffffff.0 001d39.ffffffff.0 0013b7.ffffffff.0 00041c.ffffffff.0 00039c.ffffffff.0
Width: 597
GlyphClass: 1
Flags: HW
LayerCount: 2
Fore
SplineSet
158.8828125 847.319335938 m 1,0,-1
 158.8828125 846.264648438 l 1,1,2
 161.977539062 856.3828125 161.977539062 856.3828125 161.977539062 859.916015625 c 2,3,-1
 161.977539062 865.916015625 l 2,4,5
 161.977539062 867.8828125 161.977539062 867.8828125 160.116210938 873.131835938 c 0,6,7
 154.876953125 879.841796875 154.876953125 879.841796875 142.528320312 873.275390625 c 0,8,9
 138.2890625 871.038085938 138.2890625 871.038085938 132.345703125 866.051757812 c 128,-1,10
 126.513671875 861.157226562 126.513671875 861.157226562 120.268554688 852.59375 c 128,-1,11
 114.111328125 844.008789062 114.111328125 844.008789062 112.270507812 840.50390625 c 0,12,13
 110.89453125 836.342773438 110.89453125 836.342773438 108.00390625 831.328125 c 0,14,15
 103.791015625 819.301757812 103.791015625 819.301757812 102.8359375 812.543945312 c 0,16,17
 101.551757812 809.047851562 101.551757812 809.047851562 99.703125 801.26171875 c 0,18,19
 48.8525390625 619.03125 48.8525390625 619.03125 32.927734375 513.77734375 c 0,20,21
 10 368.935546875 10 368.935546875 10 287.390625 c 0,22,23
 10 245.987304688 10 245.987304688 18.939453125 196.946289062 c 0,24,25
 22.955078125 174.581054688 22.955078125 174.581054688 24.435546875 162.924804688 c 0,26,27
 25.916015625 151.930664062 25.916015625 151.930664062 27.8271484375 145.254882812 c 0,28,29
 31 137.40234375 31 137.40234375 31 130.197265625 c 0,30,31
 31 126.71484375 31 126.71484375 33.9443359375 115.20703125 c 0,32,33
 36.9326171875 98.05078125 36.9326171875 98.05078125 47.8388671875 29.90625 c 0,34,35
 50.330078125 27.7294921875 50.330078125 27.7294921875 52.0029296875 26.908203125 c 0,36,37
 57.80859375 25.1611328125 57.80859375 25.1611328125 64.939453125 24.15625 c 0,38,39
 72.0693359375 24.4736328125 72.0693359375 24.4736328125 77 28.6103515625 c 2,40,-1
 78.6298828125 29.978515625 l 1,41,42
 90.291015625 41.2119140625 90.291015625 41.2119140625 97.1455078125 54.65625 c 0,43,44
 104 68.5 104 68.5 104 78.2666015625 c 2,45,-1
 104 80.544921875 l 1,46,47
 99.0107421875 120.265625 99.0107421875 120.265625 88.03515625 178.053710938 c 0,48,49
 77.0595703125 235.630859375 77.0595703125 235.630859375 75.0537109375 247.47265625 c 128,-1,50
 73.0439453125 259.322265625 73.0439453125 259.322265625 68.03515625 297.083007812 c 2,51,52
 68.0283203125 297.391601562 68.0283203125 297.391601562 68.0205078125 297.140625 c 2,53,54
 66 317.392578125 66 317.392578125 66 336.380859375 c 0,55,56
 66 413.845703125 66 413.845703125 87.083984375 544.990234375 c 0,57,58
 95.1328125 592.577148438 95.1328125 592.577148438 121.7734375 707.857421875 c 1,59,60
 142.012695312 629.450195312 142.012695312 629.450195312 144.420898438 611.63671875 c 0,61,62
 153.676757812 519.697265625 153.676757812 519.697265625 168.061523438 459.032226562 c 0,63,64
 190.602539062 379.9765625 190.602539062 379.9765625 234.606445312 338.587890625 c 0,65,66
 242.995117188 331.879882812 242.995117188 331.879882812 260.6953125 339.33203125 c 0,67,68
 276.178710938 348.741210938 276.178710938 348.741210938 279.57421875 351.590820312 c 2,69,-1
 284.731445312 355.91796875 l 2,70,71
 297.126953125 366.318359375 297.126953125 366.318359375 306.962890625 381.901367188 c 0,72,73
 317.676757812 400.1484375 317.676757812 400.1484375 319.875 413.340820312 c 2,74,75
 322.459960938 427.653320312 322.459960938 427.653320312 325.045898438 439.751953125 c 2,76,77
 331.57421875 476.08984375 331.57421875 476.08984375 344.2890625 567.473632812 c 128,-1,78
 357.005859375 658.690429688 357.005859375 658.690429688 369.409179688 731.91015625 c 0,79,80
 399.409179688 903.114257812 399.409179688 903.114257812 420.209960938 970.544921875 c 0,81,82
 423.272460938 981.076171875 423.272460938 981.076171875 439.463867188 1041.98730469 c 1,83,-1
 439.463867188 1012.75390625 l 1,84,-1
 439.463867188 995.75390625 l 2,85,86
 439.463867188 974.727539062 439.463867188 974.727539062 441.491210938 959.459960938 c 2,87,88
 441.5 958.8125 441.5 958.8125 441.508789062 959.333984375 c 1,89,90
 445.624023438 897.350585938 445.624023438 897.350585938 451.841796875 870.609375 c 1,91,92
 451.841796875 864.55859375 451.841796875 864.55859375 452.874023438 859.423828125 c 2,93,-1
 452.874023438 855.8203125 l 1,94,-1
 453.642578125 854.231445312 l 1,95,-1
 453.905273438 853.686523438 l 1,96,-1
 453.905273438 852.872070312 l 1,97,-1
 453.905273438 851.872070312 l 1,98,-1
 453.905273438 849.438476562 l 1,99,100
 455.047851562 845.211914062 455.047851562 845.211914062 458.955078125 815.78515625 c 0,101,102
 460.985351562 804.19921875 460.985351562 804.19921875 464.987304688 751.53125 c 1,103,-1
 465 751.181640625 l 2,104,105
 465 725.372070312 465 725.372070312 467.986328125 688.06640625 c 0,106,107
 471.951171875 626.366210938 471.951171875 626.366210938 471.999023438 617.736328125 c 0,108,109
 478.971679688 546.276367188 478.971679688 546.276367188 488.916015625 497.149414062 c 0,110,111
 503.40234375 438.556640625 503.40234375 438.556640625 527.842773438 431.376953125 c 0,112,113
 536.340820312 430.04296875 536.340820312 430.04296875 548.135742188 439.940429688 c 128,-1,114
 559.930664062 449.837890625 559.930664062 449.837890625 567.549804688 462.549804688 c 0,115,116
 577 477.520507812 577 477.520507812 577 487.280273438 c 0,117,118
 577 501.34375 577 501.34375 570.352539062 504.680664062 c 0,119,120
 554.3203125 506.840820312 554.3203125 506.840820312 544.078125 553.600585938 c 0,121,122
 533.026367188 601.299804688 533.026367188 601.299804688 529.0078125 670.88671875 c 1,123,124
 529.00390625 671.056640625 529.00390625 671.056640625 529 671.020507812 c 2,125,126
 529 681.8671875 529 681.8671875 525.004882812 730.154296875 c 0,127,128
 521.010742188 777.967773438 521.010742188 777.967773438 521 801.047851562 c 0,129,130
 518.021484375 860.064453125 518.021484375 860.064453125 516.041992188 868.302734375 c 2,131,-1
 510.068359375 902.170898438 l 1,132,-1
 510 902.522460938 l 2,133,134
 510 906.125976562 510 906.125976562 509 908.287109375 c 2,135,-1
 509 909.1015625 l 1,136,-1
 509 915.604492188 l 1,137,138
 507.029296875 923.887695312 507.029296875 923.887695312 506.540039062 929.344726562 c 0,139,140
 506.376953125 931.161132812 506.376953125 931.161132812 503.068359375 944.296875 c 0,141,142
 501.021484375 954.858398438 501.021484375 954.858398438 500.006835938 973.2890625 c 2,143,-1
 498.018554688 1008.703125 l 1,144,145
 496 1021.59277344 496 1021.59277344 496 1053.19335938 c 2,146,-1
 496 1061.19335938 l 2,147,148
 496 1072.90136719 496 1072.90136719 495.009765625 1087.734375 c 2,149,150
 495.004882812 1087.6171875 495.004882812 1087.6171875 495 1088.19921875 c 2,151,152
 495 1102.06738281 495 1102.06738281 491.180664062 1113.59472656 c 0,153,154
 487.361328125 1124.54296875 487.361328125 1124.54296875 481.842773438 1128.50585938 c 0,155,156
 471.400390625 1131.55175781 471.400390625 1131.55175781 457 1119.46875 c 0,157,158
 453.388671875 1116.43847656 453.388671875 1116.43847656 448.731445312 1111.71289062 c 0,159,160
 417.923828125 1080.57128906 417.923828125 1080.57128906 395.396484375 1027.57324219 c 0,161,162
 379.139648438 988.641601562 379.139648438 988.641601562 361.779296875 929.104492188 c 0,163,164
 337.197265625 841.557617188 337.197265625 841.557617188 312.529296875 694.493164062 c 0,165,166
 311.354492188 683.716796875 311.354492188 683.716796875 294.98828125 577.7578125 c 0,167,168
 291.875976562 553.262695312 291.875976562 553.262695312 280.560546875 478.561523438 c 0,169,170
 278.48046875 458.484375 278.48046875 458.484375 275.24609375 448.372070312 c 0,171,172
 274.146484375 442.452148438 274.146484375 442.452148438 272.842773438 438.947265625 c 2,173,174
 270.263671875 434.018554688 270.263671875 434.018554688 267.685546875 424.6171875 c 1,175,176
 265.557617188 429.794921875 265.557617188 429.794921875 263.430664062 431.047851562 c 2,177,178
 237.478515625 471.711914062 237.478515625 471.711914062 225.008789062 518.788085938 c 0,179,180
 211.548828125 566.715820312 211.548828125 566.715820312 201.20703125 666.287109375 c 0,181,182
 196.076171875 701.276367188 196.076171875 701.276367188 182.733398438 747.141601562 c 1,183,184
 182.670898438 746.681640625 182.670898438 746.681640625 182.608398438 748.678710938 c 2,185,186
 182.608398438 749.848632812 182.608398438 749.848632812 174.911132812 778.391601562 c 0,187,188
 167.212890625 807.624023438 167.212890625 807.624023438 165.689453125 816.26171875 c 0,189,190
 164.016601562 824.609375 164.016601562 824.609375 163.009765625 825.767578125 c 2,191,192
 163.009765625 823.461914062 163.009765625 823.461914062 163.009765625 827.892578125 c 2,193,194
 162.946289062 828.204101562 162.946289062 828.204101562 162.078125 830.91796875 c 1,195,196
 162.567382812 835.02734375 162.567382812 835.02734375 161.241210938 835.616210938 c 0,197,198
 159.915039062 838.00390625 159.915039062 838.00390625 159.915039062 841.184570312 c 0,199,200
 159.915039062 839.806640625 159.915039062 839.806640625 159.424804688 838.67578125 c 1,201,202
 162.122070312 837.086914062 162.122070312 837.086914062 164.817382812 844.298828125 c 1,203,-1
 158.8828125 839.319335938 l 1,204,-1
 158.8828125 845.319335938 l 1,205,-1
 158.8828125 847.319335938 l 1,0,-1
EndSplineSet
EndChar

StartChar: N
Encoding: 78 78 49
AltUni2: 00ff2e.ffffffff.0 002115.ffffffff.0 001d3a.ffffffff.0 00039d.ffffffff.0 00ff2e.ffffffff.0 002115.ffffffff.0 001d3a.ffffffff.0 00039d.ffffffff.0
Width: 555
GlyphClass: 1
Flags: HW
LayerCount: 2
Fore
SplineSet
449.474609375 459.62109375 m 1,0,1
 470 550.969726562 470 550.969726562 470 728.376953125 c 0,2,3
 470 965.1328125 470 965.1328125 448.05859375 1093.44042969 c 0,4,5
 447.579101562 1096.53710938 447.579101562 1096.53710938 447.579101562 1099.97070312 c 0,6,7
 447.579101562 1110.03125 447.579101562 1110.03125 454.30859375 1124.70507812 c 0,8,9
 465.155273438 1148.16894531 465.155273438 1148.16894531 486.305664062 1165.91601562 c 0,10,11
 496.771484375 1174.69824219 496.771484375 1174.69824219 506.2265625 1177.27734375 c 0,12,13
 519.56640625 1180.89257812 519.56640625 1180.89257812 521.928710938 1168.8203125 c 0,14,15
 545.1484375 1073.31152344 545.1484375 1073.31152344 545.1484375 831.060546875 c 0,16,17
 545.1484375 677.09375 545.1484375 677.09375 532.96875 565.25 c 0,18,19
 526.876953125 506.424804688 526.876953125 506.424804688 516.5625 476.548828125 c 0,20,21
 507.268554688 449.05859375 507.268554688 449.05859375 498.698242188 433.6015625 c 0,22,23
 482.234375 401.642578125 482.234375 401.642578125 459.296875 382.395507812 c 128,-1,24
 436.359375 363.149414062 436.359375 363.149414062 415.6015625 359.791015625 c 0,25,26
 401.522460938 358.040039062 401.522460938 358.040039062 386.481445312 364.3828125 c 0,27,28
 361.19140625 377.1953125 361.19140625 377.1953125 341.236328125 409.334960938 c 0,29,30
 331.859375 424.509765625 331.859375 424.509765625 299.629882812 485.442382812 c 0,31,32
 281.94140625 519.052734375 281.94140625 519.052734375 258.037109375 575.045898438 c 0,33,34
 211.350585938 681.739257812 211.350585938 681.739257812 191.692382812 716.056640625 c 0,35,36
 168.962890625 752.387695312 168.962890625 752.387695312 151.208984375 768.83203125 c 1,37,38
 138.63671875 727.935546875 138.63671875 727.935546875 138.63671875 661.833007812 c 0,39,40
 138.63671875 594.112304688 138.63671875 594.112304688 145.991210938 472.807617188 c 0,41,42
 147.971679688 442.25 147.971679688 442.25 153.9140625 415.99609375 c 0,43,44
 157.015625 399.938476562 157.015625 399.938476562 160.159179688 370.745117188 c 0,45,46
 166.392578125 335.720703125 166.392578125 335.720703125 167.443359375 325.412109375 c 2,47,48
 167.450195312 325.916015625 167.450195312 325.916015625 167.456054688 325.182617188 c 2,49,50
 169.508789062 293.607421875 169.508789062 293.607421875 179.868164062 257.303710938 c 0,51,52
 195.15625 202.271484375 195.15625 202.271484375 195.15625 185.8671875 c 0,53,54
 195.15625 161.344726562 195.15625 161.344726562 176.774414062 124.334960938 c 0,55,56
 162.35546875 96.13671875 162.35546875 96.13671875 139.970703125 77.353515625 c 0,57,58
 126.5859375 66.1220703125 126.5859375 66.1220703125 116.063476562 63.49609375 c 0,59,60
 103.752929688 61.5234375 103.752929688 61.5234375 94.6435546875 68.4765625 c 0,61,62
 81.33984375 80.240234375 81.33984375 80.240234375 75.1572265625 97.1337890625 c 0,63,64
 47.0263671875 182.516601562 47.0263671875 182.516601562 40.00390625 343.364257812 c 0,65,66
 37.0009765625 415.920898438 37.0009765625 415.920898438 37 472.046875 c 2,67,-1
 37 474.046875 l 2,68,69
 37 558.904296875 37 558.904296875 35.0146484375 589.993164062 c 0,70,71
 34.900390625 591.390625 34.900390625 591.390625 34.900390625 592.850585938 c 0,72,73
 34.900390625 606.2265625 34.900390625 606.2265625 44.0185546875 623.501953125 c 0,74,75
 53.1376953125 636.791015625 53.1376953125 636.791015625 65.353515625 648.354492188 c 1,76,77
 68.5439453125 688.978515625 68.5439453125 688.978515625 77.2451171875 723.78515625 c 0,78,79
 92.8515625 782.775390625 92.8515625 782.775390625 128.524414062 831.82421875 c 0,80,81
 138.860351562 845.768554688 138.860351562 845.768554688 156.49609375 860.56640625 c 0,82,83
 174.545898438 875.711914062 174.545898438 875.711914062 188.7890625 875.412109375 c 0,84,85
 219.678710938 872.342773438 219.678710938 872.342773438 263.6875 803.069335938 c 0,86,87
 285.563476562 767.254882812 285.563476562 767.254882812 340.559570312 641.029296875 c 0,88,89
 395.555664062 516.748046875 395.555664062 516.748046875 412.985351562 499.15625 c 0,90,91
 437.456054688 473.6015625 437.456054688 473.6015625 449.474609375 459.62109375 c 1,0,1
EndSplineSet
EndChar

StartChar: O
Encoding: 79 79 50
AltUni2: 00ff2f.ffffffff.0 001d3c.ffffffff.0 000555.ffffffff.0 00041e.ffffffff.0 00039f.ffffffff.0 00ff2f.ffffffff.0 001d3c.ffffffff.0 000555.ffffffff.0 00041e.ffffffff.0 00039f.ffffffff.0
Width: 690
GlyphClass: 1
Flags: HW
LayerCount: 2
Fore
SplineSet
102.229492188 375.978515625 m 0,0,1
 102.229492188 304.416015625 102.229492188 304.416015625 136.088867188 285.950195312 c 0,2,3
 214.4453125 243.060546875 214.4453125 243.060546875 295.418945312 311.004882812 c 0,4,5
 325.44921875 336.203125 325.44921875 336.203125 357.407226562 376.977539062 c 0,6,7
 409.568359375 444.751953125 409.568359375 444.751953125 456.67578125 543.916992188 c 128,-1,8
 503.78125 642.88671875 503.78125 642.88671875 535.314453125 749.9296875 c 0,9,10
 574.036132812 883.598632812 574.036132812 883.598632812 574.036132812 975.149414062 c 0,11,12
 574.036132812 1028.18066406 574.036132812 1028.18066406 558.349609375 1053.83007812 c 0,13,14
 528.29296875 1103.16796875 528.29296875 1103.16796875 441.482421875 1030.32519531 c 0,15,16
 403.45703125 998.418945312 403.45703125 998.418945312 353.866210938 942.3359375 c 0,17,18
 347.873046875 935.4453125 347.873046875 935.4453125 339.94140625 928.790039062 c 128,-1,19
 332.009765625 922.134765625 332.009765625 922.134765625 322.686523438 920.038085938 c 0,20,21
 308.177734375 916.6796875 308.177734375 916.6796875 302.400390625 929.3828125 c 0,22,23
 302.065429688 928.486328125 302.065429688 928.486328125 301.8125 927.647460938 c 0,24,25
 294.927734375 920.556640625 294.927734375 920.556640625 287.766601562 911.229492188 c 0,26,27
 246.990234375 861.915039062 246.990234375 861.915039062 208.904296875 775.749023438 c 0,28,29
 138.690429688 613.958984375 138.690429688 613.958984375 113.885742188 480.49609375 c 0,30,31
 102.229492188 418.990234375 102.229492188 418.990234375 102.229492188 375.978515625 c 0,0,1
654.840820312 1042.39746094 m 0,32,33
 654.840820312 938.465820312 654.840820312 938.465820312 611.68359375 787.265625 c 0,34,35
 575.41796875 660.876953125 575.41796875 660.876953125 518.916015625 541.754882812 c 0,36,37
 461.358398438 422.1953125 461.358398438 422.1953125 393.583984375 334.259765625 c 0,38,39
 345.150390625 271.399414062 345.150390625 271.399414062 296.243164062 230.361328125 c 0,40,41
 260.080078125 200.016601562 260.080078125 200.016601562 226.470703125 183.05078125 c 0,42,43
 140.84765625 141.319335938 140.84765625 141.319335938 67.8701171875 181.034179688 c 0,44,45
 28.1376953125 204.721679688 28.1376953125 204.721679688 21.0205078125 275.633789062 c 1,46,47
 21.0146484375 275.875 21.0146484375 275.875 21.009765625 275.697265625 c 2,48,49
 20.19921875 287.9921875 20.19921875 287.9921875 20.2001953125 301.470703125 c 0,50,51
 20.2001953125 356.061523438 20.2001953125 356.061523438 33.1015625 429.784179688 c 2,52,-1
 33.1318359375 429.944335938 l 1,53,54
 63.328125 582.6796875 63.328125 582.6796875 138.8203125 761.479492188 c 0,55,56
 190.999023438 881.15625 190.999023438 881.15625 257.194335938 960.813476562 c 0,57,58
 287.549804688 997.2890625 287.549804688 997.2890625 325.158203125 1032.83984375 c 0,59,60
 344.921875 1051.42382812 344.921875 1051.42382812 397.520507812 1095.55957031 c 0,61,62
 424.499023438 1118.19726562 424.499023438 1118.19726562 433.859375 1105.09960938 c 0,63,64
 435.112304688 1106.16113281 435.112304688 1106.16113281 436.36328125 1107.2109375 c 0,65,66
 485.172851562 1148.16699219 485.172851562 1148.16699219 527.556640625 1168.67480469 c 2,67,68
 527.66015625 1166.359375 527.66015625 1166.359375 527.762695312 1168.80664062 c 1,69,70
 600.838867188 1200.07226562 600.838867188 1200.07226562 634.624023438 1148.50976562 c 1,71,72
 634.666992188 1147.56640625 634.666992188 1147.56640625 634.709960938 1148.47070312 c 1,73,74
 654.840820312 1109.80566406 654.840820312 1109.80566406 654.840820312 1042.39746094 c 0,32,33
EndSplineSet
EndChar

StartChar: P
Encoding: 80 80 51
AltUni2: 00ff30.ffffffff.0 002119.ffffffff.0 001d3e.ffffffff.0 0013e2.ffffffff.0 000420.ffffffff.0 0003a1.ffffffff.0 00ff30.ffffffff.0 002119.ffffffff.0 001d3e.ffffffff.0 0013e2.ffffffff.0 000420.ffffffff.0 0003a1.ffffffff.0
Width: 563
GlyphClass: 1
Flags: HW
LayerCount: 2
Fore
SplineSet
105 35.10546875 m 0,0,1
 63.7724609375 0.51171875 63.7724609375 0.51171875 46.1376953125 57.7109375 c 0,2,3
 27 121.08984375 27 121.08984375 27 346.655273438 c 0,4,5
 27 542.623046875 27 542.623046875 39.0126953125 726.740234375 c 0,6,7
 40.1591796875 741.716796875 40.1591796875 741.716796875 52.623046875 761.63671875 c 128,-1,8
 65.0859375 781.704101562 65.0859375 781.704101562 79.4755859375 793.778320312 c 0,9,10
 80.912109375 794.984375 80.912109375 794.984375 82.3603515625 796.108398438 c 2,11,12
 82.458984375 793.396484375 82.458984375 793.396484375 82.5576171875 796.264648438 c 2,13,14
 91.6015625 802.87109375 91.6015625 802.87109375 100.506835938 805.098632812 c 1,15,16
 252.897460938 971.971679688 252.897460938 971.971679688 296.940429688 1008.92773438 c 0,17,18
 326.541992188 1033.76660156 326.541992188 1033.76660156 354.063476562 1054.08398438 c 0,19,20
 413 1096.5546875 413 1096.5546875 457.260742188 1112.65527344 c 0,21,22
 520.221679688 1134.5859375 520.221679688 1134.5859375 536.809570312 1091.4375 c 0,23,24
 545.356445312 1069.26953125 545.356445312 1069.26953125 545.356445312 1042.16894531 c 0,25,26
 545.356445312 966.653320312 545.356445312 966.653320312 482.395507812 856.109375 c 0,27,28
 454.965820312 807.6953125 454.965820312 807.6953125 400.567382812 731.76171875 c 1,29,-1
 400.28515625 731.380859375 l 1,30,31
 359.692382812 678.255859375 359.692382812 678.255859375 305.651367188 612.865234375 c 0,32,33
 289.760742188 592.41015625 289.760742188 592.41015625 227.706054688 518.405273438 c 0,34,35
 152.235351562 429.165039062 152.235351562 429.165039062 133.201171875 397.642578125 c 0,36,37
 122.650390625 380.583007812 122.650390625 380.583007812 108.194335938 368.453125 c 1,38,39
 110.147460938 263.303710938 110.147460938 263.303710938 115.975585938 207.299804688 c 2,40,41
 115.982421875 207.861328125 115.982421875 207.861328125 115.989257812 207.07421875 c 2,42,43
 119.799804688 154.438476562 119.799804688 154.438476562 131.576171875 129.068359375 c 1,44,45
 132.778320312 130.869140625 132.778320312 130.869140625 133.981445312 127.997070312 c 1,46,47
 146 124.2578125 146 124.2578125 146 105.881835938 c 0,48,49
 146 91.5029296875 146 91.5029296875 133.619140625 70.197265625 c 0,50,51
 122.146484375 49.4931640625 122.146484375 49.4931640625 105 35.10546875 c 0,0,1
299.998046875 929.088867188 m 0,52,53
 208.213867188 852.072265625 208.213867188 852.072265625 116.815429688 738.032226562 c 1,54,55
 110.15625 616.647460938 110.15625 616.647460938 108.107421875 453.611328125 c 1,56,57
 139.657226562 498.326171875 139.657226562 498.326171875 196.499023438 567.361328125 c 0,58,59
 203.624023438 577.673828125 203.624023438 577.673828125 236.459960938 617.096679688 c 128,-1,60
 269.41015625 656.658203125 269.41015625 656.658203125 275.918945312 664.223632812 c 0,61,62
 384.92578125 797.34375 384.92578125 797.34375 427.697265625 869.633789062 c 0,63,64
 463.555664062 932.1328125 463.555664062 932.1328125 463.555664062 974.8125 c 0,65,66
 463.555664062 989.938476562 463.555664062 989.938476562 458.170898438 1003.79394531 c 0,67,68
 451.741210938 1020.45800781 451.741210938 1020.45800781 419.506835938 1009.08496094 c 0,69,70
 376.284179688 993.099609375 376.284179688 993.099609375 299.998046875 929.088867188 c 0,52,53
EndSplineSet
EndChar

